<svg xmlns="http://www.w3.org/2000/svg" xmlns:xlink="http://www.w3.org/1999/xlink" width="500" zoomAndPan="magnify" viewBox="0 0 375 374.999991" height="500" preserveAspectRatio="xMidYMid meet" version="1.0"><defs><clipPath id="3fc42636f3"><path d="M 56 95 L 320 95 L 320 346 L 56 346 Z M 56 95 " clip-rule="nonzero"/></clipPath><clipPath id="6b43f23931"><path d="M -2.914062 80.984375 L 285.382812 -7.273438 L 377.589844 293.929688 L 89.296875 382.183594 Z M -2.914062 80.984375 " clip-rule="nonzero"/></clipPath><clipPath id="2d66a6db5a"><path d="M -2.914062 80.984375 L 285.382812 -7.273438 L 377.589844 293.929688 L 89.296875 382.183594 Z M -2.914062 80.984375 " clip-rule="nonzero"/></clipPath><clipPath id="25d9f92996"><path d="M -2.914062 80.984375 L 285.382812 -7.273438 L 377.589844 293.929688 L 89.296875 382.183594 Z M -2.914062 80.984375 " clip-rule="nonzero"/></clipPath><clipPath id="b060efcb5f"><path d="M 142 57 L 183 57 L 183 131 L 142 131 Z M 142 57 " clip-rule="nonzero"/></clipPath><clipPath id="8458f3a999"><path d="M -2.914062 80.984375 L 285.382812 -7.273438 L 377.589844 293.929688 L 89.296875 382.183594 Z M -2.914062 80.984375 " clip-rule="nonzero"/></clipPath><clipPath id="0a0dfafea2"><path d="M -2.914062 80.984375 L 285.382812 -7.273438 L 377.589844 293.929688 L 89.296875 382.183594 Z M -2.914062 80.984375 " clip-rule="nonzero"/></clipPath><clipPath id="9248c64a7d"><path d="M -2.914062 80.984375 L 285.382812 -7.273438 L 377.589844 293.929688 L 89.296875 382.183594 Z M -2.914062 80.984375 " clip-rule="nonzero"/></clipPath><clipPath id="6900e73e47"><path d="M 73 139 L 111 139 L 111 269 L 73 269 Z M 73 139 " clip-rule="nonzero"/></clipPath><clipPath id="6b0a6b023c"><path d="M -2.914062 80.984375 L 285.382812 -7.273438 L 377.589844 293.929688 L 89.296875 382.183594 Z M -2.914062 80.984375 " clip-rule="nonzero"/></clipPath><clipPath id="5886107aed"><path d="M -2.914062 80.984375 L 285.382812 -7.273438 L 377.589844 293.929688 L 89.296875 382.183594 Z M -2.914062 80.984375 " clip-rule="nonzero"/></clipPath><clipPath id="03c46d77f4"><path d="M -2.914062 80.984375 L 285.382812 -7.273438 L 377.589844 293.929688 L 89.296875 382.183594 Z M -2.914062 80.984375 " clip-rule="nonzero"/></clipPath><clipPath id="ad10b16899"><path d="M 133 112 L 227 112 L 227 138 L 133 138 Z M 133 112 " clip-rule="nonzero"/></clipPath><clipPath id="cc110a34a1"><path d="M -2.914062 80.984375 L 285.382812 -7.273438 L 377.589844 293.929688 L 89.296875 382.183594 Z M -2.914062 80.984375 " clip-rule="nonzero"/></clipPath><clipPath id="2426de4812"><path d="M -2.914062 80.984375 L 285.382812 -7.273438 L 377.589844 293.929688 L 89.296875 382.183594 Z M -2.914062 80.984375 " clip-rule="nonzero"/></clipPath><clipPath id="b302ee35ad"><path d="M -2.914062 80.984375 L 285.382812 -7.273438 L 377.589844 293.929688 L 89.296875 382.183594 Z M -2.914062 80.984375 " clip-rule="nonzero"/></clipPath><clipPath id="16632e2ce2"><path d="M 169 12 L 227 12 L 227 98 L 169 98 Z M 169 12 " clip-rule="nonzero"/></clipPath><clipPath id="0da88d23de"><path d="M -2.914062 80.984375 L 285.382812 -7.273438 L 377.589844 293.929688 L 89.296875 382.183594 Z M -2.914062 80.984375 " clip-rule="nonzero"/></clipPath><clipPath id="b2062058b0"><path d="M -2.914062 80.984375 L 285.382812 -7.273438 L 377.589844 293.929688 L 89.296875 382.183594 Z M -2.914062 80.984375 " clip-rule="nonzero"/></clipPath><clipPath id="8d93153227"><path d="M -2.914062 80.984375 L 285.382812 -7.273438 L 377.589844 293.929688 L 89.296875 382.183594 Z M -2.914062 80.984375 " clip-rule="nonzero"/></clipPath><clipPath id="a570c6a322"><path d="M 170 12 L 227 12 L 227 98 L 170 98 Z M 170 12 " clip-rule="nonzero"/></clipPath><clipPath id="0d288fbb62"><path d="M -2.914062 80.984375 L 285.382812 -7.273438 L 377.589844 293.929688 L 89.296875 382.183594 Z M -2.914062 80.984375 " clip-rule="nonzero"/></clipPath><clipPath id="2453a33a30"><path d="M -2.914062 80.984375 L 285.382812 -7.273438 L 377.589844 293.929688 L 89.296875 382.183594 Z M -2.914062 80.984375 " clip-rule="nonzero"/></clipPath><clipPath id="b3a1b4623e"><path d="M -2.914062 80.984375 L 285.382812 -7.273438 L 377.589844 293.929688 L 89.296875 382.183594 Z M -2.914062 80.984375 " clip-rule="nonzero"/></clipPath><clipPath id="dc03cb8f72"><path d="M 147 173 L 320 173 L 320 346 L 147 346 Z M 147 173 " clip-rule="nonzero"/></clipPath><clipPath id="308e9d9bb0"><path d="M -2.914062 80.984375 L 285.382812 -7.273438 L 377.589844 293.929688 L 89.296875 382.183594 Z M -2.914062 80.984375 " clip-rule="nonzero"/></clipPath><clipPath id="07a4fdaff6"><path d="M -2.914062 80.984375 L 285.382812 -7.273438 L 377.589844 293.929688 L 89.296875 382.183594 Z M -2.914062 80.984375 " clip-rule="nonzero"/></clipPath><clipPath id="427ffecab8"><path d="M -2.914062 80.984375 L 285.382812 -7.273438 L 377.589844 293.929688 L 89.296875 382.183594 Z M -2.914062 80.984375 " clip-rule="nonzero"/></clipPath></defs><g clip-path="url(#3fc42636f3)"><g clip-path="url(#6b43f23931)"><g clip-path="url(#2d66a6db5a)"><g clip-path="url(#25d9f92996)"><path fill="#b8e054" d="M 294.316406 121.050781 C 272.453125 100.550781 243.363281 90.886719 213.796875 96.730469 C 200.734375 99.3125 144.6875 105.089844 130.234375 108.367188 C 102.054688 114.753906 76.023438 139.03125 63.808594 164.847656 C 38.910156 217.480469 85.917969 278.082031 107.472656 305.867188 C 118.878906 320.574219 128.414062 328.664062 139.558594 334.226562 C 150.648438 339.765625 166.503906 345.019531 178.816406 345.59375 C 193.679688 346.289062 239.957031 336.011719 252.433594 331.027344 C 265.011719 326.003906 276.820312 316.617188 285.996094 306.40625 C 294.320312 297.144531 300.222656 286.117188 305.4375 268.25 C 315.292969 234.5 336.789062 160.878906 294.316406 121.050781 " fill-opacity="1" fill-rule="nonzero"/></g></g></g></g><g clip-path="url(#b060efcb5f)"><g clip-path="url(#8458f3a999)"><g clip-path="url(#0a0dfafea2)"><g clip-path="url(#9248c64a7d)"><path fill="#040606" d="M 175.375 127.074219 C 175.347656 124.84375 174.652344 122.03125 173.804688 119.382812 C 172.945312 116.703125 171.921875 114.023438 170.78125 111.382812 C 168.523438 106.082031 165.925781 100.886719 163.140625 95.796875 C 160.390625 90.691406 157.382812 85.710938 154.210938 80.859375 C 152.597656 78.457031 150.953125 76.070312 149.230469 73.789062 C 148.375 72.648438 147.476562 71.527344 146.597656 70.476562 C 146.152344 69.957031 145.695312 69.441406 145.273438 69.007812 C 145.0625 68.792969 144.824219 68.550781 144.667969 68.445312 C 144.59375 68.398438 144.46875 68.265625 144.441406 68.285156 C 144.453125 68.347656 144.480469 68.410156 144.519531 68.460938 C 142.015625 66.152344 141.804688 62.230469 144.046875 59.695312 C 146.285156 57.164062 150.128906 56.976562 152.628906 59.285156 C 152.914062 59.601562 153.1875 59.929688 153.449219 60.261719 C 153.664062 60.554688 153.75 60.71875 153.902344 60.957031 C 154.207031 61.421875 154.378906 61.78125 154.597656 62.164062 C 155.019531 62.921875 155.371094 63.621094 155.726562 64.328125 C 156.445312 65.726562 157.078125 67.101562 157.746094 68.460938 L 161.59375 76.574219 L 169.207031 92.648438 L 172.910156 100.730469 C 174.109375 103.445312 175.3125 106.164062 176.472656 108.914062 C 177.621094 111.671875 178.757812 114.445312 179.78125 117.320312 C 180.796875 120.230469 181.789062 123.09375 182.261719 126.71875 C 182.511719 128.65625 181.183594 130.414062 179.289062 130.65625 C 177.394531 130.898438 175.660156 129.527344 175.40625 127.59375 C 175.390625 127.460938 175.378906 127.328125 175.378906 127.195312 L 175.375 127.074219 " fill-opacity="1" fill-rule="nonzero"/></g></g></g></g><g clip-path="url(#6900e73e47)"><g clip-path="url(#6b0a6b023c)"><g clip-path="url(#5886107aed)"><g clip-path="url(#03c46d77f4)"><path fill="#d8ed87" d="M 110.488281 144.621094 C 110.171875 128.628906 85.171875 150.140625 78.308594 172.5625 C 73.761719 187.425781 69.78125 205.15625 80.109375 230.179688 C 88.058594 249.4375 94.839844 268.476562 101 268.535156 C 108.359375 268.605469 95.65625 234.894531 94.234375 204.1875 C 92.296875 162.394531 110.640625 152.375 110.488281 144.621094 " fill-opacity="1" fill-rule="nonzero"/></g></g></g></g><g clip-path="url(#ad10b16899)"><g clip-path="url(#cc110a34a1)"><g clip-path="url(#2426de4812)"><g clip-path="url(#b302ee35ad)"><path fill="#92bc39" d="M 133.824219 123.066406 C 137.734375 124.730469 141.445312 126.65625 145.230469 128.339844 C 149.007812 129.996094 152.808594 131.621094 156.625 132.574219 C 160.226562 133.554688 164.085938 133.113281 167.898438 132.179688 C 171.730469 131.292969 175.46875 129.773438 179.203125 128.21875 C 181.0625 127.414062 182.90625 126.554688 184.742188 125.648438 C 186.589844 124.769531 188.429688 123.859375 190.277344 122.917969 L 193.097656 121.503906 C 193.996094 121.054688 195.210938 120.492188 196.140625 120.1875 C 198.113281 119.460938 200.09375 118.769531 202.082031 118.105469 C 210.066406 115.535156 218.199219 113.488281 226.515625 112.398438 C 218.785156 115.625 211.089844 118.707031 203.5 121.960938 C 201.597656 122.753906 199.703125 123.574219 197.832031 124.425781 C 196.820312 124.863281 196.15625 125.203125 195.214844 125.722656 L 192.515625 127.230469 C 190.695312 128.253906 188.851562 129.28125 186.976562 130.253906 C 185.089844 131.210938 183.167969 132.117188 181.21875 132.980469 C 177.328125 134.726562 173.21875 136.074219 168.933594 136.976562 C 167.867188 137.214844 166.75 137.304688 165.660156 137.46875 C 164.5625 137.589844 163.421875 137.589844 162.308594 137.648438 C 161.175781 137.597656 160.03125 137.53125 158.890625 137.394531 L 157.175781 137.027344 C 156.601562 136.910156 156.035156 136.78125 155.527344 136.582031 C 151.328125 135.175781 147.550781 133.105469 143.953125 130.824219 C 140.355469 128.539062 136.996094 125.925781 133.738281 123.238281 L 133.730469 123.234375 C 133.6875 123.199219 133.683594 123.136719 133.714844 123.097656 C 133.742188 123.0625 133.789062 123.050781 133.824219 123.066406 " fill-opacity="1" fill-rule="nonzero"/></g></g></g></g><g clip-path="url(#16632e2ce2)"><g clip-path="url(#0da88d23de)"><g clip-path="url(#b2062058b0)"><g clip-path="url(#8d93153227)"><path fill="#267535" d="M 170.632812 97.226562 C 170.632812 97.226562 165.714844 62.035156 180.617188 47.265625 C 190.84375 37.132812 220.921875 12.445312 223.152344 12.921875 C 223.152344 12.921875 230.78125 36.71875 224.378906 56.261719 C 219.492188 71.1875 210.882812 79.882812 208.808594 81.902344 C 198.234375 92.214844 170.632812 97.226562 170.632812 97.226562 " fill-opacity="1" fill-rule="nonzero"/></g></g></g></g><g clip-path="url(#a570c6a322)"><g clip-path="url(#0d288fbb62)"><g clip-path="url(#2453a33a30)"><g clip-path="url(#b3a1b4623e)"><path fill="#33a83f" d="M 170.632812 97.226562 C 170.632812 97.226562 183.242188 78.75 198.988281 57.527344 C 207.589844 45.929688 220.921875 12.445312 223.152344 12.921875 C 223.152344 12.921875 230.78125 36.71875 224.378906 56.261719 C 219.492188 71.1875 210.882812 79.882812 208.808594 81.902344 C 198.234375 92.214844 170.632812 97.226562 170.632812 97.226562 " fill-opacity="1" fill-rule="nonzero"/></g></g></g></g><g clip-path="url(#dc03cb8f72)"><g clip-path="url(#308e9d9bb0)"><g clip-path="url(#07a4fdaff6)"><g clip-path="url(#427ffecab8)"><path fill="#a4cb35" d="M 271.140625 299.890625 C 231.910156 327.121094 229.847656 303.308594 207.039062 323.027344 C 183.125 343.691406 144.601562 336.621094 147.375 337.753906 C 157.371094 341.828125 169.179688 345.144531 178.816406 345.59375 C 193.679688 346.289062 239.957031 336.011719 252.433594 331.027344 C 265.011719 326.003906 276.820312 316.617188 285.996094 306.40625 C 294.320312 297.144531 300.222656 286.117188 305.4375 268.25 C 311.597656 247.15625 322.304688 210.488281 319.097656 176.226562 C 317.175781 155.675781 306.753906 275.167969 271.140625 299.890625 " fill-opacity="1" fill-rule="nonzero"/></g></g></g></g></svg>