<svg xmlns="http://www.w3.org/2000/svg" xmlns:xlink="http://www.w3.org/1999/xlink" width="500" zoomAndPan="magnify" viewBox="0 0 375 374.999991" height="500" preserveAspectRatio="xMidYMid meet" version="1.0"><defs><clipPath id="2297aab3bb"><path d="M 96 17 L 164 17 L 164 76 L 96 76 Z M 96 17 " clip-rule="nonzero"/></clipPath><clipPath id="dfee68f494"><path d="M 39.257812 37.5 L 238.085938 -17.320312 L 335.964844 337.683594 L 137.132812 392.503906 Z M 39.257812 37.5 " clip-rule="nonzero"/></clipPath><clipPath id="411ebe334b"><path d="M 39.257812 37.5 L 238.085938 -17.320312 L 335.964844 337.683594 L 137.132812 392.503906 Z M 39.257812 37.5 " clip-rule="nonzero"/></clipPath><clipPath id="546c0dc8e7"><path d="M 39.257812 37.5 L 238.085938 -17.320312 L 335.964844 337.683594 L 137.132812 392.503906 Z M 39.257812 37.5 " clip-rule="nonzero"/></clipPath><clipPath id="a9a4637155"><path d="M 122 21 L 164 21 L 164 76 L 122 76 Z M 122 21 " clip-rule="nonzero"/></clipPath><clipPath id="eb9ac4d79b"><path d="M 39.257812 37.5 L 238.085938 -17.320312 L 335.964844 337.683594 L 137.132812 392.503906 Z M 39.257812 37.5 " clip-rule="nonzero"/></clipPath><clipPath id="5cba5fc386"><path d="M 39.257812 37.5 L 238.085938 -17.320312 L 335.964844 337.683594 L 137.132812 392.503906 Z M 39.257812 37.5 " clip-rule="nonzero"/></clipPath><clipPath id="b4f398296d"><path d="M 39.257812 37.5 L 238.085938 -17.320312 L 335.964844 337.683594 L 137.132812 392.503906 Z M 39.257812 37.5 " clip-rule="nonzero"/></clipPath><clipPath id="324f8ce7d1"><path d="M 143 24 L 198 24 L 198 99 L 143 99 Z M 143 24 " clip-rule="nonzero"/></clipPath><clipPath id="4e685ace0d"><path d="M 39.257812 37.5 L 238.085938 -17.320312 L 335.964844 337.683594 L 137.132812 392.503906 Z M 39.257812 37.5 " clip-rule="nonzero"/></clipPath><clipPath id="35768a5df7"><path d="M 39.257812 37.5 L 238.085938 -17.320312 L 335.964844 337.683594 L 137.132812 392.503906 Z M 39.257812 37.5 " clip-rule="nonzero"/></clipPath><clipPath id="dbc6df98e3"><path d="M 39.257812 37.5 L 238.085938 -17.320312 L 335.964844 337.683594 L 137.132812 392.503906 Z M 39.257812 37.5 " clip-rule="nonzero"/></clipPath><clipPath id="0e2b4f277f"><path d="M 143 27 L 198 27 L 198 99 L 143 99 Z M 143 27 " clip-rule="nonzero"/></clipPath><clipPath id="815263a2f2"><path d="M 39.257812 37.5 L 238.085938 -17.320312 L 335.964844 337.683594 L 137.132812 392.503906 Z M 39.257812 37.5 " clip-rule="nonzero"/></clipPath><clipPath id="9727bc94ef"><path d="M 39.257812 37.5 L 238.085938 -17.320312 L 335.964844 337.683594 L 137.132812 392.503906 Z M 39.257812 37.5 " clip-rule="nonzero"/></clipPath><clipPath id="f077871820"><path d="M 39.257812 37.5 L 238.085938 -17.320312 L 335.964844 337.683594 L 137.132812 392.503906 Z M 39.257812 37.5 " clip-rule="nonzero"/></clipPath><clipPath id="d088361e6f"><path d="M 81 62 L 177 62 L 177 129 L 81 129 Z M 81 62 " clip-rule="nonzero"/></clipPath><clipPath id="a0d6229e9f"><path d="M 39.257812 37.5 L 238.085938 -17.320312 L 335.964844 337.683594 L 137.132812 392.503906 Z M 39.257812 37.5 " clip-rule="nonzero"/></clipPath><clipPath id="99440327c9"><path d="M 39.257812 37.5 L 238.085938 -17.320312 L 335.964844 337.683594 L 137.132812 392.503906 Z M 39.257812 37.5 " clip-rule="nonzero"/></clipPath><clipPath id="25b62d7b58"><path d="M 39.257812 37.5 L 238.085938 -17.320312 L 335.964844 337.683594 L 137.132812 392.503906 Z M 39.257812 37.5 " clip-rule="nonzero"/></clipPath><clipPath id="c78e43c668"><path d="M 115 89 L 177 89 L 177 129 L 115 129 Z M 115 89 " clip-rule="nonzero"/></clipPath><clipPath id="c8f614c33f"><path d="M 39.257812 37.5 L 238.085938 -17.320312 L 335.964844 337.683594 L 137.132812 392.503906 Z M 39.257812 37.5 " clip-rule="nonzero"/></clipPath><clipPath id="62b02ebcf7"><path d="M 39.257812 37.5 L 238.085938 -17.320312 L 335.964844 337.683594 L 137.132812 392.503906 Z M 39.257812 37.5 " clip-rule="nonzero"/></clipPath><clipPath id="ee13ca5000"><path d="M 39.257812 37.5 L 238.085938 -17.320312 L 335.964844 337.683594 L 137.132812 392.503906 Z M 39.257812 37.5 " clip-rule="nonzero"/></clipPath><clipPath id="b7b98777ed"><path d="M 163 62 L 238 62 L 238 143 L 163 143 Z M 163 62 " clip-rule="nonzero"/></clipPath><clipPath id="c483bdfaab"><path d="M 39.257812 37.5 L 238.085938 -17.320312 L 335.964844 337.683594 L 137.132812 392.503906 Z M 39.257812 37.5 " clip-rule="nonzero"/></clipPath><clipPath id="d7ddc56ff7"><path d="M 39.257812 37.5 L 238.085938 -17.320312 L 335.964844 337.683594 L 137.132812 392.503906 Z M 39.257812 37.5 " clip-rule="nonzero"/></clipPath><clipPath id="2c17cc2a88"><path d="M 39.257812 37.5 L 238.085938 -17.320312 L 335.964844 337.683594 L 137.132812 392.503906 Z M 39.257812 37.5 " clip-rule="nonzero"/></clipPath><clipPath id="c53ddea793"><path d="M 65 105 L 174 105 L 174 164 L 65 164 Z M 65 105 " clip-rule="nonzero"/></clipPath><clipPath id="8fdacad9f2"><path d="M 39.257812 37.5 L 238.085938 -17.320312 L 335.964844 337.683594 L 137.132812 392.503906 Z M 39.257812 37.5 " clip-rule="nonzero"/></clipPath><clipPath id="0fb141519e"><path d="M 39.257812 37.5 L 238.085938 -17.320312 L 335.964844 337.683594 L 137.132812 392.503906 Z M 39.257812 37.5 " clip-rule="nonzero"/></clipPath><clipPath id="bc78259f30"><path d="M 39.257812 37.5 L 238.085938 -17.320312 L 335.964844 337.683594 L 137.132812 392.503906 Z M 39.257812 37.5 " clip-rule="nonzero"/></clipPath><clipPath id="33c721c073"><path d="M 163 77 L 230 77 L 230 143 L 163 143 Z M 163 77 " clip-rule="nonzero"/></clipPath><clipPath id="1acfb768e8"><path d="M 39.257812 37.5 L 238.085938 -17.320312 L 335.964844 337.683594 L 137.132812 392.503906 Z M 39.257812 37.5 " clip-rule="nonzero"/></clipPath><clipPath id="ba2edcb761"><path d="M 39.257812 37.5 L 238.085938 -17.320312 L 335.964844 337.683594 L 137.132812 392.503906 Z M 39.257812 37.5 " clip-rule="nonzero"/></clipPath><clipPath id="230346e179"><path d="M 39.257812 37.5 L 238.085938 -17.320312 L 335.964844 337.683594 L 137.132812 392.503906 Z M 39.257812 37.5 " clip-rule="nonzero"/></clipPath><clipPath id="9b780f1368"><path d="M 89 119 L 174 119 L 174 164 L 89 164 Z M 89 119 " clip-rule="nonzero"/></clipPath><clipPath id="88a7306fac"><path d="M 39.257812 37.5 L 238.085938 -17.320312 L 335.964844 337.683594 L 137.132812 392.503906 Z M 39.257812 37.5 " clip-rule="nonzero"/></clipPath><clipPath id="92fb379233"><path d="M 39.257812 37.5 L 238.085938 -17.320312 L 335.964844 337.683594 L 137.132812 392.503906 Z M 39.257812 37.5 " clip-rule="nonzero"/></clipPath><clipPath id="30d9b5d0ac"><path d="M 39.257812 37.5 L 238.085938 -17.320312 L 335.964844 337.683594 L 137.132812 392.503906 Z M 39.257812 37.5 " clip-rule="nonzero"/></clipPath><clipPath id="2390396817"><path d="M 105 133 L 308 133 L 308 367 L 105 367 Z M 105 133 " clip-rule="nonzero"/></clipPath><clipPath id="0ea3d7b4b2"><path d="M 39.257812 37.5 L 238.085938 -17.320312 L 335.964844 337.683594 L 137.132812 392.503906 Z M 39.257812 37.5 " clip-rule="nonzero"/></clipPath><clipPath id="6f3c4b2ba7"><path d="M 39.257812 37.5 L 238.085938 -17.320312 L 335.964844 337.683594 L 137.132812 392.503906 Z M 39.257812 37.5 " clip-rule="nonzero"/></clipPath><clipPath id="eba3946644"><path d="M 39.257812 37.5 L 238.085938 -17.320312 L 335.964844 337.683594 L 137.132812 392.503906 Z M 39.257812 37.5 " clip-rule="nonzero"/></clipPath><clipPath id="2b3b315c62"><path d="M 119 160 L 169 160 L 169 242 L 119 242 Z M 119 160 " clip-rule="nonzero"/></clipPath><clipPath id="d564a4efff"><path d="M 39.257812 37.5 L 238.085938 -17.320312 L 335.964844 337.683594 L 137.132812 392.503906 Z M 39.257812 37.5 " clip-rule="nonzero"/></clipPath><clipPath id="446c4bd835"><path d="M 39.257812 37.5 L 238.085938 -17.320312 L 335.964844 337.683594 L 137.132812 392.503906 Z M 39.257812 37.5 " clip-rule="nonzero"/></clipPath><clipPath id="b2711c4fde"><path d="M 39.257812 37.5 L 238.085938 -17.320312 L 335.964844 337.683594 L 137.132812 392.503906 Z M 39.257812 37.5 " clip-rule="nonzero"/></clipPath><clipPath id="8de59c6acd"><path d="M 123 134 L 308 134 L 308 367 L 123 367 Z M 123 134 " clip-rule="nonzero"/></clipPath><clipPath id="09b4f61850"><path d="M 39.257812 37.5 L 238.085938 -17.320312 L 335.964844 337.683594 L 137.132812 392.503906 Z M 39.257812 37.5 " clip-rule="nonzero"/></clipPath><clipPath id="6a32cf2903"><path d="M 39.257812 37.5 L 238.085938 -17.320312 L 335.964844 337.683594 L 137.132812 392.503906 Z M 39.257812 37.5 " clip-rule="nonzero"/></clipPath><clipPath id="01960796b8"><path d="M 39.257812 37.5 L 238.085938 -17.320312 L 335.964844 337.683594 L 137.132812 392.503906 Z M 39.257812 37.5 " clip-rule="nonzero"/></clipPath><clipPath id="fbd56bc81f"><path d="M 106 135 L 178 135 L 178 251 L 106 251 Z M 106 135 " clip-rule="nonzero"/></clipPath><clipPath id="c06ea151f0"><path d="M 39.257812 37.5 L 238.085938 -17.320312 L 335.964844 337.683594 L 137.132812 392.503906 Z M 39.257812 37.5 " clip-rule="nonzero"/></clipPath><clipPath id="a880e26c44"><path d="M 39.257812 37.5 L 238.085938 -17.320312 L 335.964844 337.683594 L 137.132812 392.503906 Z M 39.257812 37.5 " clip-rule="nonzero"/></clipPath><clipPath id="d5a92af489"><path d="M 39.257812 37.5 L 238.085938 -17.320312 L 335.964844 337.683594 L 137.132812 392.503906 Z M 39.257812 37.5 " clip-rule="nonzero"/></clipPath><clipPath id="5c13e0eb55"><path d="M 114 134 L 213 134 L 213 298 L 114 298 Z M 114 134 " clip-rule="nonzero"/></clipPath><clipPath id="93f24c867c"><path d="M 39.257812 37.5 L 238.085938 -17.320312 L 335.964844 337.683594 L 137.132812 392.503906 Z M 39.257812 37.5 " clip-rule="nonzero"/></clipPath><clipPath id="17014e441b"><path d="M 39.257812 37.5 L 238.085938 -17.320312 L 335.964844 337.683594 L 137.132812 392.503906 Z M 39.257812 37.5 " clip-rule="nonzero"/></clipPath><clipPath id="6529c86964"><path d="M 39.257812 37.5 L 238.085938 -17.320312 L 335.964844 337.683594 L 137.132812 392.503906 Z M 39.257812 37.5 " clip-rule="nonzero"/></clipPath><clipPath id="26ab6f594f"><path d="M 137 152 L 251 152 L 251 338 L 137 338 Z M 137 152 " clip-rule="nonzero"/></clipPath><clipPath id="2792b08bb1"><path d="M 39.257812 37.5 L 238.085938 -17.320312 L 335.964844 337.683594 L 137.132812 392.503906 Z M 39.257812 37.5 " clip-rule="nonzero"/></clipPath><clipPath id="75882db39f"><path d="M 39.257812 37.5 L 238.085938 -17.320312 L 335.964844 337.683594 L 137.132812 392.503906 Z M 39.257812 37.5 " clip-rule="nonzero"/></clipPath><clipPath id="8f29556ac7"><path d="M 39.257812 37.5 L 238.085938 -17.320312 L 335.964844 337.683594 L 137.132812 392.503906 Z M 39.257812 37.5 " clip-rule="nonzero"/></clipPath><clipPath id="f7786b263a"><path d="M 170 186 L 283 186 L 283 360 L 170 360 Z M 170 186 " clip-rule="nonzero"/></clipPath><clipPath id="d29a3fb632"><path d="M 39.257812 37.5 L 238.085938 -17.320312 L 335.964844 337.683594 L 137.132812 392.503906 Z M 39.257812 37.5 " clip-rule="nonzero"/></clipPath><clipPath id="b57397275b"><path d="M 39.257812 37.5 L 238.085938 -17.320312 L 335.964844 337.683594 L 137.132812 392.503906 Z M 39.257812 37.5 " clip-rule="nonzero"/></clipPath><clipPath id="c2427a6682"><path d="M 39.257812 37.5 L 238.085938 -17.320312 L 335.964844 337.683594 L 137.132812 392.503906 Z M 39.257812 37.5 " clip-rule="nonzero"/></clipPath><clipPath id="fedee8f14a"><path d="M 213 226 L 303 226 L 303 367 L 213 367 Z M 213 226 " clip-rule="nonzero"/></clipPath><clipPath id="f68af5336d"><path d="M 39.257812 37.5 L 238.085938 -17.320312 L 335.964844 337.683594 L 137.132812 392.503906 Z M 39.257812 37.5 " clip-rule="nonzero"/></clipPath><clipPath id="01b41a7153"><path d="M 39.257812 37.5 L 238.085938 -17.320312 L 335.964844 337.683594 L 137.132812 392.503906 Z M 39.257812 37.5 " clip-rule="nonzero"/></clipPath><clipPath id="325629cd7f"><path d="M 39.257812 37.5 L 238.085938 -17.320312 L 335.964844 337.683594 L 137.132812 392.503906 Z M 39.257812 37.5 " clip-rule="nonzero"/></clipPath><clipPath id="39242ee2c2"><path d="M 154 141 L 298 141 L 298 218 L 154 218 Z M 154 141 " clip-rule="nonzero"/></clipPath><clipPath id="494aabdaaf"><path d="M 39.257812 37.5 L 238.085938 -17.320312 L 335.964844 337.683594 L 137.132812 392.503906 Z M 39.257812 37.5 " clip-rule="nonzero"/></clipPath><clipPath id="d9e2fda06e"><path d="M 39.257812 37.5 L 238.085938 -17.320312 L 335.964844 337.683594 L 137.132812 392.503906 Z M 39.257812 37.5 " clip-rule="nonzero"/></clipPath><clipPath id="ead3f1174d"><path d="M 39.257812 37.5 L 238.085938 -17.320312 L 335.964844 337.683594 L 137.132812 392.503906 Z M 39.257812 37.5 " clip-rule="nonzero"/></clipPath><clipPath id="91af3d93b5"><path d="M 120 168 L 308 168 L 308 261 L 120 261 Z M 120 168 " clip-rule="nonzero"/></clipPath><clipPath id="2a37375db7"><path d="M 39.257812 37.5 L 238.085938 -17.320312 L 335.964844 337.683594 L 137.132812 392.503906 Z M 39.257812 37.5 " clip-rule="nonzero"/></clipPath><clipPath id="8d90625f70"><path d="M 39.257812 37.5 L 238.085938 -17.320312 L 335.964844 337.683594 L 137.132812 392.503906 Z M 39.257812 37.5 " clip-rule="nonzero"/></clipPath><clipPath id="cbc36961ae"><path d="M 39.257812 37.5 L 238.085938 -17.320312 L 335.964844 337.683594 L 137.132812 392.503906 Z M 39.257812 37.5 " clip-rule="nonzero"/></clipPath><clipPath id="94a18b805c"><path d="M 107 206 L 305 206 L 305 302 L 107 302 Z M 107 206 " clip-rule="nonzero"/></clipPath><clipPath id="2a570174fb"><path d="M 39.257812 37.5 L 238.085938 -17.320312 L 335.964844 337.683594 L 137.132812 392.503906 Z M 39.257812 37.5 " clip-rule="nonzero"/></clipPath><clipPath id="cd24f7d82d"><path d="M 39.257812 37.5 L 238.085938 -17.320312 L 335.964844 337.683594 L 137.132812 392.503906 Z M 39.257812 37.5 " clip-rule="nonzero"/></clipPath><clipPath id="9fccf154ca"><path d="M 39.257812 37.5 L 238.085938 -17.320312 L 335.964844 337.683594 L 137.132812 392.503906 Z M 39.257812 37.5 " clip-rule="nonzero"/></clipPath><clipPath id="c9c57c6a71"><path d="M 106 254 L 285 254 L 285 339 L 106 339 Z M 106 254 " clip-rule="nonzero"/></clipPath><clipPath id="52272f52ee"><path d="M 39.257812 37.5 L 238.085938 -17.320312 L 335.964844 337.683594 L 137.132812 392.503906 Z M 39.257812 37.5 " clip-rule="nonzero"/></clipPath><clipPath id="eb1480ffbc"><path d="M 39.257812 37.5 L 238.085938 -17.320312 L 335.964844 337.683594 L 137.132812 392.503906 Z M 39.257812 37.5 " clip-rule="nonzero"/></clipPath><clipPath id="fedd0ba5d0"><path d="M 39.257812 37.5 L 238.085938 -17.320312 L 335.964844 337.683594 L 137.132812 392.503906 Z M 39.257812 37.5 " clip-rule="nonzero"/></clipPath><clipPath id="b938c49f46"><path d="M 118 305 L 243 305 L 243 365 L 118 365 Z M 118 305 " clip-rule="nonzero"/></clipPath><clipPath id="357eb96827"><path d="M 39.257812 37.5 L 238.085938 -17.320312 L 335.964844 337.683594 L 137.132812 392.503906 Z M 39.257812 37.5 " clip-rule="nonzero"/></clipPath><clipPath id="364b0a1a44"><path d="M 39.257812 37.5 L 238.085938 -17.320312 L 335.964844 337.683594 L 137.132812 392.503906 Z M 39.257812 37.5 " clip-rule="nonzero"/></clipPath><clipPath id="c5b0ec8afc"><path d="M 39.257812 37.5 L 238.085938 -17.320312 L 335.964844 337.683594 L 137.132812 392.503906 Z M 39.257812 37.5 " clip-rule="nonzero"/></clipPath><clipPath id="27d17ae759"><path d="M 238 186 L 298 186 L 298 218 L 238 218 Z M 238 186 " clip-rule="nonzero"/></clipPath><clipPath id="870df055ea"><path d="M 39.257812 37.5 L 238.085938 -17.320312 L 335.964844 337.683594 L 137.132812 392.503906 Z M 39.257812 37.5 " clip-rule="nonzero"/></clipPath><clipPath id="5a60edbd85"><path d="M 39.257812 37.5 L 238.085938 -17.320312 L 335.964844 337.683594 L 137.132812 392.503906 Z M 39.257812 37.5 " clip-rule="nonzero"/></clipPath><clipPath id="bc5f5ff732"><path d="M 39.257812 37.5 L 238.085938 -17.320312 L 335.964844 337.683594 L 137.132812 392.503906 Z M 39.257812 37.5 " clip-rule="nonzero"/></clipPath><clipPath id="f8e80f531e"><path d="M 137 152 L 251 152 L 251 338 L 137 338 Z M 137 152 " clip-rule="nonzero"/></clipPath><clipPath id="02a81fe72f"><path d="M 39.257812 37.5 L 238.085938 -17.320312 L 335.964844 337.683594 L 137.132812 392.503906 Z M 39.257812 37.5 " clip-rule="nonzero"/></clipPath><clipPath id="54f0e2c827"><path d="M 39.257812 37.5 L 238.085938 -17.320312 L 335.964844 337.683594 L 137.132812 392.503906 Z M 39.257812 37.5 " clip-rule="nonzero"/></clipPath><clipPath id="22d71b269b"><path d="M 39.257812 37.5 L 238.085938 -17.320312 L 335.964844 337.683594 L 137.132812 392.503906 Z M 39.257812 37.5 " clip-rule="nonzero"/></clipPath><clipPath id="0453e62acb"><path d="M 209 134 L 213 134 L 213 138 L 209 138 Z M 209 134 " clip-rule="nonzero"/></clipPath><clipPath id="f211ee28f9"><path d="M 39.257812 37.5 L 238.085938 -17.320312 L 335.964844 337.683594 L 137.132812 392.503906 Z M 39.257812 37.5 " clip-rule="nonzero"/></clipPath><clipPath id="39b0fbb394"><path d="M 39.257812 37.5 L 238.085938 -17.320312 L 335.964844 337.683594 L 137.132812 392.503906 Z M 39.257812 37.5 " clip-rule="nonzero"/></clipPath><clipPath id="9ebdb548d9"><path d="M 39.257812 37.5 L 238.085938 -17.320312 L 335.964844 337.683594 L 137.132812 392.503906 Z M 39.257812 37.5 " clip-rule="nonzero"/></clipPath><clipPath id="2eca526cd1"><path d="M 238 229 L 308 229 L 308 261 L 238 261 Z M 238 229 " clip-rule="nonzero"/></clipPath><clipPath id="f7773df292"><path d="M 39.257812 37.5 L 238.085938 -17.320312 L 335.964844 337.683594 L 137.132812 392.503906 Z M 39.257812 37.5 " clip-rule="nonzero"/></clipPath><clipPath id="d26d5be579"><path d="M 39.257812 37.5 L 238.085938 -17.320312 L 335.964844 337.683594 L 137.132812 392.503906 Z M 39.257812 37.5 " clip-rule="nonzero"/></clipPath><clipPath id="6628b0daff"><path d="M 39.257812 37.5 L 238.085938 -17.320312 L 335.964844 337.683594 L 137.132812 392.503906 Z M 39.257812 37.5 " clip-rule="nonzero"/></clipPath><clipPath id="c95a292f30"><path d="M 221 267 L 305 267 L 305 302 L 221 302 Z M 221 267 " clip-rule="nonzero"/></clipPath><clipPath id="e5f651b3a2"><path d="M 39.257812 37.5 L 238.085938 -17.320312 L 335.964844 337.683594 L 137.132812 392.503906 Z M 39.257812 37.5 " clip-rule="nonzero"/></clipPath><clipPath id="88bf5de4da"><path d="M 39.257812 37.5 L 238.085938 -17.320312 L 335.964844 337.683594 L 137.132812 392.503906 Z M 39.257812 37.5 " clip-rule="nonzero"/></clipPath><clipPath id="9fcc1b5633"><path d="M 39.257812 37.5 L 238.085938 -17.320312 L 335.964844 337.683594 L 137.132812 392.503906 Z M 39.257812 37.5 " clip-rule="nonzero"/></clipPath><clipPath id="fa274c35a6"><path d="M 187 299 L 285 299 L 285 339 L 187 339 Z M 187 299 " clip-rule="nonzero"/></clipPath><clipPath id="7511c16335"><path d="M 39.257812 37.5 L 238.085938 -17.320312 L 335.964844 337.683594 L 137.132812 392.503906 Z M 39.257812 37.5 " clip-rule="nonzero"/></clipPath><clipPath id="1bf12ff42f"><path d="M 39.257812 37.5 L 238.085938 -17.320312 L 335.964844 337.683594 L 137.132812 392.503906 Z M 39.257812 37.5 " clip-rule="nonzero"/></clipPath><clipPath id="e1035def60"><path d="M 39.257812 37.5 L 238.085938 -17.320312 L 335.964844 337.683594 L 137.132812 392.503906 Z M 39.257812 37.5 " clip-rule="nonzero"/></clipPath><clipPath id="b790cd3f57"><path d="M 127 315 L 243 315 L 243 365 L 127 365 Z M 127 315 " clip-rule="nonzero"/></clipPath><clipPath id="d68f5c670c"><path d="M 39.257812 37.5 L 238.085938 -17.320312 L 335.964844 337.683594 L 137.132812 392.503906 Z M 39.257812 37.5 " clip-rule="nonzero"/></clipPath><clipPath id="017cb4fd6c"><path d="M 39.257812 37.5 L 238.085938 -17.320312 L 335.964844 337.683594 L 137.132812 392.503906 Z M 39.257812 37.5 " clip-rule="nonzero"/></clipPath><clipPath id="b15d32d834"><path d="M 39.257812 37.5 L 238.085938 -17.320312 L 335.964844 337.683594 L 137.132812 392.503906 Z M 39.257812 37.5 " clip-rule="nonzero"/></clipPath><clipPath id="857c2d2515"><path d="M 131 174 L 164 174 L 164 197 L 131 197 Z M 131 174 " clip-rule="nonzero"/></clipPath><clipPath id="5e817da8a1"><path d="M 39.257812 37.5 L 238.085938 -17.320312 L 335.964844 337.683594 L 137.132812 392.503906 Z M 39.257812 37.5 " clip-rule="nonzero"/></clipPath><clipPath id="24bde1d9a2"><path d="M 39.257812 37.5 L 238.085938 -17.320312 L 335.964844 337.683594 L 137.132812 392.503906 Z M 39.257812 37.5 " clip-rule="nonzero"/></clipPath><clipPath id="f9bed41694"><path d="M 39.257812 37.5 L 238.085938 -17.320312 L 335.964844 337.683594 L 137.132812 392.503906 Z M 39.257812 37.5 " clip-rule="nonzero"/></clipPath><clipPath id="25ea02b017"><path d="M 120 161 L 164 161 L 164 231 L 120 231 Z M 120 161 " clip-rule="nonzero"/></clipPath><clipPath id="8231f82c3e"><path d="M 39.257812 37.5 L 238.085938 -17.320312 L 335.964844 337.683594 L 137.132812 392.503906 Z M 39.257812 37.5 " clip-rule="nonzero"/></clipPath><clipPath id="9a8e9982da"><path d="M 39.257812 37.5 L 238.085938 -17.320312 L 335.964844 337.683594 L 137.132812 392.503906 Z M 39.257812 37.5 " clip-rule="nonzero"/></clipPath><clipPath id="9808d50daa"><path d="M 39.257812 37.5 L 238.085938 -17.320312 L 335.964844 337.683594 L 137.132812 392.503906 Z M 39.257812 37.5 " clip-rule="nonzero"/></clipPath><clipPath id="03949c3959"><path d="M 119 213 L 151 213 L 151 236 L 119 236 Z M 119 213 " clip-rule="nonzero"/></clipPath><clipPath id="b6b3b75b21"><path d="M 39.257812 37.5 L 238.085938 -17.320312 L 335.964844 337.683594 L 137.132812 392.503906 Z M 39.257812 37.5 " clip-rule="nonzero"/></clipPath><clipPath id="018672a174"><path d="M 39.257812 37.5 L 238.085938 -17.320312 L 335.964844 337.683594 L 137.132812 392.503906 Z M 39.257812 37.5 " clip-rule="nonzero"/></clipPath><clipPath id="fb624544cc"><path d="M 39.257812 37.5 L 238.085938 -17.320312 L 335.964844 337.683594 L 137.132812 392.503906 Z M 39.257812 37.5 " clip-rule="nonzero"/></clipPath><clipPath id="7a58b618be"><path d="M 101 25 L 123 25 L 123 39 L 101 39 Z M 101 25 " clip-rule="nonzero"/></clipPath><clipPath id="28a27a9049"><path d="M 39.257812 37.5 L 238.085938 -17.320312 L 335.964844 337.683594 L 137.132812 392.503906 Z M 39.257812 37.5 " clip-rule="nonzero"/></clipPath><clipPath id="8ad3fac154"><path d="M 39.257812 37.5 L 238.085938 -17.320312 L 335.964844 337.683594 L 137.132812 392.503906 Z M 39.257812 37.5 " clip-rule="nonzero"/></clipPath><clipPath id="e0022bf348"><path d="M 39.257812 37.5 L 238.085938 -17.320312 L 335.964844 337.683594 L 137.132812 392.503906 Z M 39.257812 37.5 " clip-rule="nonzero"/></clipPath><clipPath id="737e1d89c7"><path d="M 89 72 L 112 72 L 112 85 L 89 85 Z M 89 72 " clip-rule="nonzero"/></clipPath><clipPath id="bd45c1f183"><path d="M 39.257812 37.5 L 238.085938 -17.320312 L 335.964844 337.683594 L 137.132812 392.503906 Z M 39.257812 37.5 " clip-rule="nonzero"/></clipPath><clipPath id="eb52d5711f"><path d="M 39.257812 37.5 L 238.085938 -17.320312 L 335.964844 337.683594 L 137.132812 392.503906 Z M 39.257812 37.5 " clip-rule="nonzero"/></clipPath><clipPath id="f0014b6dfe"><path d="M 39.257812 37.5 L 238.085938 -17.320312 L 335.964844 337.683594 L 137.132812 392.503906 Z M 39.257812 37.5 " clip-rule="nonzero"/></clipPath><clipPath id="81f9e84b74"><path d="M 74 111 L 102 111 L 102 127 L 74 127 Z M 74 111 " clip-rule="nonzero"/></clipPath><clipPath id="f101e968b8"><path d="M 39.257812 37.5 L 238.085938 -17.320312 L 335.964844 337.683594 L 137.132812 392.503906 Z M 39.257812 37.5 " clip-rule="nonzero"/></clipPath><clipPath id="0935562246"><path d="M 39.257812 37.5 L 238.085938 -17.320312 L 335.964844 337.683594 L 137.132812 392.503906 Z M 39.257812 37.5 " clip-rule="nonzero"/></clipPath><clipPath id="4656de7edb"><path d="M 39.257812 37.5 L 238.085938 -17.320312 L 335.964844 337.683594 L 137.132812 392.503906 Z M 39.257812 37.5 " clip-rule="nonzero"/></clipPath><clipPath id="023770ede6"><path d="M 199 64 L 228 64 L 228 78 L 199 78 Z M 199 64 " clip-rule="nonzero"/></clipPath><clipPath id="60b67721f7"><path d="M 39.257812 37.5 L 238.085938 -17.320312 L 335.964844 337.683594 L 137.132812 392.503906 Z M 39.257812 37.5 " clip-rule="nonzero"/></clipPath><clipPath id="bd11bed4b3"><path d="M 39.257812 37.5 L 238.085938 -17.320312 L 335.964844 337.683594 L 137.132812 392.503906 Z M 39.257812 37.5 " clip-rule="nonzero"/></clipPath><clipPath id="a3121b0818"><path d="M 39.257812 37.5 L 238.085938 -17.320312 L 335.964844 337.683594 L 137.132812 392.503906 Z M 39.257812 37.5 " clip-rule="nonzero"/></clipPath><clipPath id="c49d8176f4"><path d="M 167 30 L 189 30 L 189 46 L 167 46 Z M 167 30 " clip-rule="nonzero"/></clipPath><clipPath id="cb34060959"><path d="M 39.257812 37.5 L 238.085938 -17.320312 L 335.964844 337.683594 L 137.132812 392.503906 Z M 39.257812 37.5 " clip-rule="nonzero"/></clipPath><clipPath id="3b14a84d65"><path d="M 39.257812 37.5 L 238.085938 -17.320312 L 335.964844 337.683594 L 137.132812 392.503906 Z M 39.257812 37.5 " clip-rule="nonzero"/></clipPath><clipPath id="e073a96255"><path d="M 39.257812 37.5 L 238.085938 -17.320312 L 335.964844 337.683594 L 137.132812 392.503906 Z M 39.257812 37.5 " clip-rule="nonzero"/></clipPath></defs><g clip-path="url(#2297aab3bb)"><g clip-path="url(#dfee68f494)"><g clip-path="url(#411ebe334b)"><g clip-path="url(#546c0dc8e7)"><path fill="#8fc924" d="M 163.300781 45.785156 C 160.167969 37.902344 154.710938 30.960938 147.789062 26.054688 C 141.601562 21.664062 134.289062 18.914062 126.765625 17.90625 C 119.242188 16.902344 111.511719 17.621094 104.234375 19.785156 C 102.71875 20.242188 101.203125 20.765625 99.867188 21.617188 C 98.535156 22.476562 97.386719 23.707031 96.902344 25.214844 C 96.566406 26.257812 96.5625 27.398438 96.84375 28.460938 C 97.125 29.519531 97.691406 30.492188 98.433594 31.296875 C 99.507812 32.457031 100.925781 33.242188 102.375 33.871094 C 103.824219 34.496094 105.339844 34.984375 106.765625 35.664062 C 110.195312 37.285156 113.058594 39.953125 115.289062 43.019531 C 117.527344 46.089844 119.164062 49.550781 120.554688 53.082031 C 122.757812 58.695312 124.371094 64.546875 125.355469 70.5 L 145.050781 75.621094 L 160.960938 59.488281 L 163.3125 45.785156 L 163.300781 45.785156 " fill-opacity="1" fill-rule="nonzero"/></g></g></g></g><g clip-path="url(#a9a4637155)"><g clip-path="url(#eb9ac4d79b)"><g clip-path="url(#5cba5fc386)"><g clip-path="url(#b4f398296d)"><path fill="#7dad2a" d="M 138.867188 21.210938 C 140.785156 23.042969 142.558594 25.039062 144.125 27.179688 C 146.429688 30.324219 148.378906 33.929688 148.550781 37.820312 C 148.667969 40.570312 147.886719 43.300781 146.625 45.742188 C 145.359375 48.1875 143.625 50.363281 141.765625 52.394531 C 139.796875 54.539062 137.625 56.578125 135.007812 57.855469 C 132.371094 59.148438 129.347656 59.609375 126.445312 59.167969 C 124.996094 58.949219 123.582031 58.503906 122.265625 57.863281 C 123.613281 61.984375 124.65625 66.210938 125.355469 70.492188 L 145.050781 75.621094 L 160.960938 59.488281 L 163.316406 45.785156 C 160.179688 37.902344 154.726562 30.960938 147.800781 26.054688 C 145.035156 24.089844 142.011719 22.503906 138.875 21.207031 L 138.867188 21.210938 " fill-opacity="1" fill-rule="nonzero"/></g></g></g></g><g clip-path="url(#324f8ce7d1)"><g clip-path="url(#4e685ace0d)"><g clip-path="url(#35768a5df7)"><g clip-path="url(#dbc6df98e3)"><path fill="#8fc924" d="M 143.671875 76.695312 C 143.433594 68.308594 145.746094 59.863281 150.21875 52.761719 C 155.320312 44.675781 163.019531 38.519531 171.230469 33.609375 C 175.917969 30.808594 180.8125 28.363281 185.859375 26.292969 C 187.089844 25.789062 188.332031 25.304688 189.636719 25.085938 C 190.945312 24.871094 192.328125 24.929688 193.527344 25.488281 C 194.542969 25.960938 195.382812 26.769531 195.964844 27.722656 C 196.542969 28.679688 196.867188 29.777344 196.980469 30.890625 C 197.175781 32.710938 196.828125 34.546875 196.285156 36.296875 C 195.742188 38.042969 195.011719 39.726562 194.414062 41.457031 C 192.175781 47.953125 191.890625 55.015625 192.804688 61.832031 C 193.527344 67.222656 194.988281 72.511719 197.128906 77.507812 L 176.132812 98.804688 L 160.027344 98.921875 L 143.664062 76.695312 L 143.671875 76.695312 " fill-opacity="1" fill-rule="nonzero"/></g></g></g></g><g clip-path="url(#0e2b4f277f)"><g clip-path="url(#815263a2f2)"><g clip-path="url(#9727bc94ef)"><g clip-path="url(#f077871820)"><path fill="#7dad2a" d="M 195.871094 27.609375 C 195.820312 28.3125 195.699219 29.007812 195.429688 29.65625 C 194.789062 31.226562 193.582031 32.476562 192.570312 33.835938 C 190.242188 36.953125 188.945312 40.714844 187.863281 44.453125 C 186.277344 49.960938 185.074219 55.566406 183.734375 61.140625 C 182.699219 65.449219 181.503906 69.882812 178.699219 73.308594 C 177.9375 74.242188 177.050781 75.101562 175.992188 75.6875 C 174.9375 76.265625 173.695312 76.570312 172.503906 76.363281 C 171.527344 76.203125 170.632812 75.714844 169.84375 75.113281 C 169.0625 74.511719 168.375 73.796875 167.675781 73.101562 C 161.765625 67.246094 154.5 62.824219 146.640625 60.105469 C 144.601562 65.386719 143.507812 71.035156 143.671875 76.695312 L 160.039062 98.914062 L 176.144531 98.796875 L 197.136719 77.5 C 194.996094 72.5 193.539062 67.214844 192.8125 61.828125 C 191.902344 55.011719 192.183594 47.949219 194.421875 41.445312 C 195.015625 39.71875 195.746094 38.039062 196.285156 36.289062 C 196.832031 34.542969 197.179688 32.703125 196.984375 30.886719 C 196.878906 29.765625 196.5625 28.671875 195.96875 27.71875 C 195.957031 27.667969 195.894531 27.648438 195.863281 27.601562 L 195.871094 27.609375 " fill-opacity="1" fill-rule="nonzero"/></g></g></g></g><g clip-path="url(#d088361e6f)"><g clip-path="url(#a0d6229e9f)"><g clip-path="url(#99440327c9)"><g clip-path="url(#25b62d7b58)"><path fill="#8fc924" d="M 176.773438 99.695312 C 171.488281 90.308594 164.109375 82.109375 155.328125 75.867188 C 142.265625 66.578125 126.097656 61.746094 110.078125 62.324219 C 101.277344 62.632812 92.398438 64.601562 84.839844 69.117188 C 83.832031 69.71875 82.828125 70.382812 82.097656 71.308594 C 81.734375 71.769531 81.445312 72.292969 81.28125 72.855469 C 81.121094 73.421875 81.089844 74.03125 81.238281 74.601562 C 81.363281 75.078125 81.601562 75.519531 81.917969 75.898438 C 82.230469 76.277344 82.613281 76.597656 83.027344 76.863281 C 83.859375 77.390625 84.804688 77.703125 85.742188 78.003906 C 89.078125 79.09375 92.433594 80.167969 95.648438 81.582031 C 100.277344 83.613281 104.609375 86.34375 108.34375 89.746094 C 114.699219 95.535156 119.253906 103.28125 121.207031 111.65625 L 142.839844 123.941406 L 159.527344 128.28125 L 174.238281 128.171875 L 176.773438 99.695312 " fill-opacity="1" fill-rule="nonzero"/></g></g></g></g><g clip-path="url(#c78e43c668)"><g clip-path="url(#c8f614c33f)"><g clip-path="url(#62b02ebcf7)"><g clip-path="url(#ee13ca5000)"><path fill="#7dad2a" d="M 115.238281 97.875 C 118.007812 102.082031 120.066406 106.753906 121.210938 111.660156 L 142.84375 123.9375 L 159.53125 128.277344 L 174.238281 128.171875 L 176.773438 99.691406 C 174.683594 95.980469 172.183594 92.527344 169.480469 89.238281 C 169.0625 90.085938 168.59375 90.90625 168.214844 91.773438 C 166.601562 95.511719 165.386719 99.480469 163.019531 102.792969 C 162.136719 104.027344 161.089844 105.15625 159.855469 106.03125 C 158.617188 106.90625 157.179688 107.511719 155.671875 107.664062 C 153.617188 107.867188 151.582031 107.214844 149.652344 106.480469 C 144.8125 104.636719 140.191406 102.238281 135.289062 100.554688 C 128.871094 98.351562 122.019531 97.496094 115.238281 97.875 " fill-opacity="1" fill-rule="nonzero"/></g></g></g></g><g clip-path="url(#b7b98777ed)"><g clip-path="url(#c483bdfaab)"><g clip-path="url(#d7ddc56ff7)"><g clip-path="url(#2c17cc2a88)"><path fill="#8fc924" d="M 163.628906 131.820312 C 163.867188 117.375 168.425781 103.019531 176.566406 91.078125 C 182.5625 82.285156 190.492188 74.777344 199.742188 69.511719 C 205.5 66.226562 211.796875 63.808594 218.347656 62.832031 C 222.355469 62.230469 226.464844 62.179688 230.453125 62.898438 C 232.363281 63.246094 234.328125 63.816406 235.726562 65.164062 C 236.570312 65.980469 237.164062 67.0625 237.378906 68.222656 C 237.589844 69.382812 237.425781 70.609375 236.894531 71.65625 C 236.367188 72.703125 235.5 73.542969 234.5625 74.246094 C 233.625 74.953125 232.605469 75.539062 231.640625 76.199219 C 226.023438 80.078125 222.648438 86.460938 220.445312 92.917969 C 217.394531 101.886719 216.210938 111.390625 215.757812 120.855469 C 215.421875 127.835938 215.472656 134.84375 215.90625 141.824219 L 167.417969 142.171875 L 163.628906 131.820312 " fill-opacity="1" fill-rule="nonzero"/></g></g></g></g><g clip-path="url(#c53ddea793)"><g clip-path="url(#8fdacad9f2)"><g clip-path="url(#0fb141519e)"><g clip-path="url(#bc78259f30)"><path fill="#8fc924" d="M 173.578125 139.863281 C 167.734375 128.222656 158.039062 118.5625 146.382812 112.75 C 132.277344 105.71875 115.707031 104.433594 100.242188 107.507812 C 90.742188 109.394531 81.425781 112.945312 73.824219 118.953125 C 71.957031 120.433594 70.183594 122.066406 68.777344 123.988281 C 67.375 125.914062 66.339844 128.148438 66.054688 130.515625 C 65.859375 132.160156 66.050781 133.914062 66.941406 135.308594 C 67.550781 136.261719 68.457031 137 69.46875 137.492188 C 70.480469 137.980469 71.601562 138.238281 72.726562 138.328125 C 74.972656 138.511719 77.214844 138.0625 79.453125 137.777344 C 86.917969 136.816406 94.617188 137.730469 101.648438 140.417969 C 108.714844 143.117188 115.007812 147.53125 120.746094 152.457031 C 124.8125 155.953125 128.640625 159.726562 132.195312 163.742188 L 173.578125 139.863281 " fill-opacity="1" fill-rule="nonzero"/></g></g></g></g><g clip-path="url(#33c721c073)"><g clip-path="url(#1acfb768e8)"><g clip-path="url(#ba2edcb761)"><g clip-path="url(#230346e179)"><path fill="#7dad2a" d="M 229.570312 77.835938 C 227.289062 79.183594 225.132812 80.738281 223.136719 82.480469 C 217.722656 87.226562 213.542969 93.316406 210.773438 99.960938 C 208.605469 105.148438 207.210938 110.796875 203.746094 115.226562 C 201.402344 118.222656 198.195312 120.503906 194.660156 121.921875 C 191.195312 123.316406 187.4375 123.859375 183.710938 124.042969 C 180.515625 124.179688 177.195312 124 174.324219 122.585938 C 172.105469 121.496094 170.269531 119.710938 168.917969 117.636719 C 167.847656 115.996094 167.097656 114.160156 166.652344 112.253906 C 164.804688 118.613281 163.742188 125.195312 163.632812 131.816406 L 167.417969 142.171875 L 215.910156 141.820312 C 215.476562 134.84375 215.421875 127.835938 215.753906 120.851562 C 216.210938 111.390625 217.394531 101.886719 220.445312 92.917969 C 222.363281 87.296875 225.175781 81.738281 229.570312 77.835938 " fill-opacity="1" fill-rule="nonzero"/></g></g></g></g><g clip-path="url(#9b780f1368)"><g clip-path="url(#88a7306fac)"><g clip-path="url(#92fb379233)"><g clip-path="url(#30d9b5d0ac)"><path fill="#7dad2a" d="M 91.773438 136.726562 C 90.867188 136.976562 89.984375 137.3125 89.09375 137.628906 C 93.382812 137.988281 97.625 138.875 101.644531 140.410156 C 108.710938 143.109375 115.011719 147.523438 120.746094 152.449219 C 124.816406 155.945312 128.640625 159.71875 132.191406 163.738281 L 173.574219 139.863281 C 169.699219 132.144531 164.105469 125.324219 157.394531 119.894531 C 157.921875 122.722656 157.675781 125.707031 156.570312 128.371094 C 155.503906 130.929688 153.734375 133.152344 151.683594 135.023438 C 149.628906 136.890625 147.289062 138.417969 144.90625 139.835938 C 142.363281 141.351562 139.730469 142.757812 136.921875 143.671875 C 134.101562 144.570312 131.074219 144.980469 128.164062 144.453125 C 123.773438 143.65625 120.058594 140.871094 116.046875 138.902344 C 108.589844 135.242188 99.78125 134.535156 91.773438 136.722656 L 91.773438 136.726562 " fill-opacity="1" fill-rule="nonzero"/></g></g></g></g><g clip-path="url(#2390396817)"><g clip-path="url(#0ea3d7b4b2)"><g clip-path="url(#6f3c4b2ba7)"><g clip-path="url(#eba3946644)"><path fill="#f3c90d" d="M 169.277344 137.699219 C 182.664062 133.730469 196.96875 132.257812 210.664062 134.960938 C 230.871094 138.953125 248.367188 151.6875 262.722656 166.457031 C 287.042969 191.476562 304.480469 224.078125 307.40625 258.851562 C 308.65625 273.757812 307.238281 288.953125 302.597656 303.171875 C 297.957031 317.398438 290.046875 330.625 279.234375 340.964844 C 265.863281 353.757812 248.328125 361.851562 230.101562 365.046875 C 212.246094 368.179688 193.5625 366.703125 176.515625 360.539062 C 159.464844 354.371094 144.113281 343.496094 132.867188 329.277344 C 115.042969 306.730469 108.332031 277.289062 106.292969 248.621094 C 105.238281 233.847656 105.296875 218.894531 108.1875 204.367188 C 111.070312 189.84375 116.902344 175.707031 126.441406 164.378906 C 137.433594 151.328125 152.921875 142.546875 169.277344 137.699219 " fill-opacity="1" fill-rule="nonzero"/></g></g></g></g><g clip-path="url(#2b3b315c62)"><g clip-path="url(#d564a4efff)"><g clip-path="url(#446c4bd835)"><g clip-path="url(#b2711c4fde)"><path fill="#f6e051" d="M 119.65625 212.671875 C 120.132812 202.703125 123.191406 192.945312 127.886719 184.140625 C 132.203125 176.039062 138.101562 168.519531 146.027344 163.890625 C 148.699219 162.324219 151.625 161.097656 154.703125 160.757812 C 157.785156 160.421875 161.039062 161.039062 163.539062 162.875 C 165.492188 164.308594 166.898438 166.425781 167.667969 168.726562 C 168.449219 171.023438 168.613281 173.5 168.382812 175.914062 C 167.914062 180.746094 165.90625 185.265625 164.183594 189.804688 C 160.058594 200.679688 157.472656 212.070312 153.890625 223.140625 C 152.9375 226.070312 151.914062 228.996094 150.464844 231.714844 C 149.011719 234.429688 147.113281 236.957031 144.65625 238.816406 C 142.195312 240.671875 139.183594 241.824219 136.105469 241.953125 C 133.027344 242.085938 129.894531 241.183594 127.429688 239.332031 C 125.351562 237.769531 123.792969 235.59375 122.703125 233.234375 C 121.617188 230.875 120.976562 228.332031 120.519531 225.773438 C 119.742188 221.457031 119.453125 217.050781 119.660156 212.667969 L 119.65625 212.671875 " fill-opacity="1" fill-rule="nonzero"/></g></g></g></g><g clip-path="url(#8de59c6acd)"><g clip-path="url(#09b4f61850)"><g clip-path="url(#6a32cf2903)"><g clip-path="url(#01960796b8)"><path fill="#f4af0d" d="M 209.21875 134.730469 C 218.242188 143.292969 225.773438 153.421875 231.226562 164.605469 C 239.425781 181.425781 242.980469 200.488281 241.371094 219.132812 C 239.808594 237.292969 233.371094 255.011719 222.964844 269.976562 C 212.554688 284.941406 198.207031 297.132812 181.785156 305.046875 C 163.773438 313.730469 143.308594 317.058594 123.4375 314.914062 C 126.167969 319.933594 129.285156 324.753906 132.863281 329.28125 C 144.109375 343.5 159.46875 354.367188 176.519531 360.535156 C 193.566406 366.699219 212.242188 368.183594 230.101562 365.050781 C 248.328125 361.855469 265.859375 353.761719 279.230469 340.96875 C 290.042969 330.621094 297.953125 317.390625 302.59375 303.171875 C 307.234375 288.949219 308.65625 273.753906 307.402344 258.847656 C 304.476562 224.074219 287.042969 191.480469 262.71875 166.457031 C 248.363281 151.691406 230.867188 138.949219 210.65625 134.960938 C 210.179688 134.867188 209.699219 134.816406 209.21875 134.730469 " fill-opacity="1" fill-rule="nonzero"/></g></g></g></g><g clip-path="url(#fbd56bc81f)"><g clip-path="url(#c06ea151f0)"><g clip-path="url(#a880e26c44)"><g clip-path="url(#d5a92af489)"><path fill="#f8e774" d="M 171.59375 137.070312 C 160.769531 159.6875 148.582031 181.65625 134.953125 202.707031 C 125.898438 216.6875 116.246094 230.265625 106.035156 243.417969 C 106.128906 245.152344 106.167969 246.886719 106.292969 248.617188 C 106.335938 249.179688 106.40625 249.742188 106.449219 250.304688 C 117.925781 235.785156 128.769531 220.769531 138.832031 205.230469 C 153.25 182.964844 166.085938 159.664062 177.390625 135.664062 C 175.441406 136.074219 173.515625 136.546875 171.601562 137.074219 L 171.59375 137.070312 " fill-opacity="1" fill-rule="nonzero"/></g></g></g></g><g clip-path="url(#5c13e0eb55)"><g clip-path="url(#93f24c867c)"><g clip-path="url(#17014e441b)"><g clip-path="url(#6529c86964)"><path fill="#f8e774" d="M 208.339844 134.585938 C 203.097656 154.332031 196.148438 173.621094 187.421875 192.085938 C 169.574219 229.835938 144.570312 264.15625 114.210938 292.820312 C 114.703125 294.429688 115.289062 296.007812 115.847656 297.589844 C 147.320312 268.25 173.21875 232.953125 191.609375 194.046875 C 200.496094 175.253906 207.664062 155.652344 212.980469 135.554688 C 212.203125 135.371094 211.445312 135.117188 210.65625 134.960938 C 209.886719 134.808594 209.109375 134.714844 208.335938 134.589844 L 208.339844 134.585938 " fill-opacity="1" fill-rule="nonzero"/></g></g></g></g><g clip-path="url(#26ab6f594f)"><g clip-path="url(#2792b08bb1)"><g clip-path="url(#75882db39f)"><g clip-path="url(#8f29556ac7)"><path fill="#f8e774" d="M 246.90625 152.34375 C 238.835938 177.460938 228.632812 201.894531 216.445312 225.296875 C 195.605469 265.320312 168.914062 302.277344 137.519531 334.691406 C 138.566406 335.824219 139.660156 336.910156 140.761719 337.988281 C 172.503906 305.234375 199.503906 267.867188 220.570312 227.414062 C 232.617188 204.289062 242.695312 180.167969 250.753906 155.375 C 249.492188 154.332031 248.199219 153.335938 246.90625 152.34375 " fill-opacity="1" fill-rule="nonzero"/></g></g></g></g><g clip-path="url(#f7786b263a)"><g clip-path="url(#d29a3fb632)"><g clip-path="url(#b57397275b)"><g clip-path="url(#c2427a6682)"><path fill="#f5dc3f" d="M 279.4375 186.417969 C 267.679688 211.128906 254.71875 235.28125 240.570312 258.703125 C 219.578125 293.464844 196.019531 326.675781 170.160156 357.988281 C 171.628906 358.640625 173.132812 359.203125 174.636719 359.78125 C 200.277344 328.628906 223.679688 295.648438 244.539062 261.105469 C 258.308594 238.3125 270.953125 214.832031 282.476562 190.8125 C 281.484375 189.332031 280.476562 187.867188 279.4375 186.417969 " fill-opacity="1" fill-rule="nonzero"/></g></g></g></g><g clip-path="url(#fedee8f14a)"><g clip-path="url(#f68af5336d)"><g clip-path="url(#01b41a7153)"><g clip-path="url(#325629cd7f)"><path fill="#f5dc3f" d="M 300.621094 226.992188 C 290.457031 247.496094 279.457031 267.585938 267.632812 287.171875 C 251.023438 314.671875 232.78125 341.183594 213.101562 366.574219 C 215.109375 366.546875 217.121094 366.476562 219.128906 366.335938 C 238.019531 341.75 255.570312 316.136719 271.601562 289.589844 C 282.671875 271.257812 293.003906 252.472656 302.632812 233.332031 C 301.992188 231.210938 301.339844 229.09375 300.621094 226.992188 " fill-opacity="1" fill-rule="nonzero"/></g></g></g></g><g clip-path="url(#39242ee2c2)"><g clip-path="url(#494aabdaaf)"><g clip-path="url(#d9e2fda06e)"><g clip-path="url(#ead3f1174d)"><path fill="#f8e774" d="M 159.714844 141.078125 C 157.996094 141.769531 156.304688 142.523438 154.625 143.3125 C 175.203125 156.738281 196.371094 169.261719 218.046875 180.808594 C 243.703125 194.476562 270.085938 206.757812 297.03125 217.660156 C 296.15625 215.601562 295.242188 213.5625 294.28125 211.539062 C 269.046875 201.140625 244.308594 189.53125 220.21875 176.699219 C 199.558594 165.691406 179.371094 153.792969 159.714844 141.078125 " fill-opacity="1" fill-rule="nonzero"/></g></g></g></g><g clip-path="url(#91af3d93b5)"><g clip-path="url(#2a37375db7)"><g clip-path="url(#8d90625f70)"><g clip-path="url(#cbc36961ae)"><path fill="#f8e774" d="M 123.605469 168.015625 C 122.683594 169.261719 121.820312 170.550781 120.976562 171.851562 C 150.515625 190.652344 181.253906 207.613281 212.917969 222.542969 C 243.628906 237.023438 275.238281 249.574219 307.480469 260.191406 C 307.449219 259.746094 307.4375 259.292969 307.402344 258.847656 C 307.300781 257.617188 307.140625 256.398438 307 255.175781 C 275.601562 244.734375 244.816406 232.453125 214.890625 218.339844 C 183.441406 203.511719 152.941406 186.671875 123.605469 168.015625 " fill-opacity="1" fill-rule="nonzero"/></g></g></g></g><g clip-path="url(#94a18b805c)"><g clip-path="url(#2a570174fb)"><g clip-path="url(#cd24f7d82d)"><g clip-path="url(#9fccf154ca)"><path fill="#f8e774" d="M 107.804688 206.519531 C 107.511719 208.183594 107.246094 209.851562 107.015625 211.523438 C 135.707031 229.625 165.527344 245.984375 196.207031 260.449219 C 230.773438 276.75 266.46875 290.601562 302.945312 301.996094 C 303.402344 300.53125 303.855469 299.070312 304.246094 297.585938 C 268 286.246094 232.523438 272.4375 198.171875 256.238281 C 167.054688 241.570312 136.859375 224.949219 107.804688 206.519531 " fill-opacity="1" fill-rule="nonzero"/></g></g></g></g><g clip-path="url(#c9c57c6a71)"><g clip-path="url(#52272f52ee)"><g clip-path="url(#eb1480ffbc)"><g clip-path="url(#fedd0ba5d0)"><path fill="#f8e774" d="M 106.878906 254.925781 C 107.0625 256.84375 107.238281 258.757812 107.472656 260.675781 C 130.253906 274.210938 153.675781 286.6875 177.636719 297.984375 C 211.300781 313.859375 246.027344 327.410156 281.511719 338.632812 C 282.683594 337.417969 283.824219 336.171875 284.921875 334.886719 C 248.9375 323.589844 213.71875 309.867188 179.605469 293.78125 C 154.738281 282.054688 130.457031 269.066406 106.878906 254.925781 " fill-opacity="1" fill-rule="nonzero"/></g></g></g></g><g clip-path="url(#b938c49f46)"><g clip-path="url(#357eb96827)"><g clip-path="url(#364b0a1a44)"><g clip-path="url(#c5b0ec8afc)"><path fill="#f8e774" d="M 118.738281 305.21875 C 119.777344 307.644531 120.902344 310.027344 122.101562 312.367188 C 137.457031 320.835938 153.070312 328.84375 168.925781 336.316406 C 190.523438 346.503906 212.558594 355.75 234.953125 364.03125 C 237.597656 363.429688 240.234375 362.757812 242.828125 361.949219 C 218.40625 353.121094 194.382812 343.199219 170.894531 332.121094 C 153.203125 323.777344 135.800781 314.800781 118.742188 305.222656 L 118.738281 305.21875 " fill-opacity="1" fill-rule="nonzero"/></g></g></g></g><g clip-path="url(#27d17ae759)"><g clip-path="url(#870df055ea)"><g clip-path="url(#5a60edbd85)"><g clip-path="url(#bc5f5ff732)"><path fill="#f5dc3f" d="M 238.902344 186.335938 C 239.355469 188.246094 239.773438 190.160156 240.117188 192.09375 C 258.761719 201.3125 277.738281 209.851562 297.015625 217.652344 C 296.988281 217.554688 296.910156 217.453125 296.878906 217.34375 C 296.058594 215.414062 295.199219 213.492188 294.300781 211.589844 C 294.296875 211.59375 294.289062 211.539062 294.289062 211.539062 C 275.53125 203.8125 257.050781 195.40625 238.90625 186.339844 L 238.902344 186.335938 " fill-opacity="1" fill-rule="nonzero"/></g></g></g></g><g clip-path="url(#f8e80f531e)"><g clip-path="url(#02a81fe72f)"><g clip-path="url(#54f0e2c827)"><g clip-path="url(#22d71b269b)"><path fill="#f5dc3f" d="M 156.902344 313.3125 C 150.648438 320.621094 144.210938 327.78125 137.519531 334.691406 C 138.566406 335.824219 139.660156 336.910156 140.761719 337.988281 C 149.03125 329.457031 156.957031 320.597656 164.5625 311.460938 C 162.027344 312.160156 159.476562 312.792969 156.902344 313.3125 Z M 246.90625 152.34375 C 243.945312 161.546875 240.609375 170.617188 237.089844 179.617188 C 237.84375 182.101562 238.515625 184.605469 239.085938 187.136719 C 243.328125 176.683594 247.269531 166.101562 250.757812 155.375 C 249.496094 154.332031 248.199219 153.335938 246.90625 152.34375 " fill-opacity="1" fill-rule="nonzero"/></g></g></g></g><g clip-path="url(#0453e62acb)"><g clip-path="url(#f211ee28f9)"><g clip-path="url(#39b0fbb394)"><g clip-path="url(#9ebdb548d9)"><path fill="#f5dc3f" d="M 209.21875 134.730469 C 210.289062 135.75 211.269531 136.863281 212.296875 137.925781 C 212.515625 137.128906 212.773438 136.347656 212.980469 135.554688 C 212.203125 135.371094 211.445312 135.117188 210.65625 134.960938 C 210.179688 134.867188 209.699219 134.816406 209.21875 134.730469 " fill-opacity="1" fill-rule="nonzero"/></g></g></g></g><g clip-path="url(#2eca526cd1)"><g clip-path="url(#f7773df292)"><g clip-path="url(#d26d5be579)"><g clip-path="url(#6628b0daff)"><path fill="#f5dc3f" d="M 239.871094 229.570312 C 239.574219 231.121094 239.265625 232.664062 238.898438 234.203125 C 261.371094 243.855469 284.253906 252.542969 307.480469 260.191406 C 307.449219 259.746094 307.4375 259.292969 307.402344 258.847656 C 307.300781 257.617188 307.140625 256.398438 307 255.175781 C 284.269531 247.617188 261.867188 239.058594 239.871094 229.570312 " fill-opacity="1" fill-rule="nonzero"/></g></g></g></g><g clip-path="url(#c95a292f30)"><g clip-path="url(#e5f651b3a2)"><g clip-path="url(#88bf5de4da)"><g clip-path="url(#9fcc1b5633)"><path fill="#f5dc3f" d="M 224.253906 267.984375 C 223.8125 268.644531 223.414062 269.332031 222.964844 269.976562 C 222.515625 270.625 222.015625 271.238281 221.550781 271.875 C 248.132812 283.324219 275.3125 293.367188 302.945312 301.996094 C 303.378906 300.601562 303.808594 299.203125 304.179688 297.792969 C 304.214844 297.707031 304.214844 297.652344 304.230469 297.582031 C 277.089844 289.085938 250.378906 279.210938 224.246094 267.984375 L 224.253906 267.984375 " fill-opacity="1" fill-rule="nonzero"/></g></g></g></g><g clip-path="url(#fa274c35a6)"><g clip-path="url(#7511c16335)"><g clip-path="url(#1bf12ff42f)"><g clip-path="url(#e1035def60)"><path fill="#f5dc3f" d="M 191.871094 299.433594 C 190.277344 300.425781 188.671875 301.40625 187.023438 302.316406 C 217.75 316.328125 249.3125 328.449219 281.511719 338.636719 C 282.671875 337.4375 283.792969 336.199219 284.878906 334.9375 L 284.917969 334.871094 C 253.226562 324.921875 222.136719 313.085938 191.867188 299.414062 L 191.871094 299.433594 " fill-opacity="1" fill-rule="nonzero"/></g></g></g></g><g clip-path="url(#b790cd3f57)"><g clip-path="url(#d68f5c670c)"><g clip-path="url(#017cb4fd6c)"><g clip-path="url(#b15d32d834)"><path fill="#f5dc3f" d="M 127.4375 315.203125 C 141.082031 322.601562 154.890625 329.699219 168.925781 336.316406 C 190.523438 346.503906 212.558594 355.75 234.953125 364.03125 C 237.597656 363.429688 240.234375 362.757812 242.828125 361.949219 C 218.40625 353.121094 194.382812 343.199219 170.894531 332.121094 C 159.695312 326.839844 148.628906 321.277344 137.671875 315.496094 C 134.261719 315.574219 130.84375 315.449219 127.4375 315.210938 L 127.4375 315.203125 " fill-opacity="1" fill-rule="nonzero"/></g></g></g></g><g clip-path="url(#857c2d2515)"><g clip-path="url(#5e817da8a1)"><g clip-path="url(#24bde1d9a2)"><g clip-path="url(#f9bed41694)"><path fill="#fdf8ca" d="M 134.222656 174.535156 C 133.257812 175.757812 132.265625 176.957031 131.402344 178.253906 C 141.464844 184.453125 151.636719 190.484375 161.957031 196.25 C 162.445312 194.753906 162.96875 193.265625 163.503906 191.78125 C 153.621094 186.242188 143.867188 180.472656 134.222656 174.535156 " fill-opacity="1" fill-rule="nonzero"/></g></g></g></g><g clip-path="url(#25ea02b017)"><g clip-path="url(#8231f82c3e)"><g clip-path="url(#9a8e9982da)"><g clip-path="url(#9808d50daa)"><path fill="#fdf8ca" d="M 159.402344 161.023438 C 151.8125 175.238281 143.710938 189.179688 134.949219 202.703125 C 130.238281 209.984375 125.351562 217.144531 120.320312 224.203125 C 120.394531 224.730469 120.414062 225.257812 120.511719 225.78125 C 120.785156 227.296875 121.160156 228.789062 121.621094 230.257812 C 127.566406 222.0625 133.316406 213.730469 138.824219 205.230469 C 147.703125 191.519531 155.914062 177.375 163.605469 162.953125 C 163.59375 162.902344 163.539062 162.898438 163.535156 162.882812 C 162.300781 161.980469 160.886719 161.371094 159.402344 161.027344 L 159.402344 161.023438 " fill-opacity="1" fill-rule="nonzero"/></g></g></g></g><g clip-path="url(#03949c3959)"><g clip-path="url(#b6b3b75b21)"><g clip-path="url(#018672a174)"><g clip-path="url(#fb624544cc)"><path fill="#fdf8ca" d="M 119.667969 213.785156 C 119.617188 215.613281 119.601562 217.445312 119.71875 219.265625 C 129.007812 224.898438 138.378906 230.386719 147.878906 235.648438 C 148.855469 234.449219 149.695312 233.132812 150.421875 231.769531 C 140.035156 226.015625 129.804688 219.980469 119.667969 213.785156 " fill-opacity="1" fill-rule="nonzero"/></g></g></g></g><g clip-path="url(#7a58b618be)"><g clip-path="url(#28a27a9049)"><g clip-path="url(#8ad3fac154)"><g clip-path="url(#e0022bf348)"><path fill="#b6df4e" d="M 108.441406 31.753906 C 106.691406 31.082031 104.765625 30.832031 103.15625 29.875 C 102.742188 29.628906 102.355469 29.339844 102.058594 28.960938 C 101.757812 28.585938 101.5625 28.117188 101.558594 27.636719 C 101.566406 27.269531 101.683594 26.902344 101.882812 26.585938 C 102.085938 26.273438 102.363281 26.015625 102.675781 25.816406 C 103.300781 25.414062 104.050781 25.25 104.789062 25.160156 C 107.449219 24.835938 110.164062 25.34375 112.652344 26.324219 C 115.375 27.40625 117.851562 29.046875 120.027344 31 C 120.804688 31.695312 121.554688 32.445312 122.0625 33.351562 C 122.324219 33.808594 122.507812 34.300781 122.597656 34.816406 C 122.6875 35.324219 122.664062 35.863281 122.527344 36.363281 C 122.265625 37.292969 121.542969 38.074219 120.65625 38.460938 C 119.769531 38.84375 118.730469 38.847656 117.824219 38.5 C 116.753906 38.097656 115.914062 37.261719 115.089844 36.46875 C 113.117188 34.578125 111 32.726562 108.445312 31.75 L 108.441406 31.753906 " fill-opacity="1" fill-rule="nonzero"/></g></g></g></g><g clip-path="url(#737e1d89c7)"><g clip-path="url(#bd45c1f183)"><g clip-path="url(#eb52d5711f)"><g clip-path="url(#f0014b6dfe)"><path fill="#b6df4e" d="M 96.675781 78.585938 C 94.855469 78.132812 92.917969 78.117188 91.203125 77.359375 C 90.761719 77.167969 90.34375 76.921875 89.996094 76.585938 C 89.65625 76.246094 89.402344 75.804688 89.347656 75.332031 C 89.3125 74.957031 89.382812 74.582031 89.542969 74.25 C 89.703125 73.914062 89.949219 73.625 90.238281 73.382812 C 90.808594 72.910156 91.535156 72.664062 92.253906 72.484375 C 94.855469 71.839844 97.613281 72.015625 100.203125 72.695312 C 103.035156 73.4375 105.691406 74.769531 108.085938 76.445312 C 108.941406 77.039062 109.773438 77.695312 110.386719 78.539062 C 110.699219 78.960938 110.945312 79.425781 111.09375 79.925781 C 111.246094 80.421875 111.289062 80.957031 111.214844 81.472656 C 111.0625 82.425781 110.445312 83.289062 109.605469 83.777344 C 108.769531 84.265625 107.738281 84.390625 106.796875 84.15625 C 105.6875 83.882812 104.757812 83.160156 103.839844 82.46875 C 101.65625 80.824219 99.332031 79.25 96.675781 78.585938 " fill-opacity="1" fill-rule="nonzero"/></g></g></g></g><g clip-path="url(#81f9e84b74)"><g clip-path="url(#f101e968b8)"><g clip-path="url(#0935562246)"><g clip-path="url(#4656de7edb)"><path fill="#b6df4e" d="M 78.414062 119.074219 C 81.3125 116.984375 84.453125 115.238281 87.757812 113.878906 C 90.1875 112.878906 92.699219 112.097656 95.253906 111.492188 C 96.09375 111.300781 96.945312 111.121094 97.808594 111.152344 C 98.667969 111.1875 99.542969 111.453125 100.171875 112.046875 C 100.5625 112.417969 100.84375 112.902344 100.984375 113.429688 C 101.121094 113.953125 101.117188 114.507812 101.003906 115.035156 C 100.765625 116.089844 100.054688 117.003906 99.167969 117.617188 C 98.21875 118.277344 97.09375 118.617188 95.992188 118.96875 C 91.414062 120.441406 86.953125 122.316406 82.820312 124.773438 C 82.089844 125.207031 81.367188 125.660156 80.597656 126.019531 C 79.832031 126.378906 79.007812 126.652344 78.15625 126.691406 C 77.308594 126.738281 76.425781 126.539062 75.730469 126.042969 C 75.382812 125.792969 75.082031 125.472656 74.871094 125.101562 C 74.660156 124.734375 74.523438 124.3125 74.523438 123.882812 C 74.511719 123.375 74.664062 122.875 74.898438 122.425781 C 75.136719 121.972656 75.457031 121.578125 75.800781 121.199219 C 76.5625 120.371094 77.445312 119.648438 78.417969 119.074219 L 78.414062 119.074219 " fill-opacity="1" fill-rule="nonzero"/></g></g></g></g><g clip-path="url(#023770ede6)"><g clip-path="url(#60b67721f7)"><g clip-path="url(#bd11bed4b3)"><g clip-path="url(#a3121b0818)"><path fill="#b6df4e" d="M 220.003906 64.882812 C 216.566406 65.347656 213.183594 66.171875 209.917969 67.335938 C 207.449219 68.222656 205.046875 69.300781 202.738281 70.550781 C 201.980469 70.964844 201.226562 71.394531 200.605469 71.996094 C 199.984375 72.59375 199.507812 73.375 199.433594 74.234375 C 199.390625 74.773438 199.507812 75.320312 199.753906 75.804688 C 199.996094 76.289062 200.371094 76.699219 200.804688 77.015625 C 201.6875 77.644531 202.820312 77.851562 203.898438 77.722656 C 205.042969 77.585938 206.109375 77.085938 207.164062 76.617188 C 211.558594 74.667969 216.136719 73.097656 220.859375 72.175781 C 221.691406 72.011719 222.527344 71.871094 223.34375 71.625 C 224.15625 71.378906 224.953125 71.039062 225.609375 70.503906 C 226.277344 69.96875 226.804688 69.234375 226.992188 68.402344 C 227.085938 67.984375 227.101562 67.546875 227.007812 67.128906 C 226.917969 66.714844 226.722656 66.316406 226.449219 65.988281 C 226.125 65.601562 225.675781 65.332031 225.203125 65.152344 C 224.722656 64.972656 224.21875 64.890625 223.714844 64.835938 C 222.914062 64.753906 222.105469 64.75 221.304688 64.789062 C 220.867188 64.808594 220.433594 64.839844 220 64.882812 L 220.003906 64.882812 " fill-opacity="1" fill-rule="nonzero"/></g></g></g></g><g clip-path="url(#c49d8176f4)"><g clip-path="url(#cb34060959)"><g clip-path="url(#3b14a84d65)"><g clip-path="url(#e073a96255)"><path fill="#b6df4e" d="M 181.699219 37.34375 C 183.382812 36.519531 185.273438 36.09375 186.792969 34.992188 C 187.179688 34.710938 187.542969 34.382812 187.804688 33.980469 C 188.070312 33.578125 188.222656 33.097656 188.179688 32.617188 C 188.136719 32.25 187.992188 31.894531 187.761719 31.605469 C 187.53125 31.308594 187.234375 31.074219 186.902344 30.90625 C 186.242188 30.5625 185.480469 30.46875 184.738281 30.445312 C 182.0625 30.363281 179.402344 31.113281 177.011719 32.324219 C 174.402344 33.644531 172.085938 35.503906 170.09375 37.644531 C 169.382812 38.410156 168.707031 39.226562 168.285156 40.175781 C 168.066406 40.652344 167.929688 41.164062 167.886719 41.679688 C 167.839844 42.199219 167.914062 42.730469 168.09375 43.21875 C 168.4375 44.121094 169.230469 44.832031 170.148438 45.136719 C 171.066406 45.4375 172.101562 45.34375 172.976562 44.914062 C 174 44.414062 174.761719 43.511719 175.507812 42.648438 C 177.304688 40.582031 179.242188 38.550781 181.699219 37.34375 " fill-opacity="1" fill-rule="nonzero"/></g></g></g></g></svg>