<svg xmlns="http://www.w3.org/2000/svg" xmlns:xlink="http://www.w3.org/1999/xlink" width="500" zoomAndPan="magnify" viewBox="0 0 375 374.999991" height="500" preserveAspectRatio="xMidYMid meet" version="1.0"><defs><clipPath id="3f2a8d1595"><path d="M 1.585938 0 L 373.414062 0 L 373.414062 374.730469 L 1.585938 374.730469 Z M 1.585938 0 " clip-rule="nonzero"/></clipPath><clipPath id="93d276b45a"><path d="M 19.585938 0 L 355.414062 0 C 360.1875 0 364.765625 1.894531 368.140625 5.273438 C 371.515625 8.648438 373.414062 13.226562 373.414062 18 L 373.414062 357 C 373.414062 361.773438 371.515625 366.351562 368.140625 369.726562 C 364.765625 373.105469 360.1875 375 355.414062 375 L 19.585938 375 C 14.8125 375 10.234375 373.105469 6.859375 369.726562 C 3.484375 366.351562 1.585938 361.773438 1.585938 357 L 1.585938 18 C 1.585938 13.226562 3.484375 8.648438 6.859375 5.273438 C 10.234375 1.894531 14.8125 0 19.585938 0 Z M 19.585938 0 " clip-rule="nonzero"/></clipPath><linearGradient x1="-0.00000000971141" gradientTransform="matrix(1.452449, 0, 0, 1.452449, 1.586532, -0.00952)" y1="129.091995" x2="255.999985" gradientUnits="userSpaceOnUse" y2="129.091995" id="ead8518231"><stop stop-opacity="1" stop-color="rgb(100%, 91.799927%, 0%)" offset="0"/><stop stop-opacity="1" stop-color="rgb(99.972534%, 91.809082%, 0.25177%)" offset="0.00390625"/><stop stop-opacity="1" stop-color="rgb(99.946594%, 91.819763%, 0.505066%)" offset="0.0078125"/><stop stop-opacity="1" stop-color="rgb(99.920654%, 91.830444%, 0.756836%)" offset="0.0117187"/><stop stop-opacity="1" stop-color="rgb(99.894714%, 91.841125%, 1.010132%)" offset="0.015625"/><stop stop-opacity="1" stop-color="rgb(99.868774%, 91.851807%, 1.261902%)" offset="0.0195312"/><stop stop-opacity="1" stop-color="rgb(99.842834%, 91.862488%, 1.515198%)" offset="0.0234375"/><stop stop-opacity="1" stop-color="rgb(99.815369%, 91.873169%, 1.768494%)" offset="0.0273437"/><stop stop-opacity="1" stop-color="rgb(99.789429%, 91.88385%, 2.02179%)" offset="0.03125"/><stop stop-opacity="1" stop-color="rgb(99.763489%, 91.894531%, 2.27356%)" offset="0.0351562"/><stop stop-opacity="1" stop-color="rgb(99.737549%, 91.905212%, 2.526855%)" offset="0.0390625"/><stop stop-opacity="1" stop-color="rgb(99.711609%, 91.914368%, 2.778625%)" offset="0.0429688"/><stop stop-opacity="1" stop-color="rgb(99.685669%, 91.925049%, 3.031921%)" offset="0.046875"/><stop stop-opacity="1" stop-color="rgb(99.658203%, 91.93573%, 3.283691%)" offset="0.0507812"/><stop stop-opacity="1" stop-color="rgb(99.632263%, 91.946411%, 3.536987%)" offset="0.0546875"/><stop stop-opacity="1" stop-color="rgb(99.606323%, 91.957092%, 3.790283%)" offset="0.0585937"/><stop stop-opacity="1" stop-color="rgb(99.580383%, 91.967773%, 4.043579%)" offset="0.0625"/><stop stop-opacity="1" stop-color="rgb(99.554443%, 91.978455%, 4.295349%)" offset="0.0664062"/><stop stop-opacity="1" stop-color="rgb(99.528503%, 91.989136%, 4.548645%)" offset="0.0703125"/><stop stop-opacity="1" stop-color="rgb(99.501038%, 91.999817%, 4.800415%)" offset="0.0742188"/><stop stop-opacity="1" stop-color="rgb(99.475098%, 92.010498%, 5.053711%)" offset="0.078125"/><stop stop-opacity="1" stop-color="rgb(99.449158%, 92.021179%, 5.305481%)" offset="0.0820312"/><stop stop-opacity="1" stop-color="rgb(99.423218%, 92.03186%, 5.558777%)" offset="0.0859375"/><stop stop-opacity="1" stop-color="rgb(99.397278%, 92.041016%, 5.812073%)" offset="0.0898438"/><stop stop-opacity="1" stop-color="rgb(99.371338%, 92.051697%, 6.065369%)" offset="0.09375"/><stop stop-opacity="1" stop-color="rgb(99.345398%, 92.062378%, 6.317139%)" offset="0.0976562"/><stop stop-opacity="1" stop-color="rgb(99.319458%, 92.073059%, 6.570435%)" offset="0.101562"/><stop stop-opacity="1" stop-color="rgb(99.291992%, 92.08374%, 6.822205%)" offset="0.105469"/><stop stop-opacity="1" stop-color="rgb(99.266052%, 92.094421%, 7.0755%)" offset="0.109375"/><stop stop-opacity="1" stop-color="rgb(99.240112%, 92.105103%, 7.327271%)" offset="0.113281"/><stop stop-opacity="1" stop-color="rgb(99.214172%, 92.115784%, 7.580566%)" offset="0.117187"/><stop stop-opacity="1" stop-color="rgb(99.188232%, 92.126465%, 7.833862%)" offset="0.121094"/><stop stop-opacity="1" stop-color="rgb(99.162292%, 92.137146%, 8.087158%)" offset="0.125"/><stop stop-opacity="1" stop-color="rgb(99.134827%, 92.147827%, 8.338928%)" offset="0.128906"/><stop stop-opacity="1" stop-color="rgb(99.108887%, 92.158508%, 8.592224%)" offset="0.132813"/><stop stop-opacity="1" stop-color="rgb(99.082947%, 92.167664%, 8.843994%)" offset="0.136719"/><stop stop-opacity="1" stop-color="rgb(99.057007%, 92.178345%, 9.09729%)" offset="0.140625"/><stop stop-opacity="1" stop-color="rgb(99.031067%, 92.189026%, 9.350586%)" offset="0.144531"/><stop stop-opacity="1" stop-color="rgb(99.005127%, 92.199707%, 9.603882%)" offset="0.148438"/><stop stop-opacity="1" stop-color="rgb(98.977661%, 92.210388%, 9.855652%)" offset="0.152344"/><stop stop-opacity="1" stop-color="rgb(98.951721%, 92.221069%, 10.108948%)" offset="0.15625"/><stop stop-opacity="1" stop-color="rgb(98.925781%, 92.23175%, 10.360718%)" offset="0.160156"/><stop stop-opacity="1" stop-color="rgb(98.899841%, 92.242432%, 10.614014%)" offset="0.164063"/><stop stop-opacity="1" stop-color="rgb(98.873901%, 92.253113%, 10.865784%)" offset="0.167969"/><stop stop-opacity="1" stop-color="rgb(98.847961%, 92.263794%, 11.11908%)" offset="0.171875"/><stop stop-opacity="1" stop-color="rgb(98.822021%, 92.272949%, 11.372375%)" offset="0.175781"/><stop stop-opacity="1" stop-color="rgb(98.796082%, 92.28363%, 11.625671%)" offset="0.179688"/><stop stop-opacity="1" stop-color="rgb(98.768616%, 92.294312%, 11.877441%)" offset="0.183594"/><stop stop-opacity="1" stop-color="rgb(98.742676%, 92.304993%, 12.130737%)" offset="0.1875"/><stop stop-opacity="1" stop-color="rgb(98.716736%, 92.315674%, 12.382507%)" offset="0.191406"/><stop stop-opacity="1" stop-color="rgb(98.690796%, 92.326355%, 12.635803%)" offset="0.195312"/><stop stop-opacity="1" stop-color="rgb(98.664856%, 92.337036%, 12.887573%)" offset="0.199219"/><stop stop-opacity="1" stop-color="rgb(98.638916%, 92.347717%, 13.140869%)" offset="0.203125"/><stop stop-opacity="1" stop-color="rgb(98.61145%, 92.358398%, 13.394165%)" offset="0.207031"/><stop stop-opacity="1" stop-color="rgb(98.58551%, 92.36908%, 13.647461%)" offset="0.210938"/><stop stop-opacity="1" stop-color="rgb(98.55957%, 92.379761%, 13.899231%)" offset="0.214844"/><stop stop-opacity="1" stop-color="rgb(98.53363%, 92.390442%, 14.152527%)" offset="0.21875"/><stop stop-opacity="1" stop-color="rgb(98.50769%, 92.399597%, 14.404297%)" offset="0.222656"/><stop stop-opacity="1" stop-color="rgb(98.48175%, 92.410278%, 14.657593%)" offset="0.226562"/><stop stop-opacity="1" stop-color="rgb(98.454285%, 92.420959%, 14.909363%)" offset="0.230469"/><stop stop-opacity="1" stop-color="rgb(98.428345%, 92.431641%, 15.162659%)" offset="0.234375"/><stop stop-opacity="1" stop-color="rgb(98.402405%, 92.442322%, 15.415955%)" offset="0.238281"/><stop stop-opacity="1" stop-color="rgb(98.376465%, 92.453003%, 15.66925%)" offset="0.242188"/><stop stop-opacity="1" stop-color="rgb(98.350525%, 92.463684%, 15.921021%)" offset="0.246094"/><stop stop-opacity="1" stop-color="rgb(98.324585%, 92.474365%, 16.174316%)" offset="0.25"/><stop stop-opacity="1" stop-color="rgb(98.297119%, 92.485046%, 16.426086%)" offset="0.253906"/><stop stop-opacity="1" stop-color="rgb(98.271179%, 92.495728%, 16.679382%)" offset="0.257812"/><stop stop-opacity="1" stop-color="rgb(98.245239%, 92.506409%, 16.931152%)" offset="0.261719"/><stop stop-opacity="1" stop-color="rgb(98.219299%, 92.51709%, 17.184448%)" offset="0.265625"/><stop stop-opacity="1" stop-color="rgb(98.193359%, 92.526245%, 17.437744%)" offset="0.269531"/><stop stop-opacity="1" stop-color="rgb(98.167419%, 92.536926%, 17.69104%)" offset="0.273438"/><stop stop-opacity="1" stop-color="rgb(98.141479%, 92.547607%, 17.94281%)" offset="0.277344"/><stop stop-opacity="1" stop-color="rgb(98.11554%, 92.558289%, 18.196106%)" offset="0.28125"/><stop stop-opacity="1" stop-color="rgb(98.088074%, 92.56897%, 18.447876%)" offset="0.285156"/><stop stop-opacity="1" stop-color="rgb(98.062134%, 92.579651%, 18.701172%)" offset="0.289063"/><stop stop-opacity="1" stop-color="rgb(98.036194%, 92.590332%, 18.954468%)" offset="0.292969"/><stop stop-opacity="1" stop-color="rgb(98.010254%, 92.601013%, 19.207764%)" offset="0.296875"/><stop stop-opacity="1" stop-color="rgb(97.984314%, 92.611694%, 19.459534%)" offset="0.300781"/><stop stop-opacity="1" stop-color="rgb(97.958374%, 92.622375%, 19.71283%)" offset="0.304688"/><stop stop-opacity="1" stop-color="rgb(97.930908%, 92.633057%, 19.9646%)" offset="0.308594"/><stop stop-opacity="1" stop-color="rgb(97.904968%, 92.643738%, 20.217896%)" offset="0.3125"/><stop stop-opacity="1" stop-color="rgb(97.879028%, 92.652893%, 20.469666%)" offset="0.316406"/><stop stop-opacity="1" stop-color="rgb(97.853088%, 92.663574%, 20.722961%)" offset="0.320313"/><stop stop-opacity="1" stop-color="rgb(97.827148%, 92.674255%, 20.976257%)" offset="0.324219"/><stop stop-opacity="1" stop-color="rgb(97.801208%, 92.684937%, 21.229553%)" offset="0.328125"/><stop stop-opacity="1" stop-color="rgb(97.773743%, 92.695618%, 21.481323%)" offset="0.332031"/><stop stop-opacity="1" stop-color="rgb(97.747803%, 92.706299%, 21.734619%)" offset="0.335938"/><stop stop-opacity="1" stop-color="rgb(97.721863%, 92.71698%, 21.986389%)" offset="0.339844"/><stop stop-opacity="1" stop-color="rgb(97.695923%, 92.727661%, 22.239685%)" offset="0.34375"/><stop stop-opacity="1" stop-color="rgb(97.669983%, 92.738342%, 22.491455%)" offset="0.347656"/><stop stop-opacity="1" stop-color="rgb(97.644043%, 92.749023%, 22.744751%)" offset="0.351563"/><stop stop-opacity="1" stop-color="rgb(97.618103%, 92.758179%, 22.998047%)" offset="0.355469"/><stop stop-opacity="1" stop-color="rgb(97.592163%, 92.76886%, 23.251343%)" offset="0.359375"/><stop stop-opacity="1" stop-color="rgb(97.564697%, 92.779541%, 23.503113%)" offset="0.363281"/><stop stop-opacity="1" stop-color="rgb(97.538757%, 92.790222%, 23.756409%)" offset="0.367188"/><stop stop-opacity="1" stop-color="rgb(97.512817%, 92.800903%, 24.008179%)" offset="0.371094"/><stop stop-opacity="1" stop-color="rgb(97.486877%, 92.811584%, 24.261475%)" offset="0.375"/><stop stop-opacity="1" stop-color="rgb(97.460938%, 92.822266%, 24.513245%)" offset="0.378906"/><stop stop-opacity="1" stop-color="rgb(97.434998%, 92.832947%, 24.766541%)" offset="0.382812"/><stop stop-opacity="1" stop-color="rgb(97.407532%, 92.843628%, 25.019836%)" offset="0.386719"/><stop stop-opacity="1" stop-color="rgb(97.381592%, 92.854309%, 25.273132%)" offset="0.390625"/><stop stop-opacity="1" stop-color="rgb(97.355652%, 92.86499%, 25.524902%)" offset="0.394531"/><stop stop-opacity="1" stop-color="rgb(97.329712%, 92.875671%, 25.778198%)" offset="0.398438"/><stop stop-opacity="1" stop-color="rgb(97.303772%, 92.884827%, 26.029968%)" offset="0.402344"/><stop stop-opacity="1" stop-color="rgb(97.277832%, 92.895508%, 26.283264%)" offset="0.40625"/><stop stop-opacity="1" stop-color="rgb(97.250366%, 92.906189%, 26.535034%)" offset="0.410156"/><stop stop-opacity="1" stop-color="rgb(97.224426%, 92.91687%, 26.78833%)" offset="0.414062"/><stop stop-opacity="1" stop-color="rgb(97.198486%, 92.927551%, 27.041626%)" offset="0.417969"/><stop stop-opacity="1" stop-color="rgb(97.172546%, 92.938232%, 27.294922%)" offset="0.421875"/><stop stop-opacity="1" stop-color="rgb(97.146606%, 92.948914%, 27.546692%)" offset="0.425781"/><stop stop-opacity="1" stop-color="rgb(97.120667%, 92.959595%, 27.799988%)" offset="0.429688"/><stop stop-opacity="1" stop-color="rgb(97.093201%, 92.970276%, 28.051758%)" offset="0.433594"/><stop stop-opacity="1" stop-color="rgb(97.067261%, 92.980957%, 28.305054%)" offset="0.4375"/><stop stop-opacity="1" stop-color="rgb(97.041321%, 92.991638%, 28.55835%)" offset="0.441406"/><stop stop-opacity="1" stop-color="rgb(97.015381%, 93.002319%, 28.811646%)" offset="0.445312"/><stop stop-opacity="1" stop-color="rgb(96.989441%, 93.011475%, 29.063416%)" offset="0.449219"/><stop stop-opacity="1" stop-color="rgb(96.963501%, 93.022156%, 29.316711%)" offset="0.453125"/><stop stop-opacity="1" stop-color="rgb(96.937561%, 93.032837%, 29.568481%)" offset="0.457031"/><stop stop-opacity="1" stop-color="rgb(96.911621%, 93.043518%, 29.821777%)" offset="0.460938"/><stop stop-opacity="1" stop-color="rgb(96.884155%, 93.054199%, 30.073547%)" offset="0.464844"/><stop stop-opacity="1" stop-color="rgb(96.858215%, 93.06488%, 30.326843%)" offset="0.46875"/><stop stop-opacity="1" stop-color="rgb(96.832275%, 93.075562%, 30.580139%)" offset="0.472656"/><stop stop-opacity="1" stop-color="rgb(96.806335%, 93.086243%, 30.833435%)" offset="0.476562"/><stop stop-opacity="1" stop-color="rgb(96.780396%, 93.096924%, 31.085205%)" offset="0.480469"/><stop stop-opacity="1" stop-color="rgb(96.754456%, 93.107605%, 31.338501%)" offset="0.484375"/><stop stop-opacity="1" stop-color="rgb(96.72699%, 93.11676%, 31.590271%)" offset="0.488281"/><stop stop-opacity="1" stop-color="rgb(96.70105%, 93.127441%, 31.843567%)" offset="0.492188"/><stop stop-opacity="1" stop-color="rgb(96.67511%, 93.138123%, 32.095337%)" offset="0.496094"/><stop stop-opacity="1" stop-color="rgb(96.64917%, 93.148804%, 32.348633%)" offset="0.5"/><stop stop-opacity="1" stop-color="rgb(96.62323%, 93.159485%, 32.601929%)" offset="0.503906"/><stop stop-opacity="1" stop-color="rgb(96.59729%, 93.170166%, 32.855225%)" offset="0.507812"/><stop stop-opacity="1" stop-color="rgb(96.569824%, 93.180847%, 33.106995%)" offset="0.511719"/><stop stop-opacity="1" stop-color="rgb(96.543884%, 93.191528%, 33.360291%)" offset="0.515625"/><stop stop-opacity="1" stop-color="rgb(96.517944%, 93.202209%, 33.612061%)" offset="0.519531"/><stop stop-opacity="1" stop-color="rgb(96.492004%, 93.212891%, 33.865356%)" offset="0.523438"/><stop stop-opacity="1" stop-color="rgb(96.466064%, 93.223572%, 34.117126%)" offset="0.527344"/><stop stop-opacity="1" stop-color="rgb(96.440125%, 93.234253%, 34.370422%)" offset="0.53125"/><stop stop-opacity="1" stop-color="rgb(96.414185%, 93.243408%, 34.623718%)" offset="0.535156"/><stop stop-opacity="1" stop-color="rgb(96.388245%, 93.254089%, 34.877014%)" offset="0.539063"/><stop stop-opacity="1" stop-color="rgb(96.360779%, 93.264771%, 35.128784%)" offset="0.542969"/><stop stop-opacity="1" stop-color="rgb(96.334839%, 93.275452%, 35.38208%)" offset="0.546875"/><stop stop-opacity="1" stop-color="rgb(96.308899%, 93.286133%, 35.63385%)" offset="0.550781"/><stop stop-opacity="1" stop-color="rgb(96.282959%, 93.296814%, 35.887146%)" offset="0.554688"/><stop stop-opacity="1" stop-color="rgb(96.257019%, 93.307495%, 36.140442%)" offset="0.558594"/><stop stop-opacity="1" stop-color="rgb(96.231079%, 93.318176%, 36.393738%)" offset="0.5625"/><stop stop-opacity="1" stop-color="rgb(96.203613%, 93.328857%, 36.645508%)" offset="0.566406"/><stop stop-opacity="1" stop-color="rgb(96.177673%, 93.339539%, 36.898804%)" offset="0.570313"/><stop stop-opacity="1" stop-color="rgb(96.151733%, 93.35022%, 37.150574%)" offset="0.574219"/><stop stop-opacity="1" stop-color="rgb(96.125793%, 93.360901%, 37.40387%)" offset="0.578125"/><stop stop-opacity="1" stop-color="rgb(96.099854%, 93.370056%, 37.65564%)" offset="0.582031"/><stop stop-opacity="1" stop-color="rgb(96.073914%, 93.380737%, 37.908936%)" offset="0.585938"/><stop stop-opacity="1" stop-color="rgb(96.046448%, 93.391418%, 38.162231%)" offset="0.589844"/><stop stop-opacity="1" stop-color="rgb(96.020508%, 93.4021%, 38.415527%)" offset="0.59375"/><stop stop-opacity="1" stop-color="rgb(95.994568%, 93.412781%, 38.667297%)" offset="0.597656"/><stop stop-opacity="1" stop-color="rgb(95.968628%, 93.423462%, 38.920593%)" offset="0.601563"/><stop stop-opacity="1" stop-color="rgb(95.942688%, 93.434143%, 39.172363%)" offset="0.605469"/><stop stop-opacity="1" stop-color="rgb(95.916748%, 93.444824%, 39.425659%)" offset="0.609375"/><stop stop-opacity="1" stop-color="rgb(95.889282%, 93.455505%, 39.677429%)" offset="0.613281"/><stop stop-opacity="1" stop-color="rgb(95.863342%, 93.466187%, 39.930725%)" offset="0.617188"/><stop stop-opacity="1" stop-color="rgb(95.837402%, 93.475342%, 40.184021%)" offset="0.621094"/><stop stop-opacity="1" stop-color="rgb(95.811462%, 93.486023%, 40.437317%)" offset="0.625"/><stop stop-opacity="1" stop-color="rgb(95.785522%, 93.496704%, 40.689087%)" offset="0.628906"/><stop stop-opacity="1" stop-color="rgb(95.759583%, 93.507385%, 40.942383%)" offset="0.632813"/><stop stop-opacity="1" stop-color="rgb(95.733643%, 93.518066%, 41.194153%)" offset="0.636719"/><stop stop-opacity="1" stop-color="rgb(95.707703%, 93.528748%, 41.447449%)" offset="0.640625"/><stop stop-opacity="1" stop-color="rgb(95.680237%, 93.539429%, 41.699219%)" offset="0.644531"/><stop stop-opacity="1" stop-color="rgb(95.654297%, 93.55011%, 41.952515%)" offset="0.648438"/><stop stop-opacity="1" stop-color="rgb(95.628357%, 93.560791%, 42.205811%)" offset="0.652344"/><stop stop-opacity="1" stop-color="rgb(95.602417%, 93.571472%, 42.459106%)" offset="0.65625"/><stop stop-opacity="1" stop-color="rgb(95.576477%, 93.582153%, 42.710876%)" offset="0.660156"/><stop stop-opacity="1" stop-color="rgb(95.550537%, 93.592834%, 42.964172%)" offset="0.664063"/><stop stop-opacity="1" stop-color="rgb(95.523071%, 93.60199%, 43.215942%)" offset="0.667969"/><stop stop-opacity="1" stop-color="rgb(95.497131%, 93.612671%, 43.469238%)" offset="0.671875"/><stop stop-opacity="1" stop-color="rgb(95.471191%, 93.623352%, 43.721008%)" offset="0.675781"/><stop stop-opacity="1" stop-color="rgb(95.445251%, 93.634033%, 43.974304%)" offset="0.679688"/><stop stop-opacity="1" stop-color="rgb(95.419312%, 93.644714%, 44.2276%)" offset="0.683594"/><stop stop-opacity="1" stop-color="rgb(95.393372%, 93.655396%, 44.480896%)" offset="0.6875"/><stop stop-opacity="1" stop-color="rgb(95.365906%, 93.666077%, 44.732666%)" offset="0.691406"/><stop stop-opacity="1" stop-color="rgb(95.339966%, 93.676758%, 44.985962%)" offset="0.695313"/><stop stop-opacity="1" stop-color="rgb(95.314026%, 93.687439%, 45.237732%)" offset="0.699219"/><stop stop-opacity="1" stop-color="rgb(95.288086%, 93.69812%, 45.491028%)" offset="0.703125"/><stop stop-opacity="1" stop-color="rgb(95.262146%, 93.708801%, 45.744324%)" offset="0.707031"/><stop stop-opacity="1" stop-color="rgb(95.236206%, 93.719482%, 45.99762%)" offset="0.710938"/><stop stop-opacity="1" stop-color="rgb(95.210266%, 93.728638%, 46.24939%)" offset="0.714844"/><stop stop-opacity="1" stop-color="rgb(95.184326%, 93.739319%, 46.502686%)" offset="0.71875"/><stop stop-opacity="1" stop-color="rgb(95.15686%, 93.75%, 46.754456%)" offset="0.722656"/><stop stop-opacity="1" stop-color="rgb(95.13092%, 93.760681%, 47.007751%)" offset="0.726563"/><stop stop-opacity="1" stop-color="rgb(95.10498%, 93.771362%, 47.259521%)" offset="0.730469"/><stop stop-opacity="1" stop-color="rgb(95.079041%, 93.782043%, 47.512817%)" offset="0.734375"/><stop stop-opacity="1" stop-color="rgb(95.053101%, 93.792725%, 47.766113%)" offset="0.738281"/><stop stop-opacity="1" stop-color="rgb(95.027161%, 93.803406%, 48.019409%)" offset="0.742188"/><stop stop-opacity="1" stop-color="rgb(94.999695%, 93.814087%, 48.271179%)" offset="0.746094"/><stop stop-opacity="1" stop-color="rgb(94.973755%, 93.824768%, 48.524475%)" offset="0.75"/><stop stop-opacity="1" stop-color="rgb(94.947815%, 93.833923%, 48.776245%)" offset="0.753906"/><stop stop-opacity="1" stop-color="rgb(94.921875%, 93.844604%, 49.029541%)" offset="0.757813"/><stop stop-opacity="1" stop-color="rgb(94.895935%, 93.855286%, 49.281311%)" offset="0.761719"/><stop stop-opacity="1" stop-color="rgb(94.869995%, 93.865967%, 49.534607%)" offset="0.765625"/><stop stop-opacity="1" stop-color="rgb(94.842529%, 93.876648%, 49.787903%)" offset="0.769531"/><stop stop-opacity="1" stop-color="rgb(94.816589%, 93.887329%, 50.041199%)" offset="0.773438"/><stop stop-opacity="1" stop-color="rgb(94.790649%, 93.89801%, 50.292969%)" offset="0.777344"/><stop stop-opacity="1" stop-color="rgb(94.764709%, 93.908691%, 50.546265%)" offset="0.78125"/><stop stop-opacity="1" stop-color="rgb(94.73877%, 93.919373%, 50.798035%)" offset="0.785156"/><stop stop-opacity="1" stop-color="rgb(94.71283%, 93.930054%, 51.051331%)" offset="0.789063"/><stop stop-opacity="1" stop-color="rgb(94.685364%, 93.940735%, 51.303101%)" offset="0.792969"/><stop stop-opacity="1" stop-color="rgb(94.659424%, 93.951416%, 51.556396%)" offset="0.796875"/><stop stop-opacity="1" stop-color="rgb(94.633484%, 93.960571%, 51.809692%)" offset="0.800781"/><stop stop-opacity="1" stop-color="rgb(94.607544%, 93.971252%, 52.062988%)" offset="0.804688"/><stop stop-opacity="1" stop-color="rgb(94.581604%, 93.981934%, 52.314758%)" offset="0.808594"/><stop stop-opacity="1" stop-color="rgb(94.555664%, 93.992615%, 52.568054%)" offset="0.8125"/><stop stop-opacity="1" stop-color="rgb(94.529724%, 94.003296%, 52.819824%)" offset="0.816406"/><stop stop-opacity="1" stop-color="rgb(94.503784%, 94.013977%, 53.07312%)" offset="0.820313"/><stop stop-opacity="1" stop-color="rgb(94.476318%, 94.024658%, 53.32489%)" offset="0.824219"/><stop stop-opacity="1" stop-color="rgb(94.450378%, 94.035339%, 53.578186%)" offset="0.828125"/><stop stop-opacity="1" stop-color="rgb(94.424438%, 94.046021%, 53.831482%)" offset="0.832031"/><stop stop-opacity="1" stop-color="rgb(94.398499%, 94.056702%, 54.084778%)" offset="0.835938"/><stop stop-opacity="1" stop-color="rgb(94.372559%, 94.067383%, 54.336548%)" offset="0.839844"/><stop stop-opacity="1" stop-color="rgb(94.346619%, 94.078064%, 54.589844%)" offset="0.84375"/><stop stop-opacity="1" stop-color="rgb(94.319153%, 94.087219%, 54.841614%)" offset="0.847656"/><stop stop-opacity="1" stop-color="rgb(94.293213%, 94.0979%, 55.09491%)" offset="0.851563"/><stop stop-opacity="1" stop-color="rgb(94.267273%, 94.108582%, 55.348206%)" offset="0.855469"/><stop stop-opacity="1" stop-color="rgb(94.241333%, 94.119263%, 55.601501%)" offset="0.859375"/><stop stop-opacity="1" stop-color="rgb(94.215393%, 94.129944%, 55.853271%)" offset="0.863281"/><stop stop-opacity="1" stop-color="rgb(94.189453%, 94.140625%, 56.106567%)" offset="0.867188"/><stop stop-opacity="1" stop-color="rgb(94.161987%, 94.151306%, 56.358337%)" offset="0.871094"/><stop stop-opacity="1" stop-color="rgb(94.136047%, 94.161987%, 56.611633%)" offset="0.875"/><stop stop-opacity="1" stop-color="rgb(94.110107%, 94.172668%, 56.863403%)" offset="0.878906"/><stop stop-opacity="1" stop-color="rgb(94.084167%, 94.18335%, 57.116699%)" offset="0.882813"/><stop stop-opacity="1" stop-color="rgb(94.058228%, 94.192505%, 57.369995%)" offset="0.886719"/><stop stop-opacity="1" stop-color="rgb(94.032288%, 94.203186%, 57.623291%)" offset="0.890625"/><stop stop-opacity="1" stop-color="rgb(94.006348%, 94.213867%, 57.875061%)" offset="0.894531"/><stop stop-opacity="1" stop-color="rgb(93.980408%, 94.224548%, 58.128357%)" offset="0.898438"/><stop stop-opacity="1" stop-color="rgb(93.952942%, 94.235229%, 58.380127%)" offset="0.902344"/><stop stop-opacity="1" stop-color="rgb(93.927002%, 94.245911%, 58.633423%)" offset="0.90625"/><stop stop-opacity="1" stop-color="rgb(93.901062%, 94.256592%, 58.885193%)" offset="0.910156"/><stop stop-opacity="1" stop-color="rgb(93.875122%, 94.267273%, 59.138489%)" offset="0.914063"/><stop stop-opacity="1" stop-color="rgb(93.849182%, 94.277954%, 59.391785%)" offset="0.917969"/><stop stop-opacity="1" stop-color="rgb(93.823242%, 94.288635%, 59.645081%)" offset="0.921875"/><stop stop-opacity="1" stop-color="rgb(93.795776%, 94.299316%, 59.896851%)" offset="0.925781"/><stop stop-opacity="1" stop-color="rgb(93.769836%, 94.309998%, 60.150146%)" offset="0.929688"/><stop stop-opacity="1" stop-color="rgb(93.743896%, 94.319153%, 60.401917%)" offset="0.933594"/><stop stop-opacity="1" stop-color="rgb(93.717957%, 94.329834%, 60.655212%)" offset="0.9375"/><stop stop-opacity="1" stop-color="rgb(93.692017%, 94.340515%, 60.906982%)" offset="0.941406"/><stop stop-opacity="1" stop-color="rgb(93.666077%, 94.351196%, 61.160278%)" offset="0.945313"/><stop stop-opacity="1" stop-color="rgb(93.638611%, 94.361877%, 61.413574%)" offset="0.949219"/><stop stop-opacity="1" stop-color="rgb(93.612671%, 94.372559%, 61.66687%)" offset="0.953125"/><stop stop-opacity="1" stop-color="rgb(93.586731%, 94.38324%, 61.91864%)" offset="0.957031"/><stop stop-opacity="1" stop-color="rgb(93.560791%, 94.393921%, 62.171936%)" offset="0.960938"/><stop stop-opacity="1" stop-color="rgb(93.534851%, 94.404602%, 62.423706%)" offset="0.964844"/><stop stop-opacity="1" stop-color="rgb(93.508911%, 94.415283%, 62.677002%)" offset="0.96875"/><stop stop-opacity="1" stop-color="rgb(93.482971%, 94.425964%, 62.928772%)" offset="0.972656"/><stop stop-opacity="1" stop-color="rgb(93.457031%, 94.436646%, 63.182068%)" offset="0.976563"/><stop stop-opacity="1" stop-color="rgb(93.429565%, 94.445801%, 63.435364%)" offset="0.980469"/><stop stop-opacity="1" stop-color="rgb(93.403625%, 94.456482%, 63.68866%)" offset="0.984375"/><stop stop-opacity="1" stop-color="rgb(93.377686%, 94.467163%, 63.94043%)" offset="0.988281"/><stop stop-opacity="1" stop-color="rgb(93.351746%, 94.477844%, 64.193726%)" offset="0.992188"/><stop stop-opacity="1" stop-color="rgb(93.325806%, 94.488525%, 64.445496%)" offset="0.996094"/><stop stop-opacity="1" stop-color="rgb(93.299866%, 94.499207%, 64.698792%)" offset="1"/></linearGradient><clipPath id="a0345cb398"><path d="M 1.589844 0 L 373.066406 0 L 373.066406 375 L 1.589844 375 Z M 1.589844 0 " clip-rule="nonzero"/></clipPath><clipPath id="c57db6fa23"><path d="M 19.589844 0 L 355.402344 0 C 360.175781 0 364.753906 1.894531 368.128906 5.273438 C 371.503906 8.648438 373.398438 13.226562 373.398438 18 L 373.398438 356.984375 C 373.398438 361.757812 371.503906 366.335938 368.128906 369.710938 C 364.753906 373.085938 360.175781 374.980469 355.402344 374.980469 L 19.589844 374.980469 C 14.816406 374.980469 10.238281 373.085938 6.863281 369.710938 C 3.488281 366.335938 1.589844 361.757812 1.589844 356.984375 L 1.589844 18 C 1.589844 13.226562 3.488281 8.648438 6.863281 5.273438 C 10.238281 1.894531 14.816406 0 19.589844 0 Z M 19.589844 0 " clip-rule="nonzero"/></clipPath><clipPath id="d3586d1a0a"><path d="M 115.242188 57 L 166.742188 57 L 166.742188 101.414062 L 115.242188 101.414062 Z M 115.242188 57 " clip-rule="nonzero"/></clipPath><clipPath id="9ecb5d9051"><path d="M 72.269531 72.257812 L 222.847656 30.738281 L 296.976562 299.597656 L 146.394531 341.117188 Z M 72.269531 72.257812 " clip-rule="nonzero"/></clipPath><clipPath id="6da34b1bbb"><path d="M 72.269531 72.257812 L 222.847656 30.738281 L 296.976562 299.597656 L 146.394531 341.117188 Z M 72.269531 72.257812 " clip-rule="nonzero"/></clipPath><clipPath id="6950db0e13"><path d="M 72.269531 72.257812 L 222.847656 30.738281 L 296.976562 299.597656 L 146.394531 341.117188 Z M 72.269531 72.257812 " clip-rule="nonzero"/></clipPath><clipPath id="898c6c89e9"><path d="M 135 59.761719 L 166.742188 59.761719 L 166.742188 101.414062 L 135 101.414062 Z M 135 59.761719 " clip-rule="nonzero"/></clipPath><clipPath id="54b06e61c9"><path d="M 72.269531 72.257812 L 222.847656 30.738281 L 296.976562 299.597656 L 146.394531 341.117188 Z M 72.269531 72.257812 " clip-rule="nonzero"/></clipPath><clipPath id="b5a75ce396"><path d="M 72.269531 72.257812 L 222.847656 30.738281 L 296.976562 299.597656 L 146.394531 341.117188 Z M 72.269531 72.257812 " clip-rule="nonzero"/></clipPath><clipPath id="75f71ad96f"><path d="M 72.269531 72.257812 L 222.847656 30.738281 L 296.976562 299.597656 L 146.394531 341.117188 Z M 72.269531 72.257812 " clip-rule="nonzero"/></clipPath><clipPath id="8b6aa1b29c"><path d="M 151 62.035156 L 192 62.035156 L 192 118.835938 L 151 118.835938 Z M 151 62.035156 " clip-rule="nonzero"/></clipPath><clipPath id="85e923c32a"><path d="M 72.269531 72.257812 L 222.847656 30.738281 L 296.976562 299.597656 L 146.394531 341.117188 Z M 72.269531 72.257812 " clip-rule="nonzero"/></clipPath><clipPath id="873795a947"><path d="M 72.269531 72.257812 L 222.847656 30.738281 L 296.976562 299.597656 L 146.394531 341.117188 Z M 72.269531 72.257812 " clip-rule="nonzero"/></clipPath><clipPath id="0b27c642da"><path d="M 72.269531 72.257812 L 222.847656 30.738281 L 296.976562 299.597656 L 146.394531 341.117188 Z M 72.269531 72.257812 " clip-rule="nonzero"/></clipPath><clipPath id="6facf2ffd0"><path d="M 151 64.304688 L 192 64.304688 L 192 118.835938 L 151 118.835938 Z M 151 64.304688 " clip-rule="nonzero"/></clipPath><clipPath id="d14ef70190"><path d="M 72.269531 72.257812 L 222.847656 30.738281 L 296.976562 299.597656 L 146.394531 341.117188 Z M 72.269531 72.257812 " clip-rule="nonzero"/></clipPath><clipPath id="fabd87c586"><path d="M 72.269531 72.257812 L 222.847656 30.738281 L 296.976562 299.597656 L 146.394531 341.117188 Z M 72.269531 72.257812 " clip-rule="nonzero"/></clipPath><clipPath id="1e7aea0862"><path d="M 72.269531 72.257812 L 222.847656 30.738281 L 296.976562 299.597656 L 146.394531 341.117188 Z M 72.269531 72.257812 " clip-rule="nonzero"/></clipPath><clipPath id="c0cdf168d7"><path d="M 103.882812 91 L 176.585938 91 L 176.585938 141.554688 L 103.882812 141.554688 Z M 103.882812 91 " clip-rule="nonzero"/></clipPath><clipPath id="e17d22a74a"><path d="M 72.269531 72.257812 L 222.847656 30.738281 L 296.976562 299.597656 L 146.394531 341.117188 Z M 72.269531 72.257812 " clip-rule="nonzero"/></clipPath><clipPath id="35c3a1a45f"><path d="M 72.269531 72.257812 L 222.847656 30.738281 L 296.976562 299.597656 L 146.394531 341.117188 Z M 72.269531 72.257812 " clip-rule="nonzero"/></clipPath><clipPath id="7009ceef16"><path d="M 72.269531 72.257812 L 222.847656 30.738281 L 296.976562 299.597656 L 146.394531 341.117188 Z M 72.269531 72.257812 " clip-rule="nonzero"/></clipPath><clipPath id="47e171e0c5"><path d="M 129.632812 111.261719 L 176.585938 111.261719 L 176.585938 141.554688 L 129.632812 141.554688 Z M 129.632812 111.261719 " clip-rule="nonzero"/></clipPath><clipPath id="d28ae19152"><path d="M 72.269531 72.257812 L 222.847656 30.738281 L 296.976562 299.597656 L 146.394531 341.117188 Z M 72.269531 72.257812 " clip-rule="nonzero"/></clipPath><clipPath id="45015978a5"><path d="M 72.269531 72.257812 L 222.847656 30.738281 L 296.976562 299.597656 L 146.394531 341.117188 Z M 72.269531 72.257812 " clip-rule="nonzero"/></clipPath><clipPath id="e1645f05d6"><path d="M 72.269531 72.257812 L 222.847656 30.738281 L 296.976562 299.597656 L 146.394531 341.117188 Z M 72.269531 72.257812 " clip-rule="nonzero"/></clipPath><clipPath id="1ce529c2b1"><path d="M 166 91 L 222.785156 91 L 222.785156 152 L 166 152 Z M 166 91 " clip-rule="nonzero"/></clipPath><clipPath id="0cec32df35"><path d="M 72.269531 72.257812 L 222.847656 30.738281 L 296.976562 299.597656 L 146.394531 341.117188 Z M 72.269531 72.257812 " clip-rule="nonzero"/></clipPath><clipPath id="90bed59a2a"><path d="M 72.269531 72.257812 L 222.847656 30.738281 L 296.976562 299.597656 L 146.394531 341.117188 Z M 72.269531 72.257812 " clip-rule="nonzero"/></clipPath><clipPath id="4e29126bc0"><path d="M 72.269531 72.257812 L 222.847656 30.738281 L 296.976562 299.597656 L 146.394531 341.117188 Z M 72.269531 72.257812 " clip-rule="nonzero"/></clipPath><clipPath id="8e33d0d267"><path d="M 92 124 L 174 124 L 174 168 L 92 168 Z M 92 124 " clip-rule="nonzero"/></clipPath><clipPath id="83c1f2d6f2"><path d="M 72.269531 72.257812 L 222.847656 30.738281 L 296.976562 299.597656 L 146.394531 341.117188 Z M 72.269531 72.257812 " clip-rule="nonzero"/></clipPath><clipPath id="b882c16c72"><path d="M 72.269531 72.257812 L 222.847656 30.738281 L 296.976562 299.597656 L 146.394531 341.117188 Z M 72.269531 72.257812 " clip-rule="nonzero"/></clipPath><clipPath id="93b3affc85"><path d="M 72.269531 72.257812 L 222.847656 30.738281 L 296.976562 299.597656 L 146.394531 341.117188 Z M 72.269531 72.257812 " clip-rule="nonzero"/></clipPath><clipPath id="c4a5ad4071"><path d="M 166 102.171875 L 216.726562 102.171875 L 216.726562 152 L 166 152 Z M 166 102.171875 " clip-rule="nonzero"/></clipPath><clipPath id="832219fe32"><path d="M 72.269531 72.257812 L 222.847656 30.738281 L 296.976562 299.597656 L 146.394531 341.117188 Z M 72.269531 72.257812 " clip-rule="nonzero"/></clipPath><clipPath id="c8b1af9d41"><path d="M 72.269531 72.257812 L 222.847656 30.738281 L 296.976562 299.597656 L 146.394531 341.117188 Z M 72.269531 72.257812 " clip-rule="nonzero"/></clipPath><clipPath id="48d75193b2"><path d="M 72.269531 72.257812 L 222.847656 30.738281 L 296.976562 299.597656 L 146.394531 341.117188 Z M 72.269531 72.257812 " clip-rule="nonzero"/></clipPath><clipPath id="973537a50f"><path d="M 110 134 L 174 134 L 174 168 L 110 168 Z M 110 134 " clip-rule="nonzero"/></clipPath><clipPath id="bc98a4fced"><path d="M 72.269531 72.257812 L 222.847656 30.738281 L 296.976562 299.597656 L 146.394531 341.117188 Z M 72.269531 72.257812 " clip-rule="nonzero"/></clipPath><clipPath id="cd16e2f737"><path d="M 72.269531 72.257812 L 222.847656 30.738281 L 296.976562 299.597656 L 146.394531 341.117188 Z M 72.269531 72.257812 " clip-rule="nonzero"/></clipPath><clipPath id="486083489c"><path d="M 72.269531 72.257812 L 222.847656 30.738281 L 296.976562 299.597656 L 146.394531 341.117188 Z M 72.269531 72.257812 " clip-rule="nonzero"/></clipPath><clipPath id="23cde91f60"><path d="M 122.058594 145 L 275.796875 145 L 275.796875 321.800781 L 122.058594 321.800781 Z M 122.058594 145 " clip-rule="nonzero"/></clipPath><clipPath id="5c93c30c17"><path d="M 72.269531 72.257812 L 222.847656 30.738281 L 296.976562 299.597656 L 146.394531 341.117188 Z M 72.269531 72.257812 " clip-rule="nonzero"/></clipPath><clipPath id="5e39cdaa5d"><path d="M 72.269531 72.257812 L 222.847656 30.738281 L 296.976562 299.597656 L 146.394531 341.117188 Z M 72.269531 72.257812 " clip-rule="nonzero"/></clipPath><clipPath id="5bd0a3fbcd"><path d="M 72.269531 72.257812 L 222.847656 30.738281 L 296.976562 299.597656 L 146.394531 341.117188 Z M 72.269531 72.257812 " clip-rule="nonzero"/></clipPath><clipPath id="2b53fbb8ad"><path d="M 133 165.03125 L 170.527344 165.03125 L 170.527344 227.132812 L 133 227.132812 Z M 133 165.03125 " clip-rule="nonzero"/></clipPath><clipPath id="54add773a3"><path d="M 72.269531 72.257812 L 222.847656 30.738281 L 296.976562 299.597656 L 146.394531 341.117188 Z M 72.269531 72.257812 " clip-rule="nonzero"/></clipPath><clipPath id="f425c95b74"><path d="M 72.269531 72.257812 L 222.847656 30.738281 L 296.976562 299.597656 L 146.394531 341.117188 Z M 72.269531 72.257812 " clip-rule="nonzero"/></clipPath><clipPath id="a50954cbcd"><path d="M 72.269531 72.257812 L 222.847656 30.738281 L 296.976562 299.597656 L 146.394531 341.117188 Z M 72.269531 72.257812 " clip-rule="nonzero"/></clipPath><clipPath id="22ca3f50fb"><path d="M 136 145.339844 L 275.796875 145.339844 L 275.796875 321.800781 L 136 321.800781 Z M 136 145.339844 " clip-rule="nonzero"/></clipPath><clipPath id="29c0cc7ba1"><path d="M 72.269531 72.257812 L 222.847656 30.738281 L 296.976562 299.597656 L 146.394531 341.117188 Z M 72.269531 72.257812 " clip-rule="nonzero"/></clipPath><clipPath id="c422fb7a83"><path d="M 72.269531 72.257812 L 222.847656 30.738281 L 296.976562 299.597656 L 146.394531 341.117188 Z M 72.269531 72.257812 " clip-rule="nonzero"/></clipPath><clipPath id="48d3a99ec6"><path d="M 72.269531 72.257812 L 222.847656 30.738281 L 296.976562 299.597656 L 146.394531 341.117188 Z M 72.269531 72.257812 " clip-rule="nonzero"/></clipPath><clipPath id="fc9718d953"><path d="M 122.816406 146.097656 L 177 146.097656 L 177 233.949219 L 122.816406 233.949219 Z M 122.816406 146.097656 " clip-rule="nonzero"/></clipPath><clipPath id="615e2a8392"><path d="M 72.269531 72.257812 L 222.847656 30.738281 L 296.976562 299.597656 L 146.394531 341.117188 Z M 72.269531 72.257812 " clip-rule="nonzero"/></clipPath><clipPath id="5268a563a1"><path d="M 72.269531 72.257812 L 222.847656 30.738281 L 296.976562 299.597656 L 146.394531 341.117188 Z M 72.269531 72.257812 " clip-rule="nonzero"/></clipPath><clipPath id="774aabf570"><path d="M 72.269531 72.257812 L 222.847656 30.738281 L 296.976562 299.597656 L 146.394531 341.117188 Z M 72.269531 72.257812 " clip-rule="nonzero"/></clipPath><clipPath id="9fdfdee1aa"><path d="M 129 145.339844 L 203.851562 145.339844 L 203.851562 269.546875 L 129 269.546875 Z M 129 145.339844 " clip-rule="nonzero"/></clipPath><clipPath id="c9c808674f"><path d="M 72.269531 72.257812 L 222.847656 30.738281 L 296.976562 299.597656 L 146.394531 341.117188 Z M 72.269531 72.257812 " clip-rule="nonzero"/></clipPath><clipPath id="6a7ff63e4b"><path d="M 72.269531 72.257812 L 222.847656 30.738281 L 296.976562 299.597656 L 146.394531 341.117188 Z M 72.269531 72.257812 " clip-rule="nonzero"/></clipPath><clipPath id="b05386c10a"><path d="M 72.269531 72.257812 L 222.847656 30.738281 L 296.976562 299.597656 L 146.394531 341.117188 Z M 72.269531 72.257812 " clip-rule="nonzero"/></clipPath><clipPath id="4bbee17a13"><path d="M 146.292969 159 L 232.628906 159 L 232.628906 299.839844 L 146.292969 299.839844 Z M 146.292969 159 " clip-rule="nonzero"/></clipPath><clipPath id="973916ffef"><path d="M 72.269531 72.257812 L 222.847656 30.738281 L 296.976562 299.597656 L 146.394531 341.117188 Z M 72.269531 72.257812 " clip-rule="nonzero"/></clipPath><clipPath id="ddb0325f6e"><path d="M 72.269531 72.257812 L 222.847656 30.738281 L 296.976562 299.597656 L 146.394531 341.117188 Z M 72.269531 72.257812 " clip-rule="nonzero"/></clipPath><clipPath id="608a6f97a7"><path d="M 72.269531 72.257812 L 222.847656 30.738281 L 296.976562 299.597656 L 146.394531 341.117188 Z M 72.269531 72.257812 " clip-rule="nonzero"/></clipPath><clipPath id="75a04073e5"><path d="M 171.285156 185 L 256.863281 185 L 256.863281 316.5 L 171.285156 316.5 Z M 171.285156 185 " clip-rule="nonzero"/></clipPath><clipPath id="2da02b9e34"><path d="M 72.269531 72.257812 L 222.847656 30.738281 L 296.976562 299.597656 L 146.394531 341.117188 Z M 72.269531 72.257812 " clip-rule="nonzero"/></clipPath><clipPath id="3dd250ae1b"><path d="M 72.269531 72.257812 L 222.847656 30.738281 L 296.976562 299.597656 L 146.394531 341.117188 Z M 72.269531 72.257812 " clip-rule="nonzero"/></clipPath><clipPath id="6e76aa2cf4"><path d="M 72.269531 72.257812 L 222.847656 30.738281 L 296.976562 299.597656 L 146.394531 341.117188 Z M 72.269531 72.257812 " clip-rule="nonzero"/></clipPath><clipPath id="0270f6a21c"><path d="M 203.851562 215.015625 L 272 215.015625 L 272 321.800781 L 203.851562 321.800781 Z M 203.851562 215.015625 " clip-rule="nonzero"/></clipPath><clipPath id="fddb2dde79"><path d="M 72.269531 72.257812 L 222.847656 30.738281 L 296.976562 299.597656 L 146.394531 341.117188 Z M 72.269531 72.257812 " clip-rule="nonzero"/></clipPath><clipPath id="a496d162df"><path d="M 72.269531 72.257812 L 222.847656 30.738281 L 296.976562 299.597656 L 146.394531 341.117188 Z M 72.269531 72.257812 " clip-rule="nonzero"/></clipPath><clipPath id="e71308546c"><path d="M 72.269531 72.257812 L 222.847656 30.738281 L 296.976562 299.597656 L 146.394531 341.117188 Z M 72.269531 72.257812 " clip-rule="nonzero"/></clipPath><clipPath id="a6acea5a1e"><path d="M 159.167969 150.640625 L 268 150.640625 L 268 208.957031 L 159.167969 208.957031 Z M 159.167969 150.640625 " clip-rule="nonzero"/></clipPath><clipPath id="8d48561e81"><path d="M 72.269531 72.257812 L 222.847656 30.738281 L 296.976562 299.597656 L 146.394531 341.117188 Z M 72.269531 72.257812 " clip-rule="nonzero"/></clipPath><clipPath id="94d188f3df"><path d="M 72.269531 72.257812 L 222.847656 30.738281 L 296.976562 299.597656 L 146.394531 341.117188 Z M 72.269531 72.257812 " clip-rule="nonzero"/></clipPath><clipPath id="8e207b7d39"><path d="M 72.269531 72.257812 L 222.847656 30.738281 L 296.976562 299.597656 L 146.394531 341.117188 Z M 72.269531 72.257812 " clip-rule="nonzero"/></clipPath><clipPath id="989fdd8450"><path d="M 134 171.089844 L 275.796875 171.089844 L 275.796875 241 L 134 241 Z M 134 171.089844 " clip-rule="nonzero"/></clipPath><clipPath id="98bc4fa35a"><path d="M 72.269531 72.257812 L 222.847656 30.738281 L 296.976562 299.597656 L 146.394531 341.117188 Z M 72.269531 72.257812 " clip-rule="nonzero"/></clipPath><clipPath id="d2eac4556c"><path d="M 72.269531 72.257812 L 222.847656 30.738281 L 296.976562 299.597656 L 146.394531 341.117188 Z M 72.269531 72.257812 " clip-rule="nonzero"/></clipPath><clipPath id="6f2020b6fc"><path d="M 72.269531 72.257812 L 222.847656 30.738281 L 296.976562 299.597656 L 146.394531 341.117188 Z M 72.269531 72.257812 " clip-rule="nonzero"/></clipPath><clipPath id="b86630078c"><path d="M 123.570312 200 L 273 200 L 273 272.574219 L 123.570312 272.574219 Z M 123.570312 200 " clip-rule="nonzero"/></clipPath><clipPath id="2b574e31e3"><path d="M 72.269531 72.257812 L 222.847656 30.738281 L 296.976562 299.597656 L 146.394531 341.117188 Z M 72.269531 72.257812 " clip-rule="nonzero"/></clipPath><clipPath id="36f5e81b67"><path d="M 72.269531 72.257812 L 222.847656 30.738281 L 296.976562 299.597656 L 146.394531 341.117188 Z M 72.269531 72.257812 " clip-rule="nonzero"/></clipPath><clipPath id="0ac425f6c7"><path d="M 72.269531 72.257812 L 222.847656 30.738281 L 296.976562 299.597656 L 146.394531 341.117188 Z M 72.269531 72.257812 " clip-rule="nonzero"/></clipPath><clipPath id="70088287ee"><path d="M 123 236.222656 L 258.378906 236.222656 L 258.378906 300.597656 L 123 300.597656 Z M 123 236.222656 " clip-rule="nonzero"/></clipPath><clipPath id="5253eea660"><path d="M 72.269531 72.257812 L 222.847656 30.738281 L 296.976562 299.597656 L 146.394531 341.117188 Z M 72.269531 72.257812 " clip-rule="nonzero"/></clipPath><clipPath id="1565522ced"><path d="M 72.269531 72.257812 L 222.847656 30.738281 L 296.976562 299.597656 L 146.394531 341.117188 Z M 72.269531 72.257812 " clip-rule="nonzero"/></clipPath><clipPath id="28d9f700e8"><path d="M 72.269531 72.257812 L 222.847656 30.738281 L 296.976562 299.597656 L 146.394531 341.117188 Z M 72.269531 72.257812 " clip-rule="nonzero"/></clipPath><clipPath id="455de96bf0"><path d="M 132 275 L 226.570312 275 L 226.570312 320 L 132 320 Z M 132 275 " clip-rule="nonzero"/></clipPath><clipPath id="fabb3bfde0"><path d="M 72.269531 72.257812 L 222.847656 30.738281 L 296.976562 299.597656 L 146.394531 341.117188 Z M 72.269531 72.257812 " clip-rule="nonzero"/></clipPath><clipPath id="0dc0a5a5b7"><path d="M 72.269531 72.257812 L 222.847656 30.738281 L 296.976562 299.597656 L 146.394531 341.117188 Z M 72.269531 72.257812 " clip-rule="nonzero"/></clipPath><clipPath id="580dcc0f59"><path d="M 72.269531 72.257812 L 222.847656 30.738281 L 296.976562 299.597656 L 146.394531 341.117188 Z M 72.269531 72.257812 " clip-rule="nonzero"/></clipPath><clipPath id="2aeaae6d1c"><path d="M 223 184.722656 L 268 184.722656 L 268 208.957031 L 223 208.957031 Z M 223 184.722656 " clip-rule="nonzero"/></clipPath><clipPath id="2967072c03"><path d="M 72.269531 72.257812 L 222.847656 30.738281 L 296.976562 299.597656 L 146.394531 341.117188 Z M 72.269531 72.257812 " clip-rule="nonzero"/></clipPath><clipPath id="8857f6b6f0"><path d="M 72.269531 72.257812 L 222.847656 30.738281 L 296.976562 299.597656 L 146.394531 341.117188 Z M 72.269531 72.257812 " clip-rule="nonzero"/></clipPath><clipPath id="d2f5b52934"><path d="M 72.269531 72.257812 L 222.847656 30.738281 L 296.976562 299.597656 L 146.394531 341.117188 Z M 72.269531 72.257812 " clip-rule="nonzero"/></clipPath><clipPath id="6de14c40e1"><path d="M 146.292969 159 L 232.628906 159 L 232.628906 299.839844 L 146.292969 299.839844 Z M 146.292969 159 " clip-rule="nonzero"/></clipPath><clipPath id="cda9ef6eeb"><path d="M 72.269531 72.257812 L 222.847656 30.738281 L 296.976562 299.597656 L 146.394531 341.117188 Z M 72.269531 72.257812 " clip-rule="nonzero"/></clipPath><clipPath id="16a5d409af"><path d="M 72.269531 72.257812 L 222.847656 30.738281 L 296.976562 299.597656 L 146.394531 341.117188 Z M 72.269531 72.257812 " clip-rule="nonzero"/></clipPath><clipPath id="1846361409"><path d="M 72.269531 72.257812 L 222.847656 30.738281 L 296.976562 299.597656 L 146.394531 341.117188 Z M 72.269531 72.257812 " clip-rule="nonzero"/></clipPath><clipPath id="865c8c96f3"><path d="M 200.820312 145.339844 L 203.851562 145.339844 L 203.851562 148.371094 L 200.820312 148.371094 Z M 200.820312 145.339844 " clip-rule="nonzero"/></clipPath><clipPath id="9119fd7576"><path d="M 72.269531 72.257812 L 222.847656 30.738281 L 296.976562 299.597656 L 146.394531 341.117188 Z M 72.269531 72.257812 " clip-rule="nonzero"/></clipPath><clipPath id="259c65c052"><path d="M 72.269531 72.257812 L 222.847656 30.738281 L 296.976562 299.597656 L 146.394531 341.117188 Z M 72.269531 72.257812 " clip-rule="nonzero"/></clipPath><clipPath id="32b826be5f"><path d="M 72.269531 72.257812 L 222.847656 30.738281 L 296.976562 299.597656 L 146.394531 341.117188 Z M 72.269531 72.257812 " clip-rule="nonzero"/></clipPath><clipPath id="f6e828ec34"><path d="M 223 217.289062 L 275.796875 217.289062 L 275.796875 241 L 223 241 Z M 223 217.289062 " clip-rule="nonzero"/></clipPath><clipPath id="6895e74480"><path d="M 72.269531 72.257812 L 222.847656 30.738281 L 296.976562 299.597656 L 146.394531 341.117188 Z M 72.269531 72.257812 " clip-rule="nonzero"/></clipPath><clipPath id="abacc67b00"><path d="M 72.269531 72.257812 L 222.847656 30.738281 L 296.976562 299.597656 L 146.394531 341.117188 Z M 72.269531 72.257812 " clip-rule="nonzero"/></clipPath><clipPath id="0a537ae532"><path d="M 72.269531 72.257812 L 222.847656 30.738281 L 296.976562 299.597656 L 146.394531 341.117188 Z M 72.269531 72.257812 " clip-rule="nonzero"/></clipPath><clipPath id="0d81bf2fd9"><path d="M 210 246.066406 L 273 246.066406 L 273 272.574219 L 210 272.574219 Z M 210 246.066406 " clip-rule="nonzero"/></clipPath><clipPath id="2bb3b720d3"><path d="M 72.269531 72.257812 L 222.847656 30.738281 L 296.976562 299.597656 L 146.394531 341.117188 Z M 72.269531 72.257812 " clip-rule="nonzero"/></clipPath><clipPath id="95d7082b02"><path d="M 72.269531 72.257812 L 222.847656 30.738281 L 296.976562 299.597656 L 146.394531 341.117188 Z M 72.269531 72.257812 " clip-rule="nonzero"/></clipPath><clipPath id="88397a28f3"><path d="M 72.269531 72.257812 L 222.847656 30.738281 L 296.976562 299.597656 L 146.394531 341.117188 Z M 72.269531 72.257812 " clip-rule="nonzero"/></clipPath><clipPath id="de074e68d8"><path d="M 184.160156 270.300781 L 258.378906 270.300781 L 258.378906 300.597656 L 184.160156 300.597656 Z M 184.160156 270.300781 " clip-rule="nonzero"/></clipPath><clipPath id="3a8a3232c9"><path d="M 72.269531 72.257812 L 222.847656 30.738281 L 296.976562 299.597656 L 146.394531 341.117188 Z M 72.269531 72.257812 " clip-rule="nonzero"/></clipPath><clipPath id="269cb14b17"><path d="M 72.269531 72.257812 L 222.847656 30.738281 L 296.976562 299.597656 L 146.394531 341.117188 Z M 72.269531 72.257812 " clip-rule="nonzero"/></clipPath><clipPath id="703034b8a4"><path d="M 72.269531 72.257812 L 222.847656 30.738281 L 296.976562 299.597656 L 146.394531 341.117188 Z M 72.269531 72.257812 " clip-rule="nonzero"/></clipPath><clipPath id="256d218201"><path d="M 139 282.417969 L 226.570312 282.417969 L 226.570312 320 L 139 320 Z M 139 282.417969 " clip-rule="nonzero"/></clipPath><clipPath id="cdeaeee4e3"><path d="M 72.269531 72.257812 L 222.847656 30.738281 L 296.976562 299.597656 L 146.394531 341.117188 Z M 72.269531 72.257812 " clip-rule="nonzero"/></clipPath><clipPath id="1da5cfd989"><path d="M 72.269531 72.257812 L 222.847656 30.738281 L 296.976562 299.597656 L 146.394531 341.117188 Z M 72.269531 72.257812 " clip-rule="nonzero"/></clipPath><clipPath id="3bc1737a80"><path d="M 72.269531 72.257812 L 222.847656 30.738281 L 296.976562 299.597656 L 146.394531 341.117188 Z M 72.269531 72.257812 " clip-rule="nonzero"/></clipPath><clipPath id="c4595c083c"><path d="M 142 176 L 166.742188 176 L 166.742188 193 L 142 193 Z M 142 176 " clip-rule="nonzero"/></clipPath><clipPath id="261ecf6678"><path d="M 72.269531 72.257812 L 222.847656 30.738281 L 296.976562 299.597656 L 146.394531 341.117188 Z M 72.269531 72.257812 " clip-rule="nonzero"/></clipPath><clipPath id="8c8bde56d9"><path d="M 72.269531 72.257812 L 222.847656 30.738281 L 296.976562 299.597656 L 146.394531 341.117188 Z M 72.269531 72.257812 " clip-rule="nonzero"/></clipPath><clipPath id="130e6a2eb8"><path d="M 72.269531 72.257812 L 222.847656 30.738281 L 296.976562 299.597656 L 146.394531 341.117188 Z M 72.269531 72.257812 " clip-rule="nonzero"/></clipPath><clipPath id="e0379f46b0"><path d="M 133.417969 165.789062 L 166.742188 165.789062 L 166.742188 218.804688 L 133.417969 218.804688 Z M 133.417969 165.789062 " clip-rule="nonzero"/></clipPath><clipPath id="040acae2f5"><path d="M 72.269531 72.257812 L 222.847656 30.738281 L 296.976562 299.597656 L 146.394531 341.117188 Z M 72.269531 72.257812 " clip-rule="nonzero"/></clipPath><clipPath id="1276889383"><path d="M 72.269531 72.257812 L 222.847656 30.738281 L 296.976562 299.597656 L 146.394531 341.117188 Z M 72.269531 72.257812 " clip-rule="nonzero"/></clipPath><clipPath id="d92a699b97"><path d="M 72.269531 72.257812 L 222.847656 30.738281 L 296.976562 299.597656 L 146.394531 341.117188 Z M 72.269531 72.257812 " clip-rule="nonzero"/></clipPath><clipPath id="7840c75c98"><path d="M 133 205.171875 L 156.894531 205.171875 L 156.894531 222.589844 L 133 222.589844 Z M 133 205.171875 " clip-rule="nonzero"/></clipPath><clipPath id="7f9da43672"><path d="M 72.269531 72.257812 L 222.847656 30.738281 L 296.976562 299.597656 L 146.394531 341.117188 Z M 72.269531 72.257812 " clip-rule="nonzero"/></clipPath><clipPath id="534e84eb4f"><path d="M 72.269531 72.257812 L 222.847656 30.738281 L 296.976562 299.597656 L 146.394531 341.117188 Z M 72.269531 72.257812 " clip-rule="nonzero"/></clipPath><clipPath id="e3f9f9e54f"><path d="M 72.269531 72.257812 L 222.847656 30.738281 L 296.976562 299.597656 L 146.394531 341.117188 Z M 72.269531 72.257812 " clip-rule="nonzero"/></clipPath><clipPath id="21e9884224"><path d="M 119.027344 62.792969 L 135.691406 62.792969 L 135.691406 73.394531 L 119.027344 73.394531 Z M 119.027344 62.792969 " clip-rule="nonzero"/></clipPath><clipPath id="eb0096ed81"><path d="M 72.269531 72.257812 L 222.847656 30.738281 L 296.976562 299.597656 L 146.394531 341.117188 Z M 72.269531 72.257812 " clip-rule="nonzero"/></clipPath><clipPath id="1b08e95a36"><path d="M 72.269531 72.257812 L 222.847656 30.738281 L 296.976562 299.597656 L 146.394531 341.117188 Z M 72.269531 72.257812 " clip-rule="nonzero"/></clipPath><clipPath id="ac58b2117e"><path d="M 72.269531 72.257812 L 222.847656 30.738281 L 296.976562 299.597656 L 146.394531 341.117188 Z M 72.269531 72.257812 " clip-rule="nonzero"/></clipPath><clipPath id="71a7275785"><path d="M 110 98.386719 L 127 98.386719 L 127 108 L 110 108 Z M 110 98.386719 " clip-rule="nonzero"/></clipPath><clipPath id="955ad0cfe9"><path d="M 72.269531 72.257812 L 222.847656 30.738281 L 296.976562 299.597656 L 146.394531 341.117188 Z M 72.269531 72.257812 " clip-rule="nonzero"/></clipPath><clipPath id="129fa5b849"><path d="M 72.269531 72.257812 L 222.847656 30.738281 L 296.976562 299.597656 L 146.394531 341.117188 Z M 72.269531 72.257812 " clip-rule="nonzero"/></clipPath><clipPath id="ee5125c1cb"><path d="M 72.269531 72.257812 L 222.847656 30.738281 L 296.976562 299.597656 L 146.394531 341.117188 Z M 72.269531 72.257812 " clip-rule="nonzero"/></clipPath><clipPath id="1160abefec"><path d="M 98.578125 128 L 119.785156 128 L 119.785156 140 L 98.578125 140 Z M 98.578125 128 " clip-rule="nonzero"/></clipPath><clipPath id="42abf0590b"><path d="M 72.269531 72.257812 L 222.847656 30.738281 L 296.976562 299.597656 L 146.394531 341.117188 Z M 72.269531 72.257812 " clip-rule="nonzero"/></clipPath><clipPath id="94bce6065f"><path d="M 72.269531 72.257812 L 222.847656 30.738281 L 296.976562 299.597656 L 146.394531 341.117188 Z M 72.269531 72.257812 " clip-rule="nonzero"/></clipPath><clipPath id="da674fe97f"><path d="M 72.269531 72.257812 L 222.847656 30.738281 L 296.976562 299.597656 L 146.394531 341.117188 Z M 72.269531 72.257812 " clip-rule="nonzero"/></clipPath><clipPath id="a6de13a93e"><path d="M 193.246094 92.328125 L 215 92.328125 L 215 102.929688 L 193.246094 102.929688 Z M 193.246094 92.328125 " clip-rule="nonzero"/></clipPath><clipPath id="9808131cc1"><path d="M 72.269531 72.257812 L 222.847656 30.738281 L 296.976562 299.597656 L 146.394531 341.117188 Z M 72.269531 72.257812 " clip-rule="nonzero"/></clipPath><clipPath id="7160f2b974"><path d="M 72.269531 72.257812 L 222.847656 30.738281 L 296.976562 299.597656 L 146.394531 341.117188 Z M 72.269531 72.257812 " clip-rule="nonzero"/></clipPath><clipPath id="3c765c3a85"><path d="M 72.269531 72.257812 L 222.847656 30.738281 L 296.976562 299.597656 L 146.394531 341.117188 Z M 72.269531 72.257812 " clip-rule="nonzero"/></clipPath><clipPath id="814fb0ba1c"><path d="M 169.011719 66.578125 L 185.675781 66.578125 L 185.675781 78.695312 L 169.011719 78.695312 Z M 169.011719 66.578125 " clip-rule="nonzero"/></clipPath><clipPath id="138a6c8a82"><path d="M 72.269531 72.257812 L 222.847656 30.738281 L 296.976562 299.597656 L 146.394531 341.117188 Z M 72.269531 72.257812 " clip-rule="nonzero"/></clipPath><clipPath id="6d98f04fbe"><path d="M 72.269531 72.257812 L 222.847656 30.738281 L 296.976562 299.597656 L 146.394531 341.117188 Z M 72.269531 72.257812 " clip-rule="nonzero"/></clipPath><clipPath id="5b3d7f037f"><path d="M 72.269531 72.257812 L 222.847656 30.738281 L 296.976562 299.597656 L 146.394531 341.117188 Z M 72.269531 72.257812 " clip-rule="nonzero"/></clipPath></defs><g clip-path="url(#3f2a8d1595)"><g clip-path="url(#93d276b45a)"><path fill="url(#ead8518231)" d="M 1.585938 0 L 1.585938 374.730469 L 373.414062 374.730469 L 373.414062 0 Z M 1.585938 0 " fill-rule="nonzero"/></g></g><g clip-path="url(#a0345cb398)"><g clip-path="url(#c57db6fa23)"><path stroke-linecap="butt" transform="matrix(1.198323, 0, 0, 1.198323, 1.590836, -0.000000000000042633)" fill="none" stroke-linejoin="miter" d="M 15.020158 0.000000000000035577 L 295.255426 0.000000000000035577 C 299.238856 0.000000000000035577 303.059298 1.580985 305.875733 4.400679 C 308.692168 7.217114 310.273153 11.037556 310.273153 15.020986 L 310.273153 297.903181 C 310.273153 301.886611 308.692168 305.707053 305.875733 308.523488 C 303.059298 311.339923 299.238856 312.920908 295.255426 312.920908 L 15.020158 312.920908 C 11.036728 312.920908 7.216287 311.339923 4.399852 308.523488 C 1.583417 305.707053 -0.000827688 301.886611 -0.000827688 297.903181 L -0.000827688 15.020986 C -0.000827688 11.037556 1.583417 7.217114 4.399852 4.400679 C 7.216287 1.580985 11.036728 0.000000000000035577 15.020158 0.000000000000035577 Z M 15.020158 0.000000000000035577 " stroke="#ff6600" stroke-width="11.265739" stroke-opacity="1" stroke-miterlimit="4"/></g></g><g clip-path="url(#d3586d1a0a)"><g clip-path="url(#9ecb5d9051)"><g clip-path="url(#6da34b1bbb)"><g clip-path="url(#6950db0e13)"><path fill="#8fc924" d="M 166.210938 78.53125 C 163.839844 72.5625 159.707031 67.304688 154.464844 63.589844 C 149.777344 60.265625 144.238281 58.183594 138.542969 57.417969 C 132.84375 56.660156 126.988281 57.203125 121.476562 58.839844 C 120.328125 59.1875 119.183594 59.585938 118.171875 60.230469 C 117.160156 60.878906 116.292969 61.8125 115.925781 62.953125 C 115.671875 63.742188 115.667969 64.609375 115.878906 65.414062 C 116.09375 66.214844 116.523438 66.949219 117.085938 67.558594 C 117.898438 68.4375 118.972656 69.035156 120.070312 69.507812 C 121.167969 69.984375 122.316406 70.351562 123.394531 70.867188 C 125.992188 72.09375 128.160156 74.117188 129.851562 76.4375 C 131.546875 78.761719 132.785156 81.382812 133.835938 84.058594 C 135.507812 88.308594 136.726562 92.742188 137.472656 97.25 L 152.390625 101.128906 L 164.4375 88.910156 L 166.21875 78.53125 L 166.210938 78.53125 " fill-opacity="1" fill-rule="nonzero"/></g></g></g></g><g clip-path="url(#898c6c89e9)"><g clip-path="url(#54b06e61c9)"><g clip-path="url(#b5a75ce396)"><g clip-path="url(#75f71ad96f)"><path fill="#7dad2a" d="M 147.707031 59.921875 C 149.160156 61.308594 150.503906 62.820312 151.6875 64.441406 C 153.433594 66.824219 154.910156 69.554688 155.039062 72.5 C 155.128906 74.582031 154.539062 76.652344 153.582031 78.5 C 152.625 80.351562 151.308594 82 149.902344 83.539062 C 148.410156 85.164062 146.765625 86.707031 144.785156 87.675781 C 142.785156 88.652344 140.496094 89.003906 138.300781 88.667969 C 137.203125 88.503906 136.128906 88.164062 135.132812 87.679688 C 136.152344 90.800781 136.945312 94 137.472656 97.246094 L 152.390625 101.128906 L 164.4375 88.910156 L 166.222656 78.53125 C 163.847656 72.5625 159.71875 67.304688 154.472656 63.589844 C 152.378906 62.101562 150.089844 60.902344 147.710938 59.917969 L 147.707031 59.921875 " fill-opacity="1" fill-rule="nonzero"/></g></g></g></g><g clip-path="url(#8b6aa1b29c)"><g clip-path="url(#85e923c32a)"><g clip-path="url(#873795a947)"><g clip-path="url(#0b27c642da)"><path fill="#8fc924" d="M 151.34375 101.941406 C 151.164062 95.589844 152.917969 89.195312 156.304688 83.816406 C 160.167969 77.691406 166 73.03125 172.214844 69.3125 C 175.765625 67.191406 179.472656 65.339844 183.296875 63.769531 C 184.226562 63.386719 185.167969 63.023438 186.15625 62.855469 C 187.148438 62.695312 188.195312 62.738281 189.101562 63.160156 C 189.871094 63.519531 190.507812 64.132812 190.949219 64.851562 C 191.386719 65.578125 191.632812 66.410156 191.71875 67.253906 C 191.867188 68.632812 191.601562 70.019531 191.191406 71.347656 C 190.78125 72.667969 190.226562 73.945312 189.773438 75.253906 C 188.078125 80.175781 187.863281 85.523438 188.554688 90.683594 C 189.101562 94.769531 190.210938 98.773438 191.832031 102.558594 L 175.929688 118.6875 L 163.730469 118.773438 L 151.339844 101.941406 L 151.34375 101.941406 " fill-opacity="1" fill-rule="nonzero"/></g></g></g></g><g clip-path="url(#6facf2ffd0)"><g clip-path="url(#d14ef70190)"><g clip-path="url(#fabd87c586)"><g clip-path="url(#1e7aea0862)"><path fill="#7dad2a" d="M 190.878906 64.765625 C 190.839844 65.300781 190.746094 65.828125 190.542969 66.316406 C 190.058594 67.507812 189.144531 68.453125 188.378906 69.484375 C 186.613281 71.84375 185.632812 74.691406 184.8125 77.523438 C 183.613281 81.695312 182.699219 85.941406 181.6875 90.160156 C 180.902344 93.425781 179.996094 96.78125 177.871094 99.378906 C 177.296875 100.085938 176.625 100.734375 175.824219 101.179688 C 175.023438 101.617188 174.082031 101.847656 173.179688 101.691406 C 172.441406 101.570312 171.765625 101.199219 171.167969 100.742188 C 170.574219 100.289062 170.054688 99.746094 169.523438 99.21875 C 165.046875 94.785156 159.546875 91.4375 153.59375 89.378906 C 152.050781 93.378906 151.222656 97.65625 151.34375 101.941406 L 163.742188 118.769531 L 175.9375 118.679688 L 191.835938 102.550781 C 190.214844 98.765625 189.113281 94.761719 188.5625 90.683594 C 187.871094 85.519531 188.085938 80.171875 189.78125 75.246094 C 190.230469 73.9375 190.785156 72.667969 191.191406 71.339844 C 191.605469 70.019531 191.867188 68.625 191.722656 67.25 C 191.640625 66.398438 191.402344 65.570312 190.953125 64.851562 C 190.941406 64.8125 190.894531 64.796875 190.871094 64.761719 L 190.878906 64.765625 " fill-opacity="1" fill-rule="nonzero"/></g></g></g></g><g clip-path="url(#c0cdf168d7)"><g clip-path="url(#e17d22a74a)"><g clip-path="url(#35c3a1a45f)"><g clip-path="url(#7009ceef16)"><path fill="#8fc924" d="M 176.414062 119.359375 C 172.410156 112.25 166.824219 106.042969 160.171875 101.316406 C 150.28125 94.28125 138.035156 90.621094 125.902344 91.058594 C 119.238281 91.292969 112.515625 92.78125 106.789062 96.203125 C 106.027344 96.660156 105.265625 97.160156 104.710938 97.863281 C 104.4375 98.210938 104.21875 98.609375 104.09375 99.035156 C 103.972656 99.464844 103.949219 99.925781 104.0625 100.355469 C 104.15625 100.71875 104.335938 101.050781 104.578125 101.339844 C 104.8125 101.625 105.101562 101.867188 105.417969 102.070312 C 106.046875 102.46875 106.761719 102.707031 107.472656 102.933594 C 110 103.757812 112.539062 104.570312 114.976562 105.644531 C 118.480469 107.179688 121.761719 109.25 124.589844 111.824219 C 129.402344 116.210938 132.851562 122.078125 134.332031 128.417969 L 150.714844 137.722656 L 163.351562 141.011719 L 174.496094 140.925781 L 176.414062 119.359375 " fill-opacity="1" fill-rule="nonzero"/></g></g></g></g><g clip-path="url(#47e171e0c5)"><g clip-path="url(#d28ae19152)"><g clip-path="url(#45015978a5)"><g clip-path="url(#e1645f05d6)"><path fill="#7dad2a" d="M 129.8125 117.980469 C 131.910156 121.167969 133.46875 124.707031 134.335938 128.421875 L 150.71875 137.71875 L 163.355469 141.007812 L 174.496094 140.925781 L 176.414062 119.359375 C 174.832031 116.546875 172.9375 113.933594 170.890625 111.441406 C 170.574219 112.082031 170.21875 112.703125 169.933594 113.359375 C 168.710938 116.191406 167.789062 119.199219 166 121.707031 C 165.328125 122.640625 164.535156 123.496094 163.601562 124.160156 C 162.664062 124.820312 161.574219 125.28125 160.433594 125.394531 C 158.878906 125.550781 157.335938 125.054688 155.875 124.5 C 152.210938 123.101562 148.710938 121.285156 144.996094 120.011719 C 140.136719 118.34375 134.945312 117.695312 129.8125 117.980469 " fill-opacity="1" fill-rule="nonzero"/></g></g></g></g><g clip-path="url(#1ce529c2b1)"><g clip-path="url(#0cec32df35)"><g clip-path="url(#90bed59a2a)"><g clip-path="url(#4e29126bc0)"><path fill="#8fc924" d="M 166.460938 143.691406 C 166.640625 132.75 170.09375 121.878906 176.257812 112.835938 C 180.796875 106.175781 186.804688 100.488281 193.808594 96.5 C 198.171875 94.011719 202.9375 92.183594 207.898438 91.441406 C 210.9375 90.988281 214.046875 90.949219 217.066406 91.492188 C 218.515625 91.757812 220.003906 92.1875 221.0625 93.207031 C 221.699219 93.828125 222.152344 94.648438 222.3125 95.523438 C 222.472656 96.402344 222.347656 97.332031 221.945312 98.125 C 221.546875 98.917969 220.890625 99.554688 220.179688 100.085938 C 219.46875 100.621094 218.699219 101.066406 217.96875 101.566406 C 213.714844 104.503906 211.15625 109.339844 209.488281 114.226562 C 207.179688 121.019531 206.28125 128.21875 205.9375 135.386719 C 205.683594 140.671875 205.722656 145.980469 206.050781 151.265625 L 169.328125 151.53125 L 166.460938 143.691406 " fill-opacity="1" fill-rule="nonzero"/></g></g></g></g><g clip-path="url(#8e33d0d267)"><g clip-path="url(#83c1f2d6f2)"><g clip-path="url(#b882c16c72)"><g clip-path="url(#93b3affc85)"><path fill="#8fc924" d="M 173.996094 149.78125 C 169.570312 140.964844 162.226562 133.648438 153.398438 129.246094 C 142.714844 123.921875 130.167969 122.949219 118.453125 125.277344 C 111.257812 126.707031 104.203125 129.394531 98.445312 133.945312 C 97.03125 135.066406 95.691406 136.304688 94.625 137.757812 C 93.5625 139.21875 92.777344 140.910156 92.5625 142.703125 C 92.414062 143.949219 92.558594 145.277344 93.234375 146.332031 C 93.695312 147.054688 94.382812 147.613281 95.148438 147.984375 C 95.914062 148.355469 96.761719 148.550781 97.617188 148.617188 C 99.316406 148.757812 101.015625 148.417969 102.710938 148.203125 C 108.363281 147.472656 114.195312 148.167969 119.519531 150.203125 C 124.871094 152.246094 129.636719 155.589844 133.984375 159.320312 C 137.0625 161.96875 139.960938 164.824219 142.652344 167.867188 L 173.996094 149.78125 " fill-opacity="1" fill-rule="nonzero"/></g></g></g></g><g clip-path="url(#c4a5ad4071)"><g clip-path="url(#832219fe32)"><g clip-path="url(#c8b1af9d41)"><g clip-path="url(#48d75193b2)"><path fill="#7dad2a" d="M 216.398438 102.804688 C 214.671875 103.828125 213.039062 105.003906 211.527344 106.324219 C 207.425781 109.917969 204.261719 114.53125 202.164062 119.5625 C 200.523438 123.492188 199.464844 127.769531 196.84375 131.125 C 195.066406 133.390625 192.636719 135.121094 189.960938 136.195312 C 187.335938 137.25 184.492188 137.660156 181.667969 137.800781 C 179.25 137.902344 176.734375 137.769531 174.558594 136.695312 C 172.878906 135.871094 171.488281 134.519531 170.464844 132.949219 C 169.65625 131.707031 169.085938 130.316406 168.75 128.871094 C 167.351562 133.6875 166.546875 138.671875 166.460938 143.6875 L 169.328125 151.53125 L 206.054688 151.265625 C 205.726562 145.980469 205.683594 140.671875 205.9375 135.382812 C 206.28125 128.21875 207.179688 121.019531 209.488281 114.226562 C 210.941406 109.972656 213.070312 105.761719 216.398438 102.804688 " fill-opacity="1" fill-rule="nonzero"/></g></g></g></g><g clip-path="url(#973537a50f)"><g clip-path="url(#bc98a4fced)"><g clip-path="url(#cd16e2f737)"><g clip-path="url(#486083489c)"><path fill="#7dad2a" d="M 112.039062 147.40625 C 111.355469 147.59375 110.6875 147.851562 110.011719 148.089844 C 113.257812 148.363281 116.472656 149.035156 119.515625 150.195312 C 124.867188 152.238281 129.640625 155.582031 133.984375 159.3125 C 137.066406 161.960938 139.960938 164.820312 142.652344 167.863281 L 173.992188 149.78125 C 171.058594 143.9375 166.820312 138.769531 161.738281 134.660156 C 162.136719 136.800781 161.949219 139.0625 161.113281 141.078125 C 160.304688 143.015625 158.964844 144.699219 157.414062 146.117188 C 155.855469 147.53125 154.085938 148.6875 152.28125 149.761719 C 150.355469 150.910156 148.359375 151.972656 146.234375 152.667969 C 144.097656 153.347656 141.804688 153.65625 139.601562 153.257812 C 136.277344 152.652344 133.460938 150.546875 130.421875 149.054688 C 124.777344 146.28125 118.105469 145.746094 112.039062 147.402344 L 112.039062 147.40625 " fill-opacity="1" fill-rule="nonzero"/></g></g></g></g><g clip-path="url(#23cde91f60)"><g clip-path="url(#5c93c30c17)"><g clip-path="url(#5e39cdaa5d)"><g clip-path="url(#5bd0a3fbcd)"><path fill="#f3c90d" d="M 170.738281 148.144531 C 180.875 145.136719 191.710938 144.023438 202.082031 146.070312 C 217.386719 149.09375 230.636719 158.738281 241.507812 169.921875 C 259.925781 188.871094 273.132812 213.5625 275.347656 239.894531 C 276.292969 251.183594 275.222656 262.695312 271.707031 273.460938 C 268.191406 284.234375 262.199219 294.253906 254.011719 302.085938 C 243.886719 311.773438 230.605469 317.902344 216.800781 320.324219 C 203.28125 322.695312 189.128906 321.578125 176.21875 316.910156 C 163.304688 312.238281 151.679688 304 143.164062 293.234375 C 129.664062 276.15625 124.582031 253.859375 123.035156 232.148438 C 122.238281 220.960938 122.28125 209.636719 124.472656 198.632812 C 126.65625 187.632812 131.070312 176.925781 138.296875 168.347656 C 146.621094 158.464844 158.351562 151.8125 170.738281 148.144531 " fill-opacity="1" fill-rule="nonzero"/></g></g></g></g><g clip-path="url(#2b53fbb8ad)"><g clip-path="url(#54add773a3)"><g clip-path="url(#f425c95b74)"><g clip-path="url(#a50954cbcd)"><path fill="#f6e051" d="M 133.15625 204.921875 C 133.519531 197.371094 135.835938 189.984375 139.390625 183.316406 C 142.660156 177.179688 147.125 171.484375 153.128906 167.980469 C 155.152344 166.792969 157.367188 165.863281 159.699219 165.605469 C 162.035156 165.351562 164.5 165.820312 166.390625 167.210938 C 167.871094 168.296875 168.9375 169.898438 169.519531 171.640625 C 170.109375 173.378906 170.234375 175.257812 170.058594 177.085938 C 169.703125 180.742188 168.183594 184.167969 166.878906 187.605469 C 163.753906 195.839844 161.796875 204.46875 159.085938 212.851562 C 158.363281 215.070312 157.585938 217.285156 156.488281 219.34375 C 155.390625 221.402344 153.953125 223.316406 152.089844 224.722656 C 150.226562 226.128906 147.945312 227 145.613281 227.097656 C 143.285156 227.199219 140.910156 226.515625 139.042969 225.113281 C 137.46875 223.929688 136.289062 222.28125 135.464844 220.496094 C 134.640625 218.707031 134.15625 216.78125 133.8125 214.84375 C 133.222656 211.574219 133.003906 208.238281 133.160156 204.917969 L 133.15625 204.921875 " fill-opacity="1" fill-rule="nonzero"/></g></g></g></g><g clip-path="url(#22ca3f50fb)"><g clip-path="url(#29c0cc7ba1)"><g clip-path="url(#c422fb7a83)"><g clip-path="url(#48d3a99ec6)"><path fill="#f4af0d" d="M 200.988281 145.894531 C 207.820312 152.378906 213.523438 160.050781 217.652344 168.519531 C 223.863281 181.257812 226.554688 195.695312 225.335938 209.816406 C 224.152344 223.570312 219.277344 236.988281 211.398438 248.320312 C 203.511719 259.65625 192.648438 268.886719 180.210938 274.882812 C 166.570312 281.457031 151.070312 283.980469 136.019531 282.355469 C 138.089844 286.15625 140.449219 289.808594 143.160156 293.234375 C 151.675781 304.003906 163.308594 312.234375 176.222656 316.90625 C 189.132812 321.574219 203.277344 322.699219 216.800781 320.324219 C 230.605469 317.90625 243.882812 311.777344 254.007812 302.085938 C 262.199219 294.25 268.1875 284.230469 271.703125 273.460938 C 275.21875 262.691406 276.292969 251.183594 275.34375 239.894531 C 273.128906 213.558594 259.925781 188.875 241.503906 169.921875 C 230.632812 158.738281 217.382812 149.089844 202.074219 146.070312 C 201.714844 145.996094 201.351562 145.960938 200.988281 145.894531 " fill-opacity="1" fill-rule="nonzero"/></g></g></g></g><g clip-path="url(#fc9718d953)"><g clip-path="url(#615e2a8392)"><g clip-path="url(#5268a563a1)"><g clip-path="url(#774aabf570)"><path fill="#f8e774" d="M 172.492188 147.667969 C 164.292969 164.796875 155.0625 181.433594 144.742188 197.375 C 137.886719 207.964844 130.574219 218.246094 122.839844 228.207031 C 122.914062 229.519531 122.941406 230.835938 123.035156 232.144531 C 123.070312 232.570312 123.121094 232.996094 123.15625 233.421875 C 131.847656 222.425781 140.058594 211.054688 147.679688 199.285156 C 158.597656 182.425781 168.320312 164.777344 176.882812 146.601562 C 175.40625 146.910156 173.945312 147.269531 172.496094 147.667969 L 172.492188 147.667969 " fill-opacity="1" fill-rule="nonzero"/></g></g></g></g><g clip-path="url(#9fdfdee1aa)"><g clip-path="url(#c9c808674f)"><g clip-path="url(#6a7ff63e4b)"><g clip-path="url(#b05386c10a)"><path fill="#f8e774" d="M 200.320312 145.785156 C 196.351562 160.738281 191.089844 175.347656 184.480469 189.332031 C 170.960938 217.921875 152.027344 243.914062 129.035156 265.621094 C 129.40625 266.839844 129.851562 268.035156 130.273438 269.234375 C 154.109375 247.015625 173.722656 220.28125 187.648438 190.816406 C 194.378906 176.585938 199.808594 161.738281 203.835938 146.519531 C 203.246094 146.378906 202.671875 146.1875 202.074219 146.070312 C 201.492188 145.953125 200.902344 145.882812 200.316406 145.789062 L 200.320312 145.785156 " fill-opacity="1" fill-rule="nonzero"/></g></g></g></g><g clip-path="url(#4bbee17a13)"><g clip-path="url(#973916ffef)"><g clip-path="url(#ddb0325f6e)"><g clip-path="url(#608a6f97a7)"><path fill="#f8e774" d="M 229.527344 159.234375 C 223.417969 178.257812 215.691406 196.761719 206.460938 214.484375 C 190.675781 244.796875 170.460938 272.785156 146.6875 297.332031 C 147.480469 298.191406 148.308594 299.011719 149.140625 299.828125 C 173.179688 275.023438 193.628906 246.722656 209.582031 216.085938 C 218.707031 198.574219 226.339844 180.304688 232.441406 161.53125 C 231.488281 160.738281 230.507812 159.984375 229.527344 159.234375 " fill-opacity="1" fill-rule="nonzero"/></g></g></g></g><g clip-path="url(#75a04073e5)"><g clip-path="url(#2da02b9e34)"><g clip-path="url(#3dd250ae1b)"><g clip-path="url(#6e76aa2cf4)"><path fill="#f5dc3f" d="M 254.167969 185.039062 C 245.261719 203.753906 235.445312 222.046875 224.730469 239.785156 C 208.832031 266.109375 190.992188 291.261719 171.40625 314.976562 C 172.519531 315.46875 173.65625 315.898438 174.796875 316.335938 C 194.214844 292.742188 211.9375 267.765625 227.734375 241.601562 C 238.164062 224.339844 247.742188 206.558594 256.46875 188.367188 C 255.714844 187.246094 254.953125 186.136719 254.167969 185.039062 " fill-opacity="1" fill-rule="nonzero"/></g></g></g></g><g clip-path="url(#0270f6a21c)"><g clip-path="url(#fddb2dde79)"><g clip-path="url(#a496d162df)"><g clip-path="url(#e71308546c)"><path fill="#f5dc3f" d="M 270.210938 215.769531 C 262.511719 231.296875 254.179688 246.511719 245.226562 261.34375 C 232.648438 282.171875 218.832031 302.25 203.925781 321.480469 C 205.449219 321.457031 206.972656 321.40625 208.492188 321.296875 C 222.796875 302.679688 236.089844 283.28125 248.230469 263.175781 C 256.617188 249.292969 264.441406 235.066406 271.734375 220.570312 C 271.246094 218.964844 270.753906 217.359375 270.210938 215.769531 " fill-opacity="1" fill-rule="nonzero"/></g></g></g></g><g clip-path="url(#a6acea5a1e)"><g clip-path="url(#8d48561e81)"><g clip-path="url(#94d188f3df)"><g clip-path="url(#8e207b7d39)"><path fill="#f8e774" d="M 163.496094 150.703125 C 162.195312 151.226562 160.914062 151.796875 159.640625 152.394531 C 175.226562 162.5625 191.257812 172.046875 207.671875 180.792969 C 227.101562 191.140625 247.082031 200.445312 267.492188 208.699219 C 266.828125 207.140625 266.136719 205.597656 265.40625 204.066406 C 246.296875 196.191406 227.5625 187.398438 209.316406 177.679688 C 193.671875 169.34375 178.382812 160.332031 163.496094 150.703125 " fill-opacity="1" fill-rule="nonzero"/></g></g></g></g><g clip-path="url(#989fdd8450)"><g clip-path="url(#98bc4fa35a)"><g clip-path="url(#d2eac4556c)"><g clip-path="url(#6f2020b6fc)"><path fill="#f8e774" d="M 136.148438 171.101562 C 135.449219 172.046875 134.796875 173.023438 134.15625 174.007812 C 156.527344 188.246094 179.808594 201.089844 203.789062 212.398438 C 227.046875 223.363281 250.984375 232.871094 275.402344 240.910156 C 275.378906 240.574219 275.371094 240.230469 275.34375 239.894531 C 275.269531 238.960938 275.148438 238.039062 275.039062 237.113281 C 251.261719 229.203125 227.945312 219.902344 205.28125 209.214844 C 181.464844 197.984375 158.367188 185.230469 136.148438 171.101562 " fill-opacity="1" fill-rule="nonzero"/></g></g></g></g><g clip-path="url(#b86630078c)"><g clip-path="url(#2b574e31e3)"><g clip-path="url(#36f5e81b67)"><g clip-path="url(#0ac425f6c7)"><path fill="#f8e774" d="M 124.183594 200.261719 C 123.960938 201.523438 123.757812 202.785156 123.585938 204.054688 C 145.3125 217.761719 167.898438 230.152344 191.132812 241.105469 C 217.3125 253.453125 244.34375 263.941406 271.96875 272.570312 C 272.316406 271.460938 272.660156 270.355469 272.953125 269.230469 C 245.503906 260.644531 218.636719 250.183594 192.621094 237.917969 C 169.054688 226.808594 146.1875 214.21875 124.183594 200.261719 " fill-opacity="1" fill-rule="nonzero"/></g></g></g></g><g clip-path="url(#70088287ee)"><g clip-path="url(#5253eea660)"><g clip-path="url(#1565522ced)"><g clip-path="url(#28d9f700e8)"><path fill="#f8e774" d="M 123.480469 236.921875 C 123.621094 238.375 123.753906 239.824219 123.929688 241.277344 C 141.183594 251.527344 158.921875 260.976562 177.066406 269.53125 C 202.5625 281.554688 228.863281 291.820312 255.738281 300.316406 C 256.625 299.398438 257.488281 298.453125 258.320312 297.480469 C 231.066406 288.925781 204.394531 278.53125 178.558594 266.351562 C 159.726562 257.46875 141.335938 247.632812 123.480469 236.921875 " fill-opacity="1" fill-rule="nonzero"/></g></g></g></g><g clip-path="url(#455de96bf0)"><g clip-path="url(#fabb3bfde0)"><g clip-path="url(#0dc0a5a5b7)"><g clip-path="url(#580dcc0f59)"><path fill="#f8e774" d="M 132.460938 275.011719 C 133.25 276.847656 134.101562 278.652344 135.007812 280.425781 C 146.636719 286.839844 158.464844 292.902344 170.472656 298.5625 C 186.828125 306.277344 203.515625 313.28125 220.476562 319.554688 C 222.480469 319.097656 224.476562 318.589844 226.441406 317.976562 C 207.945312 311.289062 189.75 303.777344 171.960938 295.386719 C 158.5625 289.066406 145.382812 282.269531 132.464844 275.015625 L 132.460938 275.011719 " fill-opacity="1" fill-rule="nonzero"/></g></g></g></g><g clip-path="url(#2aeaae6d1c)"><g clip-path="url(#2967072c03)"><g clip-path="url(#8857f6b6f0)"><g clip-path="url(#d2f5b52934)"><path fill="#f5dc3f" d="M 223.46875 184.976562 C 223.808594 186.425781 224.125 187.875 224.386719 189.339844 C 238.507812 196.320312 252.878906 202.785156 267.480469 208.695312 C 267.457031 208.621094 267.398438 208.542969 267.375 208.460938 C 266.753906 207 266.101562 205.542969 265.421875 204.101562 C 265.417969 204.105469 265.414062 204.066406 265.414062 204.066406 C 251.207031 198.214844 237.210938 191.847656 223.46875 184.980469 L 223.46875 184.976562 " fill-opacity="1" fill-rule="nonzero"/></g></g></g></g><g clip-path="url(#6de14c40e1)"><g clip-path="url(#cda9ef6eeb)"><g clip-path="url(#16a5d409af)"><g clip-path="url(#1846361409)"><path fill="#f5dc3f" d="M 161.367188 281.140625 C 156.628906 286.675781 151.753906 292.097656 146.6875 297.332031 C 147.480469 298.191406 148.308594 299.011719 149.140625 299.828125 C 155.402344 293.367188 161.40625 286.660156 167.167969 279.738281 C 165.246094 280.269531 163.316406 280.75 161.367188 281.140625 Z M 229.527344 159.234375 C 227.285156 166.203125 224.761719 173.074219 222.09375 179.890625 C 222.664062 181.769531 223.175781 183.667969 223.605469 185.582031 C 226.820312 177.667969 229.804688 169.652344 232.445312 161.53125 C 231.492188 160.738281 230.507812 159.984375 229.527344 159.234375 " fill-opacity="1" fill-rule="nonzero"/></g></g></g></g><g clip-path="url(#865c8c96f3)"><g clip-path="url(#9119fd7576)"><g clip-path="url(#259c65c052)"><g clip-path="url(#32b826be5f)"><path fill="#f5dc3f" d="M 200.988281 145.894531 C 201.796875 146.667969 202.539062 147.507812 203.316406 148.3125 C 203.484375 147.710938 203.679688 147.121094 203.835938 146.519531 C 203.246094 146.378906 202.671875 146.1875 202.074219 146.070312 C 201.714844 145.996094 201.351562 145.960938 200.988281 145.894531 " fill-opacity="1" fill-rule="nonzero"/></g></g></g></g><g clip-path="url(#f6e828ec34)"><g clip-path="url(#6895e74480)"><g clip-path="url(#abacc67b00)"><g clip-path="url(#0a537ae532)"><path fill="#f5dc3f" d="M 224.199219 217.71875 C 223.976562 218.894531 223.742188 220.0625 223.464844 221.230469 C 240.484375 228.539062 257.8125 235.117188 275.402344 240.910156 C 275.378906 240.574219 275.371094 240.230469 275.34375 239.894531 C 275.269531 238.960938 275.148438 238.039062 275.039062 237.113281 C 257.824219 231.386719 240.859375 224.90625 224.199219 217.71875 " fill-opacity="1" fill-rule="nonzero"/></g></g></g></g><g clip-path="url(#0d81bf2fd9)"><g clip-path="url(#2bb3b720d3)"><g clip-path="url(#95d7082b02)"><g clip-path="url(#88397a28f3)"><path fill="#f5dc3f" d="M 212.375 246.8125 C 212.039062 247.3125 211.738281 247.832031 211.398438 248.320312 C 211.058594 248.8125 210.679688 249.277344 210.324219 249.757812 C 230.457031 258.429688 251.042969 266.035156 271.96875 272.570312 C 272.296875 271.515625 272.625 270.457031 272.90625 269.386719 C 272.929688 269.324219 272.929688 269.28125 272.941406 269.226562 C 252.386719 262.792969 232.160156 255.316406 212.367188 246.8125 L 212.375 246.8125 " fill-opacity="1" fill-rule="nonzero"/></g></g></g></g><g clip-path="url(#de074e68d8)"><g clip-path="url(#3a8a3232c9)"><g clip-path="url(#269cb14b17)"><g clip-path="url(#703034b8a4)"><path fill="#f5dc3f" d="M 187.847656 270.628906 C 186.640625 271.382812 185.425781 272.125 184.175781 272.8125 C 207.449219 283.425781 231.351562 292.605469 255.738281 300.320312 C 256.617188 299.414062 257.464844 298.476562 258.289062 297.519531 L 258.316406 297.46875 C 234.316406 289.933594 210.769531 280.96875 187.84375 270.617188 L 187.847656 270.628906 " fill-opacity="1" fill-rule="nonzero"/></g></g></g></g><g clip-path="url(#256d218201)"><g clip-path="url(#cdeaeee4e3)"><g clip-path="url(#1da5cfd989)"><g clip-path="url(#3bc1737a80)"><path fill="#f5dc3f" d="M 139.050781 282.574219 C 149.382812 288.175781 159.839844 293.550781 170.472656 298.5625 C 186.828125 306.277344 203.515625 313.28125 220.476562 319.554688 C 222.480469 319.097656 224.476562 318.589844 226.441406 317.976562 C 207.945312 311.289062 189.75 303.777344 171.960938 295.386719 C 163.480469 291.386719 155.097656 287.175781 146.800781 282.796875 C 144.21875 282.855469 141.628906 282.761719 139.050781 282.578125 L 139.050781 282.574219 " fill-opacity="1" fill-rule="nonzero"/></g></g></g></g><g clip-path="url(#c4595c083c)"><g clip-path="url(#261ecf6678)"><g clip-path="url(#8c8bde56d9)"><g clip-path="url(#130e6a2eb8)"><path fill="#fdf8ca" d="M 144.1875 176.039062 C 143.457031 176.964844 142.707031 177.875 142.054688 178.855469 C 149.675781 183.550781 157.378906 188.117188 165.195312 192.484375 C 165.5625 191.351562 165.960938 190.226562 166.363281 189.101562 C 158.878906 184.90625 151.492188 180.535156 144.1875 176.039062 " fill-opacity="1" fill-rule="nonzero"/></g></g></g></g><g clip-path="url(#e0379f46b0)"><g clip-path="url(#040acae2f5)"><g clip-path="url(#1276889383)"><g clip-path="url(#d92a699b97)"><path fill="#fdf8ca" d="M 163.257812 165.808594 C 157.511719 176.574219 151.375 187.132812 144.738281 197.371094 C 141.171875 202.886719 137.46875 208.308594 133.660156 213.65625 C 133.714844 214.054688 133.730469 214.453125 133.804688 214.851562 C 134.011719 216 134.296875 217.128906 134.644531 218.242188 C 139.148438 212.035156 143.503906 205.722656 147.675781 199.285156 C 154.398438 188.902344 160.617188 178.191406 166.441406 167.269531 C 166.433594 167.230469 166.390625 167.226562 166.386719 167.214844 C 165.453125 166.53125 164.382812 166.070312 163.257812 165.808594 " fill-opacity="1" fill-rule="nonzero"/></g></g></g></g><g clip-path="url(#7840c75c98)"><g clip-path="url(#7f9da43672)"><g clip-path="url(#534e84eb4f)"><g clip-path="url(#e3f9f9e54f)"><path fill="#fdf8ca" d="M 133.167969 205.765625 C 133.128906 207.148438 133.117188 208.539062 133.203125 209.917969 C 140.238281 214.183594 147.335938 218.339844 154.53125 222.324219 C 155.269531 221.414062 155.90625 220.417969 156.457031 219.386719 C 148.589844 215.027344 140.84375 210.457031 133.167969 205.765625 " fill-opacity="1" fill-rule="nonzero"/></g></g></g></g><g clip-path="url(#21e9884224)"><g clip-path="url(#eb0096ed81)"><g clip-path="url(#1b08e95a36)"><g clip-path="url(#ac58b2117e)"><path fill="#b6df4e" d="M 124.664062 67.90625 C 123.339844 67.398438 121.878906 67.207031 120.660156 66.484375 C 120.347656 66.296875 120.054688 66.078125 119.828125 65.789062 C 119.601562 65.507812 119.453125 65.152344 119.453125 64.789062 C 119.457031 64.511719 119.546875 64.230469 119.695312 63.992188 C 119.851562 63.753906 120.0625 63.558594 120.296875 63.410156 C 120.769531 63.105469 121.339844 62.980469 121.898438 62.914062 C 123.914062 62.667969 125.96875 63.050781 127.851562 63.792969 C 129.914062 64.613281 131.789062 65.855469 133.4375 67.335938 C 134.027344 67.863281 134.59375 68.429688 134.980469 69.117188 C 135.179688 69.460938 135.316406 69.835938 135.386719 70.226562 C 135.453125 70.609375 135.433594 71.019531 135.332031 71.398438 C 135.132812 72.101562 134.585938 72.691406 133.914062 72.984375 C 133.242188 73.277344 132.457031 73.277344 131.769531 73.015625 C 130.960938 72.710938 130.324219 72.078125 129.699219 71.476562 C 128.203125 70.046875 126.601562 68.644531 124.667969 67.902344 L 124.664062 67.90625 " fill-opacity="1" fill-rule="nonzero"/></g></g></g></g><g clip-path="url(#71a7275785)"><g clip-path="url(#955ad0cfe9)"><g clip-path="url(#129fa5b849)"><g clip-path="url(#ee5125c1cb)"><path fill="#b6df4e" d="M 115.753906 103.375 C 114.375 103.03125 112.90625 103.019531 111.609375 102.445312 C 111.273438 102.300781 110.957031 102.113281 110.695312 101.859375 C 110.4375 101.601562 110.246094 101.265625 110.203125 100.910156 C 110.175781 100.625 110.230469 100.339844 110.351562 100.089844 C 110.472656 99.835938 110.660156 99.617188 110.878906 99.433594 C 111.308594 99.074219 111.859375 98.890625 112.40625 98.753906 C 114.375 98.265625 116.464844 98.398438 118.425781 98.914062 C 120.570312 99.476562 122.582031 100.484375 124.394531 101.753906 C 125.042969 102.203125 125.671875 102.699219 126.136719 103.339844 C 126.375 103.65625 126.558594 104.011719 126.671875 104.386719 C 126.789062 104.765625 126.820312 105.167969 126.765625 105.558594 C 126.648438 106.28125 126.179688 106.9375 125.546875 107.304688 C 124.914062 107.675781 124.132812 107.769531 123.417969 107.59375 C 122.578125 107.386719 121.875 106.839844 121.179688 106.316406 C 119.523438 105.070312 117.765625 103.875 115.753906 103.375 " fill-opacity="1" fill-rule="nonzero"/></g></g></g></g><g clip-path="url(#1160abefec)"><g clip-path="url(#42abf0590b)"><g clip-path="url(#94bce6065f)"><g clip-path="url(#da674fe97f)"><path fill="#b6df4e" d="M 101.921875 134.039062 C 104.117188 132.453125 106.496094 131.132812 109 130.101562 C 110.839844 129.34375 112.742188 128.753906 114.675781 128.296875 C 115.3125 128.148438 115.957031 128.015625 116.609375 128.039062 C 117.261719 128.0625 117.925781 128.265625 118.402344 128.714844 C 118.695312 128.996094 118.910156 129.363281 119.015625 129.761719 C 119.121094 130.160156 119.117188 130.578125 119.03125 130.976562 C 118.851562 131.777344 118.3125 132.46875 117.640625 132.933594 C 116.921875 133.433594 116.070312 133.691406 115.234375 133.957031 C 111.769531 135.074219 108.390625 136.492188 105.261719 138.355469 C 104.707031 138.683594 104.160156 139.023438 103.578125 139.296875 C 102.996094 139.570312 102.371094 139.777344 101.726562 139.804688 C 101.085938 139.839844 100.417969 139.691406 99.890625 139.316406 C 99.628906 139.125 99.398438 138.882812 99.238281 138.601562 C 99.078125 138.324219 98.976562 138.003906 98.976562 137.679688 C 98.96875 137.292969 99.082031 136.914062 99.261719 136.574219 C 99.441406 136.230469 99.683594 135.933594 99.945312 135.648438 C 100.519531 135.019531 101.1875 134.472656 101.925781 134.039062 L 101.921875 134.039062 " fill-opacity="1" fill-rule="nonzero"/></g></g></g></g><g clip-path="url(#a6de13a93e)"><g clip-path="url(#9808131cc1)"><g clip-path="url(#7160f2b974)"><g clip-path="url(#3c765c3a85)"><path fill="#b6df4e" d="M 209.15625 92.996094 C 206.550781 93.347656 203.988281 93.972656 201.515625 94.855469 C 199.648438 95.523438 197.828125 96.34375 196.078125 97.289062 C 195.503906 97.601562 194.933594 97.925781 194.464844 98.382812 C 193.992188 98.835938 193.632812 99.425781 193.574219 100.078125 C 193.542969 100.488281 193.632812 100.902344 193.820312 101.265625 C 194 101.632812 194.285156 101.945312 194.613281 102.183594 C 195.28125 102.660156 196.140625 102.816406 196.957031 102.71875 C 197.824219 102.617188 198.632812 102.238281 199.429688 101.882812 C 202.757812 100.40625 206.226562 99.21875 209.800781 98.519531 C 210.433594 98.394531 211.066406 98.289062 211.683594 98.101562 C 212.300781 97.914062 212.902344 97.660156 213.398438 97.253906 C 213.90625 96.847656 214.304688 96.292969 214.445312 95.660156 C 214.519531 95.34375 214.53125 95.011719 214.460938 94.695312 C 214.390625 94.382812 214.242188 94.082031 214.035156 93.832031 C 213.789062 93.539062 213.449219 93.335938 213.09375 93.199219 C 212.726562 93.0625 212.347656 93 211.964844 92.960938 C 211.359375 92.898438 210.746094 92.894531 210.140625 92.925781 C 209.808594 92.941406 209.480469 92.964844 209.152344 92.996094 L 209.15625 92.996094 " fill-opacity="1" fill-rule="nonzero"/></g></g></g></g><g clip-path="url(#814fb0ba1c)"><g clip-path="url(#138a6c8a82)"><g clip-path="url(#6d98f04fbe)"><g clip-path="url(#5b3d7f037f)"><path fill="#b6df4e" d="M 180.144531 72.140625 C 181.421875 71.515625 182.851562 71.191406 184.003906 70.359375 C 184.296875 70.144531 184.570312 69.898438 184.769531 69.59375 C 184.96875 69.289062 185.085938 68.921875 185.054688 68.558594 C 185.019531 68.28125 184.910156 68.011719 184.738281 67.792969 C 184.5625 67.570312 184.335938 67.390625 184.085938 67.265625 C 183.585938 67.003906 183.007812 66.933594 182.445312 66.914062 C 180.421875 66.851562 178.40625 67.421875 176.59375 68.339844 C 174.617188 69.339844 172.863281 70.746094 171.355469 72.367188 C 170.816406 72.945312 170.304688 73.566406 169.984375 74.285156 C 169.820312 74.644531 169.714844 75.03125 169.683594 75.421875 C 169.648438 75.816406 169.703125 76.21875 169.839844 76.589844 C 170.101562 77.273438 170.703125 77.8125 171.398438 78.042969 C 172.09375 78.269531 172.875 78.199219 173.539062 77.871094 C 174.3125 77.492188 174.890625 76.8125 175.457031 76.15625 C 176.816406 74.59375 178.285156 73.054688 180.144531 72.140625 " fill-opacity="1" fill-rule="nonzero"/></g></g></g></g></svg>