<svg xmlns="http://www.w3.org/2000/svg" xmlns:xlink="http://www.w3.org/1999/xlink" width="500" zoomAndPan="magnify" viewBox="0 0 375 374.999991" height="500" preserveAspectRatio="xMidYMid meet" version="1.0"><defs><clipPath id="d57a10d834"><path d="M 2.15625 0 L 372.84375 0 L 372.84375 374.996094 L 2.15625 374.996094 Z M 2.15625 0 " clip-rule="nonzero"/></clipPath><clipPath id="b1612e0dd5"><path d="M 39.65625 0 L 335.34375 0 C 345.289062 0 354.828125 3.949219 361.859375 10.984375 C 368.894531 18.015625 372.84375 27.554688 372.84375 37.5 L 372.84375 337.5 C 372.84375 347.445312 368.894531 356.984375 361.859375 364.015625 C 354.828125 371.050781 345.289062 375 335.34375 375 L 39.65625 375 C 29.710938 375 20.171875 371.050781 13.136719 364.015625 C 6.105469 356.984375 2.15625 347.445312 2.15625 337.5 L 2.15625 37.5 C 2.15625 27.554688 6.105469 18.015625 13.136719 10.984375 C 20.171875 3.949219 29.710938 0 39.65625 0 Z M 39.65625 0 " clip-rule="nonzero"/></clipPath><linearGradient x1="0.0000000236195" gradientTransform="matrix(1.448006, 0, 0, 1.448006, 2.155177, -0.00595)" y1="129.488007" x2="255.999987" gradientUnits="userSpaceOnUse" y2="129.488007" id="b1d8bebc62"><stop stop-opacity="1" stop-color="rgb(99.998474%, 39.99939%, 59.999084%)" offset="0"/><stop stop-opacity="1" stop-color="rgb(99.978638%, 40.089417%, 60.144043%)" offset="0.0078125"/><stop stop-opacity="1" stop-color="rgb(99.938965%, 40.26947%, 60.435486%)" offset="0.015625"/><stop stop-opacity="1" stop-color="rgb(99.899292%, 40.449524%, 60.726929%)" offset="0.0234375"/><stop stop-opacity="1" stop-color="rgb(99.859619%, 40.631104%, 61.018372%)" offset="0.03125"/><stop stop-opacity="1" stop-color="rgb(99.819946%, 40.811157%, 61.309814%)" offset="0.0390625"/><stop stop-opacity="1" stop-color="rgb(99.780273%, 40.991211%, 61.601257%)" offset="0.046875"/><stop stop-opacity="1" stop-color="rgb(99.740601%, 41.172791%, 61.8927%)" offset="0.0546875"/><stop stop-opacity="1" stop-color="rgb(99.700928%, 41.352844%, 62.184143%)" offset="0.0625"/><stop stop-opacity="1" stop-color="rgb(99.659729%, 41.532898%, 62.475586%)" offset="0.0703125"/><stop stop-opacity="1" stop-color="rgb(99.620056%, 41.712952%, 62.767029%)" offset="0.078125"/><stop stop-opacity="1" stop-color="rgb(99.580383%, 41.894531%, 63.058472%)" offset="0.0859375"/><stop stop-opacity="1" stop-color="rgb(99.54071%, 42.074585%, 63.349915%)" offset="0.09375"/><stop stop-opacity="1" stop-color="rgb(99.501038%, 42.254639%, 63.641357%)" offset="0.101562"/><stop stop-opacity="1" stop-color="rgb(99.461365%, 42.434692%, 63.9328%)" offset="0.109375"/><stop stop-opacity="1" stop-color="rgb(99.421692%, 42.616272%, 64.224243%)" offset="0.117188"/><stop stop-opacity="1" stop-color="rgb(99.382019%, 42.796326%, 64.515686%)" offset="0.125"/><stop stop-opacity="1" stop-color="rgb(99.342346%, 42.976379%, 64.807129%)" offset="0.132812"/><stop stop-opacity="1" stop-color="rgb(99.301147%, 43.157959%, 65.098572%)" offset="0.140625"/><stop stop-opacity="1" stop-color="rgb(99.261475%, 43.338013%, 65.390015%)" offset="0.148437"/><stop stop-opacity="1" stop-color="rgb(99.221802%, 43.518066%, 65.681458%)" offset="0.15625"/><stop stop-opacity="1" stop-color="rgb(99.182129%, 43.69812%, 65.9729%)" offset="0.164062"/><stop stop-opacity="1" stop-color="rgb(99.142456%, 43.8797%, 66.264343%)" offset="0.171875"/><stop stop-opacity="1" stop-color="rgb(99.102783%, 44.059753%, 66.555786%)" offset="0.179688"/><stop stop-opacity="1" stop-color="rgb(99.06311%, 44.239807%, 66.847229%)" offset="0.1875"/><stop stop-opacity="1" stop-color="rgb(99.023438%, 44.419861%, 67.138672%)" offset="0.195312"/><stop stop-opacity="1" stop-color="rgb(98.983765%, 44.60144%, 67.428589%)" offset="0.203125"/><stop stop-opacity="1" stop-color="rgb(98.942566%, 44.781494%, 67.720032%)" offset="0.210937"/><stop stop-opacity="1" stop-color="rgb(98.902893%, 44.961548%, 68.011475%)" offset="0.21875"/><stop stop-opacity="1" stop-color="rgb(98.86322%, 45.143127%, 68.302917%)" offset="0.226562"/><stop stop-opacity="1" stop-color="rgb(98.823547%, 45.323181%, 68.59436%)" offset="0.234375"/><stop stop-opacity="1" stop-color="rgb(98.783875%, 45.503235%, 68.885803%)" offset="0.242187"/><stop stop-opacity="1" stop-color="rgb(98.744202%, 45.683289%, 69.177246%)" offset="0.25"/><stop stop-opacity="1" stop-color="rgb(98.704529%, 45.864868%, 69.468689%)" offset="0.257812"/><stop stop-opacity="1" stop-color="rgb(98.664856%, 46.044922%, 69.760132%)" offset="0.265625"/><stop stop-opacity="1" stop-color="rgb(98.625183%, 46.224976%, 70.051575%)" offset="0.273437"/><stop stop-opacity="1" stop-color="rgb(98.583984%, 46.405029%, 70.343018%)" offset="0.28125"/><stop stop-opacity="1" stop-color="rgb(98.544312%, 46.586609%, 70.63446%)" offset="0.289062"/><stop stop-opacity="1" stop-color="rgb(98.504639%, 46.766663%, 70.925903%)" offset="0.296875"/><stop stop-opacity="1" stop-color="rgb(98.464966%, 46.946716%, 71.217346%)" offset="0.304687"/><stop stop-opacity="1" stop-color="rgb(98.425293%, 47.128296%, 71.508789%)" offset="0.3125"/><stop stop-opacity="1" stop-color="rgb(98.38562%, 47.30835%, 71.800232%)" offset="0.320312"/><stop stop-opacity="1" stop-color="rgb(98.345947%, 47.488403%, 72.091675%)" offset="0.328125"/><stop stop-opacity="1" stop-color="rgb(98.306274%, 47.668457%, 72.383118%)" offset="0.335938"/><stop stop-opacity="1" stop-color="rgb(98.266602%, 47.850037%, 72.674561%)" offset="0.34375"/><stop stop-opacity="1" stop-color="rgb(98.225403%, 48.03009%, 72.966003%)" offset="0.351562"/><stop stop-opacity="1" stop-color="rgb(98.18573%, 48.210144%, 73.257446%)" offset="0.359375"/><stop stop-opacity="1" stop-color="rgb(98.146057%, 48.390198%, 73.548889%)" offset="0.367187"/><stop stop-opacity="1" stop-color="rgb(98.106384%, 48.571777%, 73.840332%)" offset="0.375"/><stop stop-opacity="1" stop-color="rgb(98.066711%, 48.751831%, 74.131775%)" offset="0.382812"/><stop stop-opacity="1" stop-color="rgb(98.027039%, 48.931885%, 74.423218%)" offset="0.390625"/><stop stop-opacity="1" stop-color="rgb(97.987366%, 49.111938%, 74.714661%)" offset="0.398437"/><stop stop-opacity="1" stop-color="rgb(97.947693%, 49.293518%, 75.006104%)" offset="0.40625"/><stop stop-opacity="1" stop-color="rgb(97.90802%, 49.473572%, 75.297546%)" offset="0.414062"/><stop stop-opacity="1" stop-color="rgb(97.866821%, 49.653625%, 75.588989%)" offset="0.421875"/><stop stop-opacity="1" stop-color="rgb(97.827148%, 49.835205%, 75.880432%)" offset="0.429688"/><stop stop-opacity="1" stop-color="rgb(97.787476%, 50.015259%, 76.171875%)" offset="0.4375"/><stop stop-opacity="1" stop-color="rgb(97.747803%, 50.195312%, 76.463318%)" offset="0.445312"/><stop stop-opacity="1" stop-color="rgb(97.70813%, 50.375366%, 76.754761%)" offset="0.453125"/><stop stop-opacity="1" stop-color="rgb(97.668457%, 50.556946%, 77.046204%)" offset="0.460937"/><stop stop-opacity="1" stop-color="rgb(97.628784%, 50.737%, 77.337646%)" offset="0.46875"/><stop stop-opacity="1" stop-color="rgb(97.589111%, 50.917053%, 77.629089%)" offset="0.476562"/><stop stop-opacity="1" stop-color="rgb(97.549438%, 51.097107%, 77.920532%)" offset="0.484375"/><stop stop-opacity="1" stop-color="rgb(97.50824%, 51.278687%, 78.211975%)" offset="0.492187"/><stop stop-opacity="1" stop-color="rgb(97.468567%, 51.45874%, 78.503418%)" offset="0.5"/><stop stop-opacity="1" stop-color="rgb(97.428894%, 51.638794%, 78.794861%)" offset="0.507812"/><stop stop-opacity="1" stop-color="rgb(97.389221%, 51.820374%, 79.086304%)" offset="0.515625"/><stop stop-opacity="1" stop-color="rgb(97.349548%, 52.000427%, 79.377747%)" offset="0.523438"/><stop stop-opacity="1" stop-color="rgb(97.309875%, 52.180481%, 79.667664%)" offset="0.53125"/><stop stop-opacity="1" stop-color="rgb(97.270203%, 52.360535%, 79.959106%)" offset="0.539062"/><stop stop-opacity="1" stop-color="rgb(97.23053%, 52.542114%, 80.250549%)" offset="0.546875"/><stop stop-opacity="1" stop-color="rgb(97.190857%, 52.722168%, 80.541992%)" offset="0.554688"/><stop stop-opacity="1" stop-color="rgb(97.149658%, 52.902222%, 80.833435%)" offset="0.5625"/><stop stop-opacity="1" stop-color="rgb(97.109985%, 53.082275%, 81.124878%)" offset="0.570312"/><stop stop-opacity="1" stop-color="rgb(97.070312%, 53.263855%, 81.416321%)" offset="0.578125"/><stop stop-opacity="1" stop-color="rgb(97.03064%, 53.443909%, 81.707764%)" offset="0.585938"/><stop stop-opacity="1" stop-color="rgb(96.990967%, 53.623962%, 81.999207%)" offset="0.59375"/><stop stop-opacity="1" stop-color="rgb(96.951294%, 53.805542%, 82.290649%)" offset="0.601562"/><stop stop-opacity="1" stop-color="rgb(96.911621%, 53.985596%, 82.582092%)" offset="0.609375"/><stop stop-opacity="1" stop-color="rgb(96.871948%, 54.165649%, 82.873535%)" offset="0.617188"/><stop stop-opacity="1" stop-color="rgb(96.832275%, 54.345703%, 83.164978%)" offset="0.625"/><stop stop-opacity="1" stop-color="rgb(96.791077%, 54.527283%, 83.456421%)" offset="0.632812"/><stop stop-opacity="1" stop-color="rgb(96.751404%, 54.707336%, 83.747864%)" offset="0.640625"/><stop stop-opacity="1" stop-color="rgb(96.711731%, 54.88739%, 84.039307%)" offset="0.648438"/><stop stop-opacity="1" stop-color="rgb(96.672058%, 55.067444%, 84.33075%)" offset="0.65625"/><stop stop-opacity="1" stop-color="rgb(96.632385%, 55.249023%, 84.622192%)" offset="0.664063"/><stop stop-opacity="1" stop-color="rgb(96.592712%, 55.429077%, 84.913635%)" offset="0.671875"/><stop stop-opacity="1" stop-color="rgb(96.55304%, 55.609131%, 85.205078%)" offset="0.679688"/><stop stop-opacity="1" stop-color="rgb(96.513367%, 55.79071%, 85.496521%)" offset="0.6875"/><stop stop-opacity="1" stop-color="rgb(96.473694%, 55.970764%, 85.787964%)" offset="0.695312"/><stop stop-opacity="1" stop-color="rgb(96.432495%, 56.150818%, 86.079407%)" offset="0.703125"/><stop stop-opacity="1" stop-color="rgb(96.392822%, 56.330872%, 86.37085%)" offset="0.710938"/><stop stop-opacity="1" stop-color="rgb(96.353149%, 56.512451%, 86.662292%)" offset="0.71875"/><stop stop-opacity="1" stop-color="rgb(96.313477%, 56.692505%, 86.953735%)" offset="0.726562"/><stop stop-opacity="1" stop-color="rgb(96.273804%, 56.872559%, 87.245178%)" offset="0.734375"/><stop stop-opacity="1" stop-color="rgb(96.234131%, 57.052612%, 87.536621%)" offset="0.742188"/><stop stop-opacity="1" stop-color="rgb(96.194458%, 57.234192%, 87.828064%)" offset="0.75"/><stop stop-opacity="1" stop-color="rgb(96.154785%, 57.414246%, 88.119507%)" offset="0.757812"/><stop stop-opacity="1" stop-color="rgb(96.115112%, 57.594299%, 88.41095%)" offset="0.765625"/><stop stop-opacity="1" stop-color="rgb(96.073914%, 57.775879%, 88.702393%)" offset="0.773437"/><stop stop-opacity="1" stop-color="rgb(96.034241%, 57.955933%, 88.993835%)" offset="0.78125"/><stop stop-opacity="1" stop-color="rgb(95.994568%, 58.135986%, 89.285278%)" offset="0.789062"/><stop stop-opacity="1" stop-color="rgb(95.954895%, 58.31604%, 89.576721%)" offset="0.796875"/><stop stop-opacity="1" stop-color="rgb(95.915222%, 58.49762%, 89.868164%)" offset="0.804688"/><stop stop-opacity="1" stop-color="rgb(95.875549%, 58.677673%, 90.159607%)" offset="0.8125"/><stop stop-opacity="1" stop-color="rgb(95.835876%, 58.857727%, 90.45105%)" offset="0.820312"/><stop stop-opacity="1" stop-color="rgb(95.796204%, 59.037781%, 90.742493%)" offset="0.828125"/><stop stop-opacity="1" stop-color="rgb(95.756531%, 59.21936%, 91.033936%)" offset="0.835938"/><stop stop-opacity="1" stop-color="rgb(95.715332%, 59.399414%, 91.325378%)" offset="0.84375"/><stop stop-opacity="1" stop-color="rgb(95.675659%, 59.579468%, 91.616821%)" offset="0.851563"/><stop stop-opacity="1" stop-color="rgb(95.635986%, 59.761047%, 91.906738%)" offset="0.859375"/><stop stop-opacity="1" stop-color="rgb(95.596313%, 59.941101%, 92.198181%)" offset="0.867188"/><stop stop-opacity="1" stop-color="rgb(95.556641%, 60.121155%, 92.489624%)" offset="0.875"/><stop stop-opacity="1" stop-color="rgb(95.516968%, 60.301208%, 92.781067%)" offset="0.882812"/><stop stop-opacity="1" stop-color="rgb(95.477295%, 60.482788%, 93.07251%)" offset="0.890625"/><stop stop-opacity="1" stop-color="rgb(95.437622%, 60.662842%, 93.363953%)" offset="0.898438"/><stop stop-opacity="1" stop-color="rgb(95.397949%, 60.842896%, 93.655396%)" offset="0.90625"/><stop stop-opacity="1" stop-color="rgb(95.35675%, 61.022949%, 93.946838%)" offset="0.914062"/><stop stop-opacity="1" stop-color="rgb(95.317078%, 61.204529%, 94.238281%)" offset="0.921875"/><stop stop-opacity="1" stop-color="rgb(95.277405%, 61.384583%, 94.529724%)" offset="0.929688"/><stop stop-opacity="1" stop-color="rgb(95.237732%, 61.564636%, 94.821167%)" offset="0.9375"/><stop stop-opacity="1" stop-color="rgb(95.198059%, 61.746216%, 95.11261%)" offset="0.945312"/><stop stop-opacity="1" stop-color="rgb(95.158386%, 61.92627%, 95.404053%)" offset="0.953125"/><stop stop-opacity="1" stop-color="rgb(95.118713%, 62.106323%, 95.695496%)" offset="0.960937"/><stop stop-opacity="1" stop-color="rgb(95.079041%, 62.286377%, 95.986938%)" offset="0.96875"/><stop stop-opacity="1" stop-color="rgb(95.039368%, 62.467957%, 96.278381%)" offset="0.976562"/><stop stop-opacity="1" stop-color="rgb(94.998169%, 62.64801%, 96.569824%)" offset="0.984375"/><stop stop-opacity="1" stop-color="rgb(94.958496%, 62.828064%, 96.861267%)" offset="0.992188"/><stop stop-opacity="1" stop-color="rgb(94.918823%, 63.008118%, 97.15271%)" offset="1"/></linearGradient><clipPath id="438a60324d"><path d="M 2.164062 0 L 373 0 L 373 374.726562 L 2.164062 374.726562 Z M 2.164062 0 " clip-rule="nonzero"/></clipPath><clipPath id="818f67ed85"><path d="M 39.660156 0 L 335.335938 0 C 345.28125 0 354.820312 3.949219 361.851562 10.984375 C 368.882812 18.015625 372.835938 27.554688 372.835938 37.5 L 372.835938 337.484375 C 372.835938 347.429688 368.882812 356.964844 361.851562 364 C 354.820312 371.03125 345.28125 374.980469 335.335938 374.980469 L 39.660156 374.980469 C 29.714844 374.980469 20.179688 371.03125 13.144531 364 C 6.113281 356.964844 2.164062 347.429688 2.164062 337.484375 L 2.164062 37.5 C 2.164062 27.554688 6.113281 18.015625 13.144531 10.984375 C 20.179688 3.949219 29.714844 0 39.660156 0 Z M 39.660156 0 " clip-rule="nonzero"/></clipPath><clipPath id="302624fbff"><path d="M 148 55 L 210.816406 55 L 210.816406 159.898438 L 148 159.898438 Z M 148 55 " clip-rule="nonzero"/></clipPath><clipPath id="0b41d6f1f1"><path d="M 146.34375 15.109375 L 339.484375 95.277344 L 229.34375 360.636719 L 36.199219 280.46875 Z M 146.34375 15.109375 " clip-rule="nonzero"/></clipPath><clipPath id="e6c4431d49"><path d="M 146.34375 15.109375 L 339.484375 95.277344 L 229.34375 360.636719 L 36.199219 280.46875 Z M 146.34375 15.109375 " clip-rule="nonzero"/></clipPath><clipPath id="8a714099fb"><path d="M 146.34375 15.109375 L 339.484375 95.277344 L 229.34375 360.636719 L 36.199219 280.46875 Z M 146.34375 15.109375 " clip-rule="nonzero"/></clipPath><clipPath id="7c6fee836d"><path d="M 149.394531 81 L 210.816406 81 L 210.816406 138 L 149.394531 138 Z M 149.394531 81 " clip-rule="nonzero"/></clipPath><clipPath id="1ee6766530"><path d="M 146.34375 15.109375 L 339.484375 95.277344 L 229.34375 360.636719 L 36.199219 280.46875 Z M 146.34375 15.109375 " clip-rule="nonzero"/></clipPath><clipPath id="8c3dfaff46"><path d="M 146.34375 15.109375 L 339.484375 95.277344 L 229.34375 360.636719 L 36.199219 280.46875 Z M 146.34375 15.109375 " clip-rule="nonzero"/></clipPath><clipPath id="ecdad394cf"><path d="M 146.34375 15.109375 L 339.484375 95.277344 L 229.34375 360.636719 L 36.199219 280.46875 Z M 146.34375 15.109375 " clip-rule="nonzero"/></clipPath><clipPath id="b4ce7c0291"><path d="M 201 106.558594 L 305 106.558594 L 305 169.597656 L 201 169.597656 Z M 201 106.558594 " clip-rule="nonzero"/></clipPath><clipPath id="fb604c4839"><path d="M 146.34375 15.109375 L 339.484375 95.277344 L 229.34375 360.636719 L 36.199219 280.46875 Z M 146.34375 15.109375 " clip-rule="nonzero"/></clipPath><clipPath id="4844f0de6f"><path d="M 146.34375 15.109375 L 339.484375 95.277344 L 229.34375 360.636719 L 36.199219 280.46875 Z M 146.34375 15.109375 " clip-rule="nonzero"/></clipPath><clipPath id="77fc87a480"><path d="M 146.34375 15.109375 L 339.484375 95.277344 L 229.34375 360.636719 L 36.199219 280.46875 Z M 146.34375 15.109375 " clip-rule="nonzero"/></clipPath><clipPath id="d829d68072"><path d="M 227 108.175781 L 305 108.175781 L 305 163 L 227 163 Z M 227 108.175781 " clip-rule="nonzero"/></clipPath><clipPath id="4eef2933b7"><path d="M 146.34375 15.109375 L 339.484375 95.277344 L 229.34375 360.636719 L 36.199219 280.46875 Z M 146.34375 15.109375 " clip-rule="nonzero"/></clipPath><clipPath id="dba2afca04"><path d="M 146.34375 15.109375 L 339.484375 95.277344 L 229.34375 360.636719 L 36.199219 280.46875 Z M 146.34375 15.109375 " clip-rule="nonzero"/></clipPath><clipPath id="9e5fb45418"><path d="M 146.34375 15.109375 L 339.484375 95.277344 L 229.34375 360.636719 L 36.199219 280.46875 Z M 146.34375 15.109375 " clip-rule="nonzero"/></clipPath><clipPath id="a3f5a6932c"><path d="M 191.417969 55.644531 L 254 55.644531 L 254 159.898438 L 191.417969 159.898438 Z M 191.417969 55.644531 " clip-rule="nonzero"/></clipPath><clipPath id="d2774df377"><path d="M 146.34375 15.109375 L 339.484375 95.277344 L 229.34375 360.636719 L 36.199219 280.46875 Z M 146.34375 15.109375 " clip-rule="nonzero"/></clipPath><clipPath id="5dd333aef6"><path d="M 146.34375 15.109375 L 339.484375 95.277344 L 229.34375 360.636719 L 36.199219 280.46875 Z M 146.34375 15.109375 " clip-rule="nonzero"/></clipPath><clipPath id="af09ebbfa2"><path d="M 146.34375 15.109375 L 339.484375 95.277344 L 229.34375 360.636719 L 36.199219 280.46875 Z M 146.34375 15.109375 " clip-rule="nonzero"/></clipPath><clipPath id="0dfbb333a8"><path d="M 191.417969 66.152344 L 254 66.152344 L 254 148.585938 L 191.417969 148.585938 Z M 191.417969 66.152344 " clip-rule="nonzero"/></clipPath><clipPath id="d639694144"><path d="M 146.34375 15.109375 L 339.484375 95.277344 L 229.34375 360.636719 L 36.199219 280.46875 Z M 146.34375 15.109375 " clip-rule="nonzero"/></clipPath><clipPath id="35937abefd"><path d="M 146.34375 15.109375 L 339.484375 95.277344 L 229.34375 360.636719 L 36.199219 280.46875 Z M 146.34375 15.109375 " clip-rule="nonzero"/></clipPath><clipPath id="bd90c7e4c7"><path d="M 146.34375 15.109375 L 339.484375 95.277344 L 229.34375 360.636719 L 36.199219 280.46875 Z M 146.34375 15.109375 " clip-rule="nonzero"/></clipPath><clipPath id="9ec5318f9c"><path d="M 80.699219 108.175781 L 288.402344 108.175781 L 288.402344 324.769531 L 80.699219 324.769531 Z M 80.699219 108.175781 " clip-rule="nonzero"/></clipPath><clipPath id="2fe502164e"><path d="M 146.34375 15.109375 L 339.484375 95.277344 L 229.34375 360.636719 L 36.199219 280.46875 Z M 146.34375 15.109375 " clip-rule="nonzero"/></clipPath><clipPath id="f3ad2af8ab"><path d="M 146.34375 15.109375 L 339.484375 95.277344 L 229.34375 360.636719 L 36.199219 280.46875 Z M 146.34375 15.109375 " clip-rule="nonzero"/></clipPath><clipPath id="abc2871123"><path d="M 146.34375 15.109375 L 339.484375 95.277344 L 229.34375 360.636719 L 36.199219 280.46875 Z M 146.34375 15.109375 " clip-rule="nonzero"/></clipPath><clipPath id="fd5a0b3ddf"><path d="M 98.476562 120.300781 L 163 120.300781 L 163 182 L 98.476562 182 Z M 98.476562 120.300781 " clip-rule="nonzero"/></clipPath><clipPath id="5492b9aedc"><path d="M 146.34375 15.109375 L 339.484375 95.277344 L 229.34375 360.636719 L 36.199219 280.46875 Z M 146.34375 15.109375 " clip-rule="nonzero"/></clipPath><clipPath id="72d1b804d4"><path d="M 146.34375 15.109375 L 339.484375 95.277344 L 229.34375 360.636719 L 36.199219 280.46875 Z M 146.34375 15.109375 " clip-rule="nonzero"/></clipPath><clipPath id="8cfe444366"><path d="M 146.34375 15.109375 L 339.484375 95.277344 L 229.34375 360.636719 L 36.199219 280.46875 Z M 146.34375 15.109375 " clip-rule="nonzero"/></clipPath><clipPath id="27186d6061"><path d="M 81 149.394531 L 288.402344 149.394531 L 288.402344 324.769531 L 81 324.769531 Z M 81 149.394531 " clip-rule="nonzero"/></clipPath><clipPath id="e143e6e9c3"><path d="M 146.34375 15.109375 L 339.484375 95.277344 L 229.34375 360.636719 L 36.199219 280.46875 Z M 146.34375 15.109375 " clip-rule="nonzero"/></clipPath><clipPath id="7d8f3989e0"><path d="M 146.34375 15.109375 L 339.484375 95.277344 L 229.34375 360.636719 L 36.199219 280.46875 Z M 146.34375 15.109375 " clip-rule="nonzero"/></clipPath><clipPath id="04275c0390"><path d="M 146.34375 15.109375 L 339.484375 95.277344 L 229.34375 360.636719 L 36.199219 280.46875 Z M 146.34375 15.109375 " clip-rule="nonzero"/></clipPath><clipPath id="cc12c74510"><path d="M 138.078125 132.421875 L 144.542969 132.421875 L 144.542969 143.734375 L 138.078125 143.734375 Z M 138.078125 132.421875 " clip-rule="nonzero"/></clipPath><clipPath id="7383498ea9"><path d="M 146.34375 15.109375 L 339.484375 95.277344 L 229.34375 360.636719 L 36.199219 280.46875 Z M 146.34375 15.109375 " clip-rule="nonzero"/></clipPath><clipPath id="e480ba8eba"><path d="M 146.34375 15.109375 L 339.484375 95.277344 L 229.34375 360.636719 L 36.199219 280.46875 Z M 146.34375 15.109375 " clip-rule="nonzero"/></clipPath><clipPath id="a73af40823"><path d="M 146.34375 15.109375 L 339.484375 95.277344 L 229.34375 360.636719 L 36.199219 280.46875 Z M 146.34375 15.109375 " clip-rule="nonzero"/></clipPath><clipPath id="710fb7ddd3"><path d="M 256.074219 178 L 265.773438 178 L 265.773438 188.1875 L 256.074219 188.1875 Z M 256.074219 178 " clip-rule="nonzero"/></clipPath><clipPath id="55f00cc5f6"><path d="M 146.34375 15.109375 L 339.484375 95.277344 L 229.34375 360.636719 L 36.199219 280.46875 Z M 146.34375 15.109375 " clip-rule="nonzero"/></clipPath><clipPath id="c06a95f318"><path d="M 146.34375 15.109375 L 339.484375 95.277344 L 229.34375 360.636719 L 36.199219 280.46875 Z M 146.34375 15.109375 " clip-rule="nonzero"/></clipPath><clipPath id="e61eef3af7"><path d="M 146.34375 15.109375 L 339.484375 95.277344 L 229.34375 360.636719 L 36.199219 280.46875 Z M 146.34375 15.109375 " clip-rule="nonzero"/></clipPath><clipPath id="45a356528a"><path d="M 199 136.460938 L 208 136.460938 L 208 146.96875 L 199 146.96875 Z M 199 136.460938 " clip-rule="nonzero"/></clipPath><clipPath id="50a82767e3"><path d="M 146.34375 15.109375 L 339.484375 95.277344 L 229.34375 360.636719 L 36.199219 280.46875 Z M 146.34375 15.109375 " clip-rule="nonzero"/></clipPath><clipPath id="4e8425f891"><path d="M 146.34375 15.109375 L 339.484375 95.277344 L 229.34375 360.636719 L 36.199219 280.46875 Z M 146.34375 15.109375 " clip-rule="nonzero"/></clipPath><clipPath id="8ee7d386d0"><path d="M 146.34375 15.109375 L 339.484375 95.277344 L 229.34375 360.636719 L 36.199219 280.46875 Z M 146.34375 15.109375 " clip-rule="nonzero"/></clipPath><clipPath id="3a544f93d6"><path d="M 160.707031 180.105469 L 167 180.105469 L 167 192 L 160.707031 192 Z M 160.707031 180.105469 " clip-rule="nonzero"/></clipPath><clipPath id="6b4fccd26e"><path d="M 146.34375 15.109375 L 339.484375 95.277344 L 229.34375 360.636719 L 36.199219 280.46875 Z M 146.34375 15.109375 " clip-rule="nonzero"/></clipPath><clipPath id="f916432af7"><path d="M 146.34375 15.109375 L 339.484375 95.277344 L 229.34375 360.636719 L 36.199219 280.46875 Z M 146.34375 15.109375 " clip-rule="nonzero"/></clipPath><clipPath id="35e0186cc4"><path d="M 146.34375 15.109375 L 339.484375 95.277344 L 229.34375 360.636719 L 36.199219 280.46875 Z M 146.34375 15.109375 " clip-rule="nonzero"/></clipPath><clipPath id="5448d513f1"><path d="M 219 204.351562 L 229.402344 204.351562 L 229.402344 214.855469 L 219 214.855469 Z M 219 204.351562 " clip-rule="nonzero"/></clipPath><clipPath id="98d7577967"><path d="M 146.34375 15.109375 L 339.484375 95.277344 L 229.34375 360.636719 L 36.199219 280.46875 Z M 146.34375 15.109375 " clip-rule="nonzero"/></clipPath><clipPath id="27f8433cf1"><path d="M 146.34375 15.109375 L 339.484375 95.277344 L 229.34375 360.636719 L 36.199219 280.46875 Z M 146.34375 15.109375 " clip-rule="nonzero"/></clipPath><clipPath id="8966ec31f0"><path d="M 146.34375 15.109375 L 339.484375 95.277344 L 229.34375 360.636719 L 36.199219 280.46875 Z M 146.34375 15.109375 " clip-rule="nonzero"/></clipPath><clipPath id="e8f7de7635"><path d="M 240 249.609375 L 250.417969 249.609375 L 250.417969 259.304688 L 240 259.304688 Z M 240 249.609375 " clip-rule="nonzero"/></clipPath><clipPath id="1c96f5f270"><path d="M 146.34375 15.109375 L 339.484375 95.277344 L 229.34375 360.636719 L 36.199219 280.46875 Z M 146.34375 15.109375 " clip-rule="nonzero"/></clipPath><clipPath id="5004d8572c"><path d="M 146.34375 15.109375 L 339.484375 95.277344 L 229.34375 360.636719 L 36.199219 280.46875 Z M 146.34375 15.109375 " clip-rule="nonzero"/></clipPath><clipPath id="09e03df507"><path d="M 146.34375 15.109375 L 339.484375 95.277344 L 229.34375 360.636719 L 36.199219 280.46875 Z M 146.34375 15.109375 " clip-rule="nonzero"/></clipPath><clipPath id="ab6d684d8a"><path d="M 173 239.101562 L 183 239.101562 L 183 249.609375 L 173 249.609375 Z M 173 239.101562 " clip-rule="nonzero"/></clipPath><clipPath id="a365011ffe"><path d="M 146.34375 15.109375 L 339.484375 95.277344 L 229.34375 360.636719 L 36.199219 280.46875 Z M 146.34375 15.109375 " clip-rule="nonzero"/></clipPath><clipPath id="40a65b4905"><path d="M 146.34375 15.109375 L 339.484375 95.277344 L 229.34375 360.636719 L 36.199219 280.46875 Z M 146.34375 15.109375 " clip-rule="nonzero"/></clipPath><clipPath id="ad1059f21b"><path d="M 146.34375 15.109375 L 339.484375 95.277344 L 229.34375 360.636719 L 36.199219 280.46875 Z M 146.34375 15.109375 " clip-rule="nonzero"/></clipPath><clipPath id="112278ed50"><path d="M 102 170.40625 L 108.984375 170.40625 L 108.984375 181.722656 L 102 181.722656 Z M 102 170.40625 " clip-rule="nonzero"/></clipPath><clipPath id="8856ae708c"><path d="M 146.34375 15.109375 L 339.484375 95.277344 L 229.34375 360.636719 L 36.199219 280.46875 Z M 146.34375 15.109375 " clip-rule="nonzero"/></clipPath><clipPath id="a4f6ca4f43"><path d="M 146.34375 15.109375 L 339.484375 95.277344 L 229.34375 360.636719 L 36.199219 280.46875 Z M 146.34375 15.109375 " clip-rule="nonzero"/></clipPath><clipPath id="a29fc36165"><path d="M 146.34375 15.109375 L 339.484375 95.277344 L 229.34375 360.636719 L 36.199219 280.46875 Z M 146.34375 15.109375 " clip-rule="nonzero"/></clipPath><clipPath id="e2a77dee8a"><path d="M 117.066406 225.363281 L 123.53125 225.363281 L 123.53125 236.675781 L 117.066406 236.675781 Z M 117.066406 225.363281 " clip-rule="nonzero"/></clipPath><clipPath id="ce2f92ae28"><path d="M 146.34375 15.109375 L 339.484375 95.277344 L 229.34375 360.636719 L 36.199219 280.46875 Z M 146.34375 15.109375 " clip-rule="nonzero"/></clipPath><clipPath id="3a7245acc3"><path d="M 146.34375 15.109375 L 339.484375 95.277344 L 229.34375 360.636719 L 36.199219 280.46875 Z M 146.34375 15.109375 " clip-rule="nonzero"/></clipPath><clipPath id="3137154b04"><path d="M 146.34375 15.109375 L 339.484375 95.277344 L 229.34375 360.636719 L 36.199219 280.46875 Z M 146.34375 15.109375 " clip-rule="nonzero"/></clipPath><clipPath id="f661eed35f"><path d="M 133.230469 283 L 139.695312 283 L 139.695312 294.867188 L 133.230469 294.867188 Z M 133.230469 283 " clip-rule="nonzero"/></clipPath><clipPath id="a4c4596560"><path d="M 146.34375 15.109375 L 339.484375 95.277344 L 229.34375 360.636719 L 36.199219 280.46875 Z M 146.34375 15.109375 " clip-rule="nonzero"/></clipPath><clipPath id="c7ee8e2447"><path d="M 146.34375 15.109375 L 339.484375 95.277344 L 229.34375 360.636719 L 36.199219 280.46875 Z M 146.34375 15.109375 " clip-rule="nonzero"/></clipPath><clipPath id="2ad2e37f4b"><path d="M 146.34375 15.109375 L 339.484375 95.277344 L 229.34375 360.636719 L 36.199219 280.46875 Z M 146.34375 15.109375 " clip-rule="nonzero"/></clipPath><clipPath id="c14898f1eb"><path d="M 192.226562 285.167969 L 201.925781 285.167969 L 201.925781 294.867188 L 192.226562 294.867188 Z M 192.226562 285.167969 " clip-rule="nonzero"/></clipPath><clipPath id="724331e452"><path d="M 146.34375 15.109375 L 339.484375 95.277344 L 229.34375 360.636719 L 36.199219 280.46875 Z M 146.34375 15.109375 " clip-rule="nonzero"/></clipPath><clipPath id="814412be4d"><path d="M 146.34375 15.109375 L 339.484375 95.277344 L 229.34375 360.636719 L 36.199219 280.46875 Z M 146.34375 15.109375 " clip-rule="nonzero"/></clipPath><clipPath id="b109bbac5f"><path d="M 146.34375 15.109375 L 339.484375 95.277344 L 229.34375 360.636719 L 36.199219 280.46875 Z M 146.34375 15.109375 " clip-rule="nonzero"/></clipPath><clipPath id="97e756415e"><path d="M 214 61.300781 L 240.71875 61.300781 L 240.71875 82.3125 L 214 82.3125 Z M 214 61.300781 " clip-rule="nonzero"/></clipPath><clipPath id="ab790a5cf4"><path d="M 146.34375 15.109375 L 339.484375 95.277344 L 229.34375 360.636719 L 36.199219 280.46875 Z M 146.34375 15.109375 " clip-rule="nonzero"/></clipPath><clipPath id="ed1f300158"><path d="M 146.34375 15.109375 L 339.484375 95.277344 L 229.34375 360.636719 L 36.199219 280.46875 Z M 146.34375 15.109375 " clip-rule="nonzero"/></clipPath><clipPath id="575c1d131a"><path d="M 146.34375 15.109375 L 339.484375 95.277344 L 229.34375 360.636719 L 36.199219 280.46875 Z M 146.34375 15.109375 " clip-rule="nonzero"/></clipPath><clipPath id="87052bad1b"><path d="M 152.625 63 L 163 63 L 163 89.589844 L 152.625 89.589844 Z M 152.625 63 " clip-rule="nonzero"/></clipPath><clipPath id="9d3d7e067f"><path d="M 146.34375 15.109375 L 339.484375 95.277344 L 229.34375 360.636719 L 36.199219 280.46875 Z M 146.34375 15.109375 " clip-rule="nonzero"/></clipPath><clipPath id="6f105303cd"><path d="M 146.34375 15.109375 L 339.484375 95.277344 L 229.34375 360.636719 L 36.199219 280.46875 Z M 146.34375 15.109375 " clip-rule="nonzero"/></clipPath><clipPath id="19f8f657c7"><path d="M 146.34375 15.109375 L 339.484375 95.277344 L 229.34375 360.636719 L 36.199219 280.46875 Z M 146.34375 15.109375 " clip-rule="nonzero"/></clipPath><clipPath id="1b5354dd09"><path d="M 270 110.601562 L 296 110.601562 L 296 120.300781 L 270 120.300781 Z M 270 110.601562 " clip-rule="nonzero"/></clipPath><clipPath id="35ea2a04b1"><path d="M 146.34375 15.109375 L 339.484375 95.277344 L 229.34375 360.636719 L 36.199219 280.46875 Z M 146.34375 15.109375 " clip-rule="nonzero"/></clipPath><clipPath id="e8e87ead87"><path d="M 146.34375 15.109375 L 339.484375 95.277344 L 229.34375 360.636719 L 36.199219 280.46875 Z M 146.34375 15.109375 " clip-rule="nonzero"/></clipPath><clipPath id="5023132b60"><path d="M 146.34375 15.109375 L 339.484375 95.277344 L 229.34375 360.636719 L 36.199219 280.46875 Z M 146.34375 15.109375 " clip-rule="nonzero"/></clipPath></defs><g clip-path="url(#d57a10d834)"><g clip-path="url(#b1612e0dd5)"><path fill="url(#b1d8bebc62)" d="M 2.15625 0 L 2.15625 374.996094 L 372.84375 374.996094 L 372.84375 0 Z M 2.15625 0 " fill-rule="nonzero"/></g></g><g clip-path="url(#438a60324d)"><g clip-path="url(#818f67ed85)"><path stroke-linecap="butt" transform="matrix(1.174686, 0, 0, 1.174686, 2.162766, -0)" fill="none" stroke-linejoin="miter" d="M 31.921215 0 L 283.62753 0 C 292.093892 0 300.214416 3.361937 306.20006 9.350906 C 312.185704 15.336551 315.550966 23.457075 315.550966 31.923436 L 315.550966 287.297621 C 315.550966 295.763983 312.185704 303.881181 306.20006 309.870151 C 300.214416 315.855795 292.093892 319.217732 283.62753 319.217732 L 31.921215 319.217732 C 23.454853 319.217732 15.337655 315.855795 9.348685 309.870151 C 3.363041 303.881181 0.00110406 295.763983 0.00110406 287.297621 L 0.00110406 31.923436 C 0.00110406 23.457075 3.363041 15.336551 9.348685 9.350906 C 15.337655 3.361937 23.454853 0 31.921215 0 Z M 31.921215 0 " stroke="#ffcc33" stroke-width="11.492436" stroke-opacity="1" stroke-miterlimit="4"/></g></g><g clip-path="url(#302624fbff)"><g clip-path="url(#0b41d6f1f1)"><g clip-path="url(#e6c4431d49)"><g clip-path="url(#8a714099fb)"><path fill="#4c8630" d="M 204.621094 96.789062 C 195.472656 74.984375 177.511719 59.074219 158.152344 55.617188 C 146.8125 71.828125 145.390625 95.945312 154.480469 117.929688 C 163.585938 139.886719 181.621094 155.941406 201.082031 159.414062 C 212.410156 143.222656 213.835938 119.128906 204.773438 97.15625 C 204.726562 97.03125 204.679688 96.914062 204.632812 96.789062 L 204.621094 96.789062 " fill-opacity="1" fill-rule="nonzero"/></g></g></g></g><g clip-path="url(#7c6fee836d)"><g clip-path="url(#1ee6766530)"><g clip-path="url(#8c3dfaff46)"><g clip-path="url(#ecdad394cf)"><path fill="#46742c" d="M 196.046875 81.46875 C 194.179688 83.582031 192.472656 85.820312 191.105469 88.289062 C 190.035156 90.21875 189.121094 92.238281 188.035156 94.160156 C 186.953125 96.082031 185.671875 97.925781 183.972656 99.332031 C 182.246094 100.765625 180.121094 101.707031 177.902344 102.058594 C 175.261719 102.484375 172.566406 102.078125 169.910156 101.765625 C 165.257812 101.210938 160.574219 100.914062 155.890625 101.035156 C 153.832031 101.089844 151.785156 101.304688 149.738281 101.519531 C 150.707031 107.097656 152.300781 112.613281 154.476562 117.929688 C 156.015625 121.628906 157.832031 125.199219 159.894531 128.601562 L 168.308594 132.09375 L 209.710938 137.59375 C 211.945312 124.628906 210.207031 110.367188 204.773438 97.152344 C 204.722656 97.035156 204.671875 96.917969 204.625 96.796875 C 202.328125 91.351562 199.4375 86.191406 196.046875 81.46875 " fill-opacity="1" fill-rule="nonzero"/></g></g></g></g><g clip-path="url(#b4ce7c0291)"><g clip-path="url(#fb604c4839)"><g clip-path="url(#4844f0de6f)"><g clip-path="url(#77fc87a480)"><path fill="#4c8630" d="M 242.929688 112.691406 C 264.835938 103.773438 288.78125 105.257812 304.894531 116.53125 C 301.425781 136 285.347656 154.039062 263.363281 163.125 C 241.382812 172.179688 217.285156 170.742188 201.082031 159.414062 C 204.550781 139.960938 220.601562 121.9375 242.5625 112.84375 C 242.683594 112.789062 242.800781 112.738281 242.921875 112.683594 L 242.929688 112.691406 " fill-opacity="1" fill-rule="nonzero"/></g></g></g></g><g clip-path="url(#d829d68072)"><g clip-path="url(#4eef2933b7)"><g clip-path="url(#dba2afca04)"><g clip-path="url(#9e5fb45418)"><path fill="#46742c" d="M 304.566406 116.316406 C 303.140625 120.035156 301.324219 123.613281 299.066406 126.898438 C 295.25 132.441406 290.183594 137.300781 283.96875 139.882812 C 279.910156 141.570312 275.433594 142.238281 271.058594 141.835938 C 265.285156 141.308594 259.777344 138.9375 255 135.648438 C 254.101562 135.027344 253.210938 134.367188 252.480469 133.546875 C 251.753906 132.730469 251.183594 131.746094 251.019531 130.664062 C 250.824219 129.40625 251.179688 128.128906 251.613281 126.933594 C 252.460938 124.578125 253.609375 122.347656 254.484375 120.011719 C 255.851562 116.367188 256.496094 112.464844 256.476562 108.574219 C 251.875 109.535156 247.332031 110.917969 242.929688 112.695312 L 242.925781 112.679688 C 242.804688 112.734375 242.683594 112.785156 242.5625 112.839844 C 238.078125 114.714844 233.78125 116.988281 229.761719 119.621094 L 227.433594 137.183594 L 240.777344 154.59375 L 257.15625 161.394531 L 264.917969 162.417969 C 286.132812 153.128906 301.492188 135.492188 304.898438 116.539062 C 304.789062 116.464844 304.679688 116.390625 304.566406 116.316406 " fill-opacity="1" fill-rule="nonzero"/></g></g></g></g><g clip-path="url(#a3f5a6932c)"><g clip-path="url(#d2774df377)"><g clip-path="url(#5dd333aef6)"><g clip-path="url(#af09ebbfa2)"><path fill="#4c8630" d="M 197.613281 96.785156 C 206.789062 74.992188 224.765625 59.117188 244.132812 55.699219 C 255.453125 71.925781 256.847656 96.042969 247.734375 118.015625 C 238.601562 139.953125 220.546875 155.976562 201.082031 159.414062 C 189.769531 143.203125 188.371094 119.109375 197.460938 97.148438 C 197.507812 97.027344 197.554688 96.90625 197.605469 96.78125 L 197.613281 96.785156 " fill-opacity="1" fill-rule="nonzero"/></g></g></g></g><g clip-path="url(#0dfbb333a8)"><g clip-path="url(#d639694144)"><g clip-path="url(#35937abefd)"><g clip-path="url(#bd90c7e4c7)"><path fill="#46742c" d="M 249.679688 66.335938 C 248.40625 73.746094 245.394531 80.847656 240.828125 86.824219 C 233.925781 95.84375 223.652344 102.175781 212.53125 104.550781 C 206.691406 105.800781 200.632812 105.933594 194.722656 105.058594 C 192.996094 110.875 191.957031 116.816406 191.640625 122.695312 L 224.992188 148.320312 C 234.691406 140.789062 242.644531 130.1875 247.726562 118.019531 C 254.90625 100.664062 255.625 81.707031 249.679688 66.335938 " fill-opacity="1" fill-rule="nonzero"/></g></g></g></g><g clip-path="url(#9ec5318f9c)"><g clip-path="url(#2fe502164e)"><g clip-path="url(#f3ad2af8ab)"><g clip-path="url(#abc2871123)"><path fill="#ea1b28" d="M 203.683594 118.503906 C 199.679688 117.039062 194.898438 115.417969 190.835938 114.128906 C 177.449219 109.894531 163.332031 107.566406 149.34375 108.730469 C 135.351562 109.886719 121.472656 114.664062 110.5625 123.492188 C 101.921875 130.488281 95.34375 139.835938 90.785156 149.972656 C 86.230469 160.113281 83.636719 171.035156 82.183594 182.054688 C 79.253906 204.289062 80.921875 226.96875 85.351562 248.953125 C 88.105469 262.597656 91.972656 276.207031 98.953125 288.253906 C 106.886719 301.929688 118.769531 313.269531 132.796875 320.5625 C 147.867188 325.347656 164.304688 325.761719 179.582031 321.71875 C 193.042969 318.160156 205.414062 311.292969 217.019531 303.605469 C 235.714844 291.21875 252.953125 276.386719 266.628906 258.613281 C 273.40625 249.804688 279.316406 240.257812 283.277344 229.871094 C 287.234375 219.488281 289.195312 208.21875 288.046875 197.160156 C 286.597656 183.203125 280.191406 170.003906 271.140625 159.28125 C 262.082031 148.558594 250.46875 140.199219 238.011719 133.710938 C 230.453125 129.777344 222.804688 125.933594 214.84375 122.894531 C 210.859375 121.375 207.683594 119.96875 203.683594 118.503906 " fill-opacity="1" fill-rule="nonzero"/></g></g></g></g><g clip-path="url(#fd5a0b3ddf)"><g clip-path="url(#5492b9aedc)"><g clip-path="url(#72d1b804d4)"><g clip-path="url(#8cfe444366)"><path fill="#f36784" d="M 157.035156 121.246094 C 155.792969 120.808594 154.460938 120.675781 153.15625 120.859375 C 140.921875 122.296875 129.265625 127.34375 119.875 135.316406 C 108.917969 144.621094 101.414062 157.609375 98.804688 171.746094 C 98.363281 173.9375 98.824219 176.210938 100.082031 178.066406 C 101.335938 179.914062 103.28125 181.1875 105.480469 181.59375 C 107.675781 182 109.945312 181.511719 111.785156 180.238281 C 113.617188 178.957031 114.863281 176.996094 115.242188 174.792969 C 117.136719 164.546875 122.804688 154.8125 130.75 148.066406 C 137.578125 142.273438 146.246094 138.511719 155.140625 137.464844 C 159.054688 137.082031 162.167969 134.023438 162.625 130.121094 C 163.078125 126.21875 160.753906 122.519531 157.035156 121.246094 " fill-opacity="1" fill-rule="nonzero"/></g></g></g></g><g clip-path="url(#27186d6061)"><g clip-path="url(#e143e6e9c3)"><g clip-path="url(#7d8f3989e0)"><g clip-path="url(#04275c0390)"><path fill="#cf1e25" d="M 261.320312 149.507812 C 244.34375 175.066406 220.375 195.945312 192.59375 208.992188 C 163.582031 222.621094 130.632812 227.71875 98.855469 223.507812 C 92.984375 222.730469 87.183594 221.527344 81.429688 220.125 C 82.164062 229.800781 83.4375 239.441406 85.351562 248.953125 C 88.101562 262.597656 91.972656 276.214844 98.957031 288.261719 C 106.886719 301.933594 118.769531 313.265625 132.792969 320.5625 C 147.863281 325.339844 164.296875 325.765625 179.582031 321.726562 C 193.042969 318.164062 205.421875 311.292969 217.023438 303.605469 C 235.722656 291.21875 252.960938 276.382812 266.636719 258.613281 C 273.414062 249.804688 279.320312 240.257812 283.277344 229.871094 C 287.238281 219.492188 289.195312 208.21875 288.046875 197.160156 C 286.597656 183.203125 280.191406 170.003906 271.136719 159.277344 C 268.144531 155.734375 264.804688 152.546875 261.320312 149.507812 " fill-opacity="1" fill-rule="nonzero"/></g></g></g></g><g clip-path="url(#cc12c74510)"><g clip-path="url(#7383498ea9)"><g clip-path="url(#e480ba8eba)"><g clip-path="url(#a73af40823)"><path fill="#fcd9c5" d="M 140.015625 143.136719 C 140.902344 143.652344 141.992188 143.65625 142.886719 143.148438 C 143.78125 142.648438 144.332031 141.699219 144.34375 140.675781 L 144.511719 135.578125 C 144.542969 134.808594 144.261719 134.058594 143.738281 133.496094 C 143.214844 132.929688 142.484375 132.597656 141.714844 132.574219 C 140.945312 132.546875 140.199219 132.828125 139.636719 133.355469 C 139.078125 133.886719 138.75 134.617188 138.730469 135.382812 L 138.5625 140.484375 C 138.503906 141.570312 139.070312 142.597656 140.015625 143.136719 " fill-opacity="1" fill-rule="nonzero"/></g></g></g></g><g clip-path="url(#710fb7ddd3)"><g clip-path="url(#55f00cc5f6)"><g clip-path="url(#c06a95f318)"><g clip-path="url(#e61eef3af7)"><path fill="#fcd9c5" d="M 258.515625 187.925781 C 257.527344 187.660156 256.753906 186.890625 256.476562 185.902344 C 256.207031 184.910156 256.484375 183.851562 257.199219 183.121094 L 260.695312 179.402344 C 261.214844 178.835938 261.945312 178.503906 262.714844 178.480469 C 263.484375 178.445312 264.234375 178.730469 264.796875 179.257812 C 265.359375 179.785156 265.6875 180.515625 265.707031 181.285156 C 265.730469 182.058594 265.445312 182.800781 264.917969 183.363281 L 261.417969 187.078125 C 260.6875 187.882812 259.566406 188.210938 258.515625 187.925781 " fill-opacity="1" fill-rule="nonzero"/></g></g></g></g><g clip-path="url(#45a356528a)"><g clip-path="url(#50a82767e3)"><g clip-path="url(#4e8425f891)"><g clip-path="url(#8ee7d386d0)"><path fill="#fcd9c5" d="M 199.628906 145.355469 C 200.136719 146.246094 201.082031 146.796875 202.109375 146.808594 C 203.132812 146.8125 204.089844 146.273438 204.613281 145.394531 L 207.300781 141.0625 C 207.71875 140.410156 207.855469 139.621094 207.679688 138.867188 C 207.511719 138.117188 207.046875 137.464844 206.390625 137.054688 C 205.734375 136.644531 204.945312 136.519531 204.191406 136.695312 C 203.441406 136.871094 202.789062 137.34375 202.394531 138 L 199.695312 142.335938 C 199.101562 143.25 199.078125 144.417969 199.628906 145.363281 L 199.628906 145.355469 " fill-opacity="1" fill-rule="nonzero"/></g></g></g></g><g clip-path="url(#3a544f93d6)"><g clip-path="url(#6b4fccd26e)"><g clip-path="url(#f916432af7)"><g clip-path="url(#35e0186cc4)"><path fill="#fcd9c5" d="M 162.410156 191.132812 C 163.296875 191.644531 164.390625 191.648438 165.285156 191.144531 C 166.175781 190.640625 166.730469 189.695312 166.746094 188.667969 L 166.910156 183.570312 C 166.941406 182.800781 166.664062 182.050781 166.136719 181.492188 C 165.613281 180.921875 164.882812 180.59375 164.113281 180.570312 C 163.34375 180.539062 162.597656 180.820312 162.03125 181.351562 C 161.472656 181.878906 161.148438 182.609375 161.121094 183.378906 L 160.960938 188.476562 C 160.902344 189.566406 161.464844 190.59375 162.414062 191.132812 L 162.410156 191.132812 " fill-opacity="1" fill-rule="nonzero"/></g></g></g></g><g clip-path="url(#5448d513f1)"><g clip-path="url(#98d7577967)"><g clip-path="url(#27f8433cf1)"><g clip-path="url(#8966ec31f0)"><path fill="#fcd9c5" d="M 221.8125 214.351562 C 220.828125 214.085938 220.046875 213.316406 219.773438 212.324219 C 219.503906 211.335938 219.78125 210.277344 220.496094 209.546875 L 223.992188 205.828125 C 224.511719 205.265625 225.242188 204.929688 226.011719 204.90625 C 226.78125 204.878906 227.53125 205.15625 228.09375 205.683594 C 228.65625 206.210938 228.980469 206.941406 229.007812 207.710938 C 229.027344 208.484375 228.742188 209.226562 228.214844 209.789062 L 224.714844 213.503906 C 223.988281 214.308594 222.863281 214.636719 221.8125 214.351562 " fill-opacity="1" fill-rule="nonzero"/></g></g></g></g><g clip-path="url(#e8f7de7635)"><g clip-path="url(#1c96f5f270)"><g clip-path="url(#5004d8572c)"><g clip-path="url(#09e03df507)"><path fill="#fcd9c5" d="M 242.84375 259.164062 C 241.851562 258.898438 241.074219 258.128906 240.808594 257.140625 C 240.53125 256.148438 240.808594 255.09375 241.53125 254.359375 L 245.019531 250.644531 C 245.542969 250.074219 246.269531 249.742188 247.042969 249.71875 C 247.808594 249.691406 248.558594 249.972656 249.121094 250.5 C 249.683594 251.027344 250.011719 251.753906 250.035156 252.527344 C 250.054688 253.296875 249.773438 254.042969 249.242188 254.601562 L 245.746094 258.320312 C 245.019531 259.125 243.894531 259.453125 242.84375 259.160156 L 242.84375 259.164062 " fill-opacity="1" fill-rule="nonzero"/></g></g></g></g><g clip-path="url(#ab6d684d8a)"><g clip-path="url(#a365011ffe)"><g clip-path="url(#40a65b4905)"><g clip-path="url(#ad1059f21b)"><path fill="#fcd9c5" d="M 175.410156 249.171875 C 174.417969 248.910156 173.640625 248.136719 173.371094 247.148438 C 173.097656 246.160156 173.375 245.101562 174.09375 244.371094 L 177.585938 240.652344 C 178.109375 240.085938 178.835938 239.753906 179.605469 239.726562 C 180.378906 239.703125 181.128906 239.984375 181.6875 240.511719 C 182.25 241.039062 182.578125 241.765625 182.601562 242.535156 C 182.625 243.308594 182.335938 244.050781 181.808594 244.609375 L 178.316406 248.328125 C 177.582031 249.132812 176.457031 249.464844 175.410156 249.171875 " fill-opacity="1" fill-rule="nonzero"/></g></g></g></g><g clip-path="url(#112278ed50)"><g clip-path="url(#8856ae708c)"><g clip-path="url(#a4f6ca4f43)"><g clip-path="url(#a29fc36165)"><path fill="#fcd9c5" d="M 103.933594 181.257812 C 104.816406 181.769531 105.914062 181.78125 106.804688 181.273438 C 107.699219 180.765625 108.253906 179.824219 108.265625 178.796875 L 108.433594 173.699219 C 108.460938 172.933594 108.183594 172.179688 107.660156 171.613281 C 107.132812 171.050781 106.40625 170.71875 105.632812 170.695312 C 104.863281 170.667969 104.117188 170.953125 103.554688 171.476562 C 102.996094 172.003906 102.667969 172.734375 102.644531 173.503906 L 102.480469 178.605469 C 102.425781 179.691406 102.988281 180.71875 103.9375 181.257812 L 103.933594 181.257812 " fill-opacity="1" fill-rule="nonzero"/></g></g></g></g><g clip-path="url(#e2a77dee8a)"><g clip-path="url(#ce2f92ae28)"><g clip-path="url(#3a7245acc3)"><g clip-path="url(#3137154b04)"><path fill="#fcd9c5" d="M 118.78125 236.203125 C 119.664062 236.71875 120.757812 236.722656 121.648438 236.21875 C 122.546875 235.710938 123.097656 234.769531 123.113281 233.742188 L 123.277344 228.644531 C 123.308594 227.875 123.027344 227.125 122.503906 226.5625 C 121.976562 225.996094 121.253906 225.664062 120.480469 225.636719 C 119.710938 225.613281 118.964844 225.894531 118.402344 226.421875 C 117.84375 226.949219 117.511719 227.679688 117.492188 228.449219 L 117.328125 233.546875 C 117.269531 234.636719 117.832031 235.664062 118.78125 236.203125 " fill-opacity="1" fill-rule="nonzero"/></g></g></g></g><g clip-path="url(#f661eed35f)"><g clip-path="url(#a4c4596560)"><g clip-path="url(#c7ee8e2447)"><g clip-path="url(#2ad2e37f4b)"><path fill="#fcd9c5" d="M 134.96875 293.832031 C 135.855469 294.347656 136.953125 294.351562 137.84375 293.847656 C 138.734375 293.339844 139.289062 292.398438 139.300781 291.371094 L 139.46875 286.273438 C 139.496094 285.503906 139.222656 284.75 138.695312 284.191406 C 138.167969 283.628906 137.441406 283.292969 136.671875 283.269531 C 135.902344 283.242188 135.152344 283.527344 134.589844 284.054688 C 134.03125 284.582031 133.699219 285.308594 133.679688 286.078125 L 133.515625 291.179688 C 133.460938 292.265625 134.023438 293.292969 134.96875 293.832031 " fill-opacity="1" fill-rule="nonzero"/></g></g></g></g><g clip-path="url(#c14898f1eb)"><g clip-path="url(#724331e452)"><g clip-path="url(#814412be4d)"><g clip-path="url(#b109bbac5f)"><path fill="#fcd9c5" d="M 194.554688 294.699219 C 193.5625 294.4375 192.785156 293.664062 192.515625 292.675781 C 192.238281 291.6875 192.519531 290.628906 193.234375 289.894531 L 196.730469 286.179688 C 197.253906 285.613281 197.980469 285.277344 198.75 285.253906 C 199.519531 285.226562 200.269531 285.507812 200.828125 286.035156 C 201.390625 286.5625 201.71875 287.292969 201.746094 288.0625 C 201.765625 288.832031 201.480469 289.578125 200.949219 290.136719 L 197.457031 293.851562 C 196.726562 294.664062 195.601562 294.988281 194.554688 294.699219 " fill-opacity="1" fill-rule="nonzero"/></g></g></g></g><g clip-path="url(#97e756415e)"><g clip-path="url(#ab790a5cf4)"><g clip-path="url(#ed1f300158)"><g clip-path="url(#575c1d131a)"><path fill="#bfe473" d="M 238.632812 61.695312 C 237.746094 61.273438 236.714844 61.261719 235.820312 61.664062 C 231.394531 63.519531 227.226562 65.914062 223.398438 68.804688 C 220.300781 71.148438 217.425781 73.789062 214.859375 76.703125 C 214.269531 77.371094 213.976562 78.242188 214.027344 79.132812 C 214.085938 80.019531 214.496094 80.847656 215.164062 81.429688 C 215.832031 82.015625 216.707031 82.3125 217.59375 82.246094 C 218.480469 82.1875 219.308594 81.777344 219.890625 81.109375 C 222.15625 78.527344 224.65625 76.199219 227.394531 74.128906 C 230.773438 71.574219 234.492188 69.421875 238.402344 67.78125 C 239.625 67.292969 240.449219 66.132812 240.496094 64.8125 C 240.546875 63.5 239.8125 62.273438 238.632812 61.695312 " fill-opacity="1" fill-rule="nonzero"/></g></g></g></g><g clip-path="url(#87052bad1b)"><g clip-path="url(#9d3d7e067f)"><g clip-path="url(#6f105303cd)"><g clip-path="url(#19f8f657c7)"><path fill="#bfe473" d="M 153.808594 88.554688 C 153.183594 88.015625 152.824219 87.226562 152.835938 86.394531 C 152.773438 82.363281 153.21875 78.339844 154.160156 74.414062 C 154.921875 71.238281 155.988281 68.128906 157.375 65.167969 C 157.691406 64.492188 158.261719 63.96875 158.964844 63.714844 C 159.667969 63.460938 160.441406 63.496094 161.117188 63.8125 C 161.792969 64.132812 162.316406 64.703125 162.570312 65.410156 C 162.820312 66.117188 162.785156 66.890625 162.464844 67.566406 C 161.242188 70.183594 160.28125 72.890625 159.609375 75.699219 C 158.777344 79.167969 158.371094 82.757812 158.425781 86.328125 C 158.460938 87.433594 157.839844 88.464844 156.839844 88.945312 C 155.84375 89.425781 154.648438 89.273438 153.808594 88.554688 " fill-opacity="1" fill-rule="nonzero"/></g></g></g></g><g clip-path="url(#1b5354dd09)"><g clip-path="url(#35ea2a04b1)"><g clip-path="url(#e8e87ead87)"><g clip-path="url(#5023132b60)"><path fill="#bfe473" d="M 270.746094 111.886719 C 271.261719 111.242188 272.042969 110.859375 272.871094 110.847656 C 276.90625 110.65625 280.941406 110.980469 284.894531 111.792969 C 288.097656 112.457031 291.234375 113.425781 294.242188 114.71875 C 294.929688 115.011719 295.476562 115.566406 295.757812 116.261719 C 296.035156 116.957031 296.023438 117.734375 295.726562 118.421875 C 295.433594 119.109375 294.871094 119.652344 294.175781 119.925781 C 293.480469 120.199219 292.699219 120.183594 292.015625 119.882812 C 289.359375 118.742188 286.621094 117.871094 283.789062 117.289062 C 280.292969 116.5625 276.6875 116.265625 273.128906 116.429688 C 272.019531 116.503906 270.976562 115.914062 270.460938 114.933594 C 269.949219 113.949219 270.058594 112.757812 270.753906 111.890625 L 270.746094 111.886719 " fill-opacity="1" fill-rule="nonzero"/></g></g></g></g></svg>