<svg xmlns="http://www.w3.org/2000/svg" xmlns:xlink="http://www.w3.org/1999/xlink" width="500" zoomAndPan="magnify" viewBox="0 0 375 374.999991" height="500" preserveAspectRatio="xMidYMid meet" version="1.0"><defs><clipPath id="cf401cb6a8"><path d="M 138 23 L 216 23 L 216 153 L 138 153 Z M 138 23 " clip-rule="nonzero"/></clipPath><clipPath id="36c71c6c99"><path d="M 136.226562 -26.15625 L 375.207031 73.039062 L 238.925781 401.378906 L -0.0585938 302.183594 Z M 136.226562 -26.15625 " clip-rule="nonzero"/></clipPath><clipPath id="b0bdb2c340"><path d="M 136.226562 -26.15625 L 375.207031 73.039062 L 238.925781 401.378906 L -0.0585938 302.183594 Z M 136.226562 -26.15625 " clip-rule="nonzero"/></clipPath><clipPath id="3c293a8ba1"><path d="M 136.226562 -26.15625 L 375.207031 73.039062 L 238.925781 401.378906 L -0.0585938 302.183594 Z M 136.226562 -26.15625 " clip-rule="nonzero"/></clipPath><clipPath id="8a75f732a1"><path d="M 140 55 L 216 55 L 216 126 L 140 126 Z M 140 55 " clip-rule="nonzero"/></clipPath><clipPath id="e13e85f605"><path d="M 136.226562 -26.15625 L 375.207031 73.039062 L 238.925781 401.378906 L -0.0585938 302.183594 Z M 136.226562 -26.15625 " clip-rule="nonzero"/></clipPath><clipPath id="cc9afde42a"><path d="M 136.226562 -26.15625 L 375.207031 73.039062 L 238.925781 401.378906 L -0.0585938 302.183594 Z M 136.226562 -26.15625 " clip-rule="nonzero"/></clipPath><clipPath id="c2c234938d"><path d="M 136.226562 -26.15625 L 375.207031 73.039062 L 238.925781 401.378906 L -0.0585938 302.183594 Z M 136.226562 -26.15625 " clip-rule="nonzero"/></clipPath><clipPath id="a791025c20"><path d="M 203 87 L 333 87 L 333 165 L 203 165 Z M 203 87 " clip-rule="nonzero"/></clipPath><clipPath id="6dfd9989ef"><path d="M 136.226562 -26.15625 L 375.207031 73.039062 L 238.925781 401.378906 L -0.0585938 302.183594 Z M 136.226562 -26.15625 " clip-rule="nonzero"/></clipPath><clipPath id="297052b84f"><path d="M 136.226562 -26.15625 L 375.207031 73.039062 L 238.925781 401.378906 L -0.0585938 302.183594 Z M 136.226562 -26.15625 " clip-rule="nonzero"/></clipPath><clipPath id="5f0fbe3d5f"><path d="M 136.226562 -26.15625 L 375.207031 73.039062 L 238.925781 401.378906 L -0.0585938 302.183594 Z M 136.226562 -26.15625 " clip-rule="nonzero"/></clipPath><clipPath id="fb5971015c"><path d="M 236 89 L 333 89 L 333 157 L 236 157 Z M 236 89 " clip-rule="nonzero"/></clipPath><clipPath id="006f7f7e74"><path d="M 136.226562 -26.15625 L 375.207031 73.039062 L 238.925781 401.378906 L -0.0585938 302.183594 Z M 136.226562 -26.15625 " clip-rule="nonzero"/></clipPath><clipPath id="e576e73437"><path d="M 136.226562 -26.15625 L 375.207031 73.039062 L 238.925781 401.378906 L -0.0585938 302.183594 Z M 136.226562 -26.15625 " clip-rule="nonzero"/></clipPath><clipPath id="ffb224ea72"><path d="M 136.226562 -26.15625 L 375.207031 73.039062 L 238.925781 401.378906 L -0.0585938 302.183594 Z M 136.226562 -26.15625 " clip-rule="nonzero"/></clipPath><clipPath id="1b8993bef5"><path d="M 192 24 L 270 24 L 270 153 L 192 153 Z M 192 24 " clip-rule="nonzero"/></clipPath><clipPath id="ca2bc05894"><path d="M 136.226562 -26.15625 L 375.207031 73.039062 L 238.925781 401.378906 L -0.0585938 302.183594 Z M 136.226562 -26.15625 " clip-rule="nonzero"/></clipPath><clipPath id="7addec3ef5"><path d="M 136.226562 -26.15625 L 375.207031 73.039062 L 238.925781 401.378906 L -0.0585938 302.183594 Z M 136.226562 -26.15625 " clip-rule="nonzero"/></clipPath><clipPath id="951af3a182"><path d="M 136.226562 -26.15625 L 375.207031 73.039062 L 238.925781 401.378906 L -0.0585938 302.183594 Z M 136.226562 -26.15625 " clip-rule="nonzero"/></clipPath><clipPath id="7150f3f36e"><path d="M 192 37 L 270 37 L 270 139 L 192 139 Z M 192 37 " clip-rule="nonzero"/></clipPath><clipPath id="6dc30bc2a1"><path d="M 136.226562 -26.15625 L 375.207031 73.039062 L 238.925781 401.378906 L -0.0585938 302.183594 Z M 136.226562 -26.15625 " clip-rule="nonzero"/></clipPath><clipPath id="875a87a81c"><path d="M 136.226562 -26.15625 L 375.207031 73.039062 L 238.925781 401.378906 L -0.0585938 302.183594 Z M 136.226562 -26.15625 " clip-rule="nonzero"/></clipPath><clipPath id="2c3baccc98"><path d="M 136.226562 -26.15625 L 375.207031 73.039062 L 238.925781 401.378906 L -0.0585938 302.183594 Z M 136.226562 -26.15625 " clip-rule="nonzero"/></clipPath><clipPath id="7b25e5ec64"><path d="M 55 89 L 312 89 L 312 357 L 55 357 Z M 55 89 " clip-rule="nonzero"/></clipPath><clipPath id="b71af2719e"><path d="M 136.226562 -26.15625 L 375.207031 73.039062 L 238.925781 401.378906 L -0.0585938 302.183594 Z M 136.226562 -26.15625 " clip-rule="nonzero"/></clipPath><clipPath id="ebf404ee9c"><path d="M 136.226562 -26.15625 L 375.207031 73.039062 L 238.925781 401.378906 L -0.0585938 302.183594 Z M 136.226562 -26.15625 " clip-rule="nonzero"/></clipPath><clipPath id="fbb25c4ab8"><path d="M 136.226562 -26.15625 L 375.207031 73.039062 L 238.925781 401.378906 L -0.0585938 302.183594 Z M 136.226562 -26.15625 " clip-rule="nonzero"/></clipPath><clipPath id="b472bb3a6e"><path d="M 77 104 L 157 104 L 157 181 L 77 181 Z M 77 104 " clip-rule="nonzero"/></clipPath><clipPath id="34ea34f099"><path d="M 136.226562 -26.15625 L 375.207031 73.039062 L 238.925781 401.378906 L -0.0585938 302.183594 Z M 136.226562 -26.15625 " clip-rule="nonzero"/></clipPath><clipPath id="56de2d1df2"><path d="M 136.226562 -26.15625 L 375.207031 73.039062 L 238.925781 401.378906 L -0.0585938 302.183594 Z M 136.226562 -26.15625 " clip-rule="nonzero"/></clipPath><clipPath id="e14428e78f"><path d="M 136.226562 -26.15625 L 375.207031 73.039062 L 238.925781 401.378906 L -0.0585938 302.183594 Z M 136.226562 -26.15625 " clip-rule="nonzero"/></clipPath><clipPath id="3abcbac995"><path d="M 55 140 L 312 140 L 312 357 L 55 357 Z M 55 140 " clip-rule="nonzero"/></clipPath><clipPath id="6aed46c20a"><path d="M 136.226562 -26.15625 L 375.207031 73.039062 L 238.925781 401.378906 L -0.0585938 302.183594 Z M 136.226562 -26.15625 " clip-rule="nonzero"/></clipPath><clipPath id="a187820390"><path d="M 136.226562 -26.15625 L 375.207031 73.039062 L 238.925781 401.378906 L -0.0585938 302.183594 Z M 136.226562 -26.15625 " clip-rule="nonzero"/></clipPath><clipPath id="d8428fd9c7"><path d="M 136.226562 -26.15625 L 375.207031 73.039062 L 238.925781 401.378906 L -0.0585938 302.183594 Z M 136.226562 -26.15625 " clip-rule="nonzero"/></clipPath><clipPath id="c6f6946ce9"><path d="M 126 119 L 134 119 L 134 133 L 126 133 Z M 126 119 " clip-rule="nonzero"/></clipPath><clipPath id="8d95f9be46"><path d="M 136.226562 -26.15625 L 375.207031 73.039062 L 238.925781 401.378906 L -0.0585938 302.183594 Z M 136.226562 -26.15625 " clip-rule="nonzero"/></clipPath><clipPath id="80a4aa7829"><path d="M 136.226562 -26.15625 L 375.207031 73.039062 L 238.925781 401.378906 L -0.0585938 302.183594 Z M 136.226562 -26.15625 " clip-rule="nonzero"/></clipPath><clipPath id="20c1259a2e"><path d="M 136.226562 -26.15625 L 375.207031 73.039062 L 238.925781 401.378906 L -0.0585938 302.183594 Z M 136.226562 -26.15625 " clip-rule="nonzero"/></clipPath><clipPath id="fce6057ccd"><path d="M 272 175 L 284 175 L 284 188 L 272 188 Z M 272 175 " clip-rule="nonzero"/></clipPath><clipPath id="689ac671d9"><path d="M 136.226562 -26.15625 L 375.207031 73.039062 L 238.925781 401.378906 L -0.0585938 302.183594 Z M 136.226562 -26.15625 " clip-rule="nonzero"/></clipPath><clipPath id="8be96fe96f"><path d="M 136.226562 -26.15625 L 375.207031 73.039062 L 238.925781 401.378906 L -0.0585938 302.183594 Z M 136.226562 -26.15625 " clip-rule="nonzero"/></clipPath><clipPath id="07f314a6d1"><path d="M 136.226562 -26.15625 L 375.207031 73.039062 L 238.925781 401.378906 L -0.0585938 302.183594 Z M 136.226562 -26.15625 " clip-rule="nonzero"/></clipPath><clipPath id="1b940f9027"><path d="M 201 124 L 213 124 L 213 137 L 201 137 Z M 201 124 " clip-rule="nonzero"/></clipPath><clipPath id="4980fb47fd"><path d="M 136.226562 -26.15625 L 375.207031 73.039062 L 238.925781 401.378906 L -0.0585938 302.183594 Z M 136.226562 -26.15625 " clip-rule="nonzero"/></clipPath><clipPath id="c213572d2d"><path d="M 136.226562 -26.15625 L 375.207031 73.039062 L 238.925781 401.378906 L -0.0585938 302.183594 Z M 136.226562 -26.15625 " clip-rule="nonzero"/></clipPath><clipPath id="4ba26f0af6"><path d="M 136.226562 -26.15625 L 375.207031 73.039062 L 238.925781 401.378906 L -0.0585938 302.183594 Z M 136.226562 -26.15625 " clip-rule="nonzero"/></clipPath><clipPath id="17f630184e"><path d="M 154 178 L 162 178 L 162 193 L 154 193 Z M 154 178 " clip-rule="nonzero"/></clipPath><clipPath id="605700a1ba"><path d="M 136.226562 -26.15625 L 375.207031 73.039062 L 238.925781 401.378906 L -0.0585938 302.183594 Z M 136.226562 -26.15625 " clip-rule="nonzero"/></clipPath><clipPath id="80fef21f79"><path d="M 136.226562 -26.15625 L 375.207031 73.039062 L 238.925781 401.378906 L -0.0585938 302.183594 Z M 136.226562 -26.15625 " clip-rule="nonzero"/></clipPath><clipPath id="e8960b8585"><path d="M 136.226562 -26.15625 L 375.207031 73.039062 L 238.925781 401.378906 L -0.0585938 302.183594 Z M 136.226562 -26.15625 " clip-rule="nonzero"/></clipPath><clipPath id="8fbfdbfe80"><path d="M 226 208 L 239 208 L 239 221 L 226 221 Z M 226 208 " clip-rule="nonzero"/></clipPath><clipPath id="3629222e4e"><path d="M 136.226562 -26.15625 L 375.207031 73.039062 L 238.925781 401.378906 L -0.0585938 302.183594 Z M 136.226562 -26.15625 " clip-rule="nonzero"/></clipPath><clipPath id="d618e414de"><path d="M 136.226562 -26.15625 L 375.207031 73.039062 L 238.925781 401.378906 L -0.0585938 302.183594 Z M 136.226562 -26.15625 " clip-rule="nonzero"/></clipPath><clipPath id="e8232f20aa"><path d="M 136.226562 -26.15625 L 375.207031 73.039062 L 238.925781 401.378906 L -0.0585938 302.183594 Z M 136.226562 -26.15625 " clip-rule="nonzero"/></clipPath><clipPath id="b7f855ce6b"><path d="M 252 264 L 265 264 L 265 276 L 252 276 Z M 252 264 " clip-rule="nonzero"/></clipPath><clipPath id="bf28cc49c1"><path d="M 136.226562 -26.15625 L 375.207031 73.039062 L 238.925781 401.378906 L -0.0585938 302.183594 Z M 136.226562 -26.15625 " clip-rule="nonzero"/></clipPath><clipPath id="a5b1928bb3"><path d="M 136.226562 -26.15625 L 375.207031 73.039062 L 238.925781 401.378906 L -0.0585938 302.183594 Z M 136.226562 -26.15625 " clip-rule="nonzero"/></clipPath><clipPath id="bc0e5ddd9f"><path d="M 136.226562 -26.15625 L 375.207031 73.039062 L 238.925781 401.378906 L -0.0585938 302.183594 Z M 136.226562 -26.15625 " clip-rule="nonzero"/></clipPath><clipPath id="72c5c4ad98"><path d="M 169 251 L 182 251 L 182 264 L 169 264 Z M 169 251 " clip-rule="nonzero"/></clipPath><clipPath id="b44e890cc7"><path d="M 136.226562 -26.15625 L 375.207031 73.039062 L 238.925781 401.378906 L -0.0585938 302.183594 Z M 136.226562 -26.15625 " clip-rule="nonzero"/></clipPath><clipPath id="e70a01840a"><path d="M 136.226562 -26.15625 L 375.207031 73.039062 L 238.925781 401.378906 L -0.0585938 302.183594 Z M 136.226562 -26.15625 " clip-rule="nonzero"/></clipPath><clipPath id="cd67632ad6"><path d="M 136.226562 -26.15625 L 375.207031 73.039062 L 238.925781 401.378906 L -0.0585938 302.183594 Z M 136.226562 -26.15625 " clip-rule="nonzero"/></clipPath><clipPath id="2848c3712e"><path d="M 81 166 L 90 166 L 90 180 L 81 180 Z M 81 166 " clip-rule="nonzero"/></clipPath><clipPath id="59cba9ed21"><path d="M 136.226562 -26.15625 L 375.207031 73.039062 L 238.925781 401.378906 L -0.0585938 302.183594 Z M 136.226562 -26.15625 " clip-rule="nonzero"/></clipPath><clipPath id="6e39677bcf"><path d="M 136.226562 -26.15625 L 375.207031 73.039062 L 238.925781 401.378906 L -0.0585938 302.183594 Z M 136.226562 -26.15625 " clip-rule="nonzero"/></clipPath><clipPath id="12aa3c3181"><path d="M 136.226562 -26.15625 L 375.207031 73.039062 L 238.925781 401.378906 L -0.0585938 302.183594 Z M 136.226562 -26.15625 " clip-rule="nonzero"/></clipPath><clipPath id="425cba1f3b"><path d="M 100 234 L 108 234 L 108 248 L 100 248 Z M 100 234 " clip-rule="nonzero"/></clipPath><clipPath id="d8585118c0"><path d="M 136.226562 -26.15625 L 375.207031 73.039062 L 238.925781 401.378906 L -0.0585938 302.183594 Z M 136.226562 -26.15625 " clip-rule="nonzero"/></clipPath><clipPath id="d1748495db"><path d="M 136.226562 -26.15625 L 375.207031 73.039062 L 238.925781 401.378906 L -0.0585938 302.183594 Z M 136.226562 -26.15625 " clip-rule="nonzero"/></clipPath><clipPath id="0130f1cbff"><path d="M 136.226562 -26.15625 L 375.207031 73.039062 L 238.925781 401.378906 L -0.0585938 302.183594 Z M 136.226562 -26.15625 " clip-rule="nonzero"/></clipPath><clipPath id="052f3eb2f3"><path d="M 120 305 L 128 305 L 128 320 L 120 320 Z M 120 305 " clip-rule="nonzero"/></clipPath><clipPath id="664cc9e5e1"><path d="M 136.226562 -26.15625 L 375.207031 73.039062 L 238.925781 401.378906 L -0.0585938 302.183594 Z M 136.226562 -26.15625 " clip-rule="nonzero"/></clipPath><clipPath id="cc1cf04977"><path d="M 136.226562 -26.15625 L 375.207031 73.039062 L 238.925781 401.378906 L -0.0585938 302.183594 Z M 136.226562 -26.15625 " clip-rule="nonzero"/></clipPath><clipPath id="16c5a1174a"><path d="M 136.226562 -26.15625 L 375.207031 73.039062 L 238.925781 401.378906 L -0.0585938 302.183594 Z M 136.226562 -26.15625 " clip-rule="nonzero"/></clipPath><clipPath id="9cb1a470ed"><path d="M 193 308 L 205 308 L 205 320 L 193 320 Z M 193 308 " clip-rule="nonzero"/></clipPath><clipPath id="da5a1010c1"><path d="M 136.226562 -26.15625 L 375.207031 73.039062 L 238.925781 401.378906 L -0.0585938 302.183594 Z M 136.226562 -26.15625 " clip-rule="nonzero"/></clipPath><clipPath id="efcaf3e18c"><path d="M 136.226562 -26.15625 L 375.207031 73.039062 L 238.925781 401.378906 L -0.0585938 302.183594 Z M 136.226562 -26.15625 " clip-rule="nonzero"/></clipPath><clipPath id="644b1f279f"><path d="M 136.226562 -26.15625 L 375.207031 73.039062 L 238.925781 401.378906 L -0.0585938 302.183594 Z M 136.226562 -26.15625 " clip-rule="nonzero"/></clipPath><clipPath id="aa27d035d3"><path d="M 219 31 L 253 31 L 253 57 L 219 57 Z M 219 31 " clip-rule="nonzero"/></clipPath><clipPath id="3d4d5e914e"><path d="M 136.226562 -26.15625 L 375.207031 73.039062 L 238.925781 401.378906 L -0.0585938 302.183594 Z M 136.226562 -26.15625 " clip-rule="nonzero"/></clipPath><clipPath id="52692acf34"><path d="M 136.226562 -26.15625 L 375.207031 73.039062 L 238.925781 401.378906 L -0.0585938 302.183594 Z M 136.226562 -26.15625 " clip-rule="nonzero"/></clipPath><clipPath id="07b3d4cd74"><path d="M 136.226562 -26.15625 L 375.207031 73.039062 L 238.925781 401.378906 L -0.0585938 302.183594 Z M 136.226562 -26.15625 " clip-rule="nonzero"/></clipPath><clipPath id="78aeb41cee"><path d="M 144 33 L 157 33 L 157 66 L 144 66 Z M 144 33 " clip-rule="nonzero"/></clipPath><clipPath id="1d9b4f952e"><path d="M 136.226562 -26.15625 L 375.207031 73.039062 L 238.925781 401.378906 L -0.0585938 302.183594 Z M 136.226562 -26.15625 " clip-rule="nonzero"/></clipPath><clipPath id="69b4b1d19b"><path d="M 136.226562 -26.15625 L 375.207031 73.039062 L 238.925781 401.378906 L -0.0585938 302.183594 Z M 136.226562 -26.15625 " clip-rule="nonzero"/></clipPath><clipPath id="79d1600b02"><path d="M 136.226562 -26.15625 L 375.207031 73.039062 L 238.925781 401.378906 L -0.0585938 302.183594 Z M 136.226562 -26.15625 " clip-rule="nonzero"/></clipPath><clipPath id="457b9945b3"><path d="M 289 92 L 322 92 L 322 104 L 289 104 Z M 289 92 " clip-rule="nonzero"/></clipPath><clipPath id="e9b3486366"><path d="M 136.226562 -26.15625 L 375.207031 73.039062 L 238.925781 401.378906 L -0.0585938 302.183594 Z M 136.226562 -26.15625 " clip-rule="nonzero"/></clipPath><clipPath id="041dc627e4"><path d="M 136.226562 -26.15625 L 375.207031 73.039062 L 238.925781 401.378906 L -0.0585938 302.183594 Z M 136.226562 -26.15625 " clip-rule="nonzero"/></clipPath><clipPath id="4e3b6772bb"><path d="M 136.226562 -26.15625 L 375.207031 73.039062 L 238.925781 401.378906 L -0.0585938 302.183594 Z M 136.226562 -26.15625 " clip-rule="nonzero"/></clipPath></defs><g clip-path="url(#cf401cb6a8)"><g clip-path="url(#36c71c6c99)"><g clip-path="url(#b0bdb2c340)"><g clip-path="url(#3c293a8ba1)"><path fill="#4c8630" d="M 208.335938 74.910156 C 197.015625 47.929688 174.792969 28.242188 150.835938 23.96875 C 136.808594 44.023438 135.046875 73.867188 146.292969 101.070312 C 157.5625 128.238281 179.875 148.101562 203.957031 152.398438 C 217.972656 132.363281 219.738281 102.554688 208.523438 75.363281 C 208.464844 75.210938 208.410156 75.066406 208.347656 74.910156 L 208.335938 74.910156 " fill-opacity="1" fill-rule="nonzero"/></g></g></g></g><g clip-path="url(#8a75f732a1)"><g clip-path="url(#e13e85f605)"><g clip-path="url(#cc9afde42a)"><g clip-path="url(#c2c234938d)"><path fill="#46742c" d="M 197.726562 55.953125 C 195.417969 58.570312 193.304688 61.339844 191.613281 64.394531 C 190.289062 66.78125 189.15625 69.28125 187.8125 71.65625 C 186.472656 74.035156 184.890625 76.316406 182.785156 78.058594 C 180.648438 79.832031 178.019531 80.996094 175.277344 81.429688 C 172.007812 81.957031 168.671875 81.457031 165.386719 81.066406 C 159.628906 80.382812 153.832031 80.015625 148.039062 80.164062 C 145.492188 80.230469 142.960938 80.5 140.425781 80.765625 C 141.625 87.664062 143.597656 94.492188 146.289062 101.066406 C 148.195312 105.644531 150.441406 110.0625 152.992188 114.273438 L 163.402344 118.59375 L 214.632812 125.398438 C 217.398438 109.355469 215.246094 91.710938 208.523438 75.359375 C 208.460938 75.214844 208.398438 75.070312 208.339844 74.921875 C 205.496094 68.183594 201.921875 61.796875 197.726562 55.953125 " fill-opacity="1" fill-rule="nonzero"/></g></g></g></g><g clip-path="url(#a791025c20)"><g clip-path="url(#6dfd9989ef)"><g clip-path="url(#297052b84f)"><g clip-path="url(#5f0fbe3d5f)"><path fill="#4c8630" d="M 255.734375 94.585938 C 282.839844 83.550781 312.46875 85.390625 332.410156 99.335938 C 328.117188 123.429688 308.222656 145.746094 281.019531 156.992188 C 253.824219 168.195312 224.003906 166.414062 203.957031 152.398438 C 208.246094 128.328125 228.109375 106.027344 255.28125 94.773438 C 255.433594 94.707031 255.578125 94.644531 255.726562 94.578125 L 255.734375 94.585938 " fill-opacity="1" fill-rule="nonzero"/></g></g></g></g><g clip-path="url(#fb5971015c)"><g clip-path="url(#006f7f7e74)"><g clip-path="url(#e576e73437)"><g clip-path="url(#ffb224ea72)"><path fill="#46742c" d="M 332.003906 99.074219 C 330.238281 103.675781 327.992188 108.101562 325.195312 112.164062 C 320.472656 119.023438 314.207031 125.039062 306.515625 128.230469 C 301.492188 130.320312 295.957031 131.144531 290.542969 130.648438 C 283.398438 129.996094 276.582031 127.0625 270.671875 122.992188 C 269.558594 122.222656 268.457031 121.40625 267.554688 120.394531 C 266.65625 119.382812 265.949219 118.164062 265.746094 116.824219 C 265.503906 115.269531 265.945312 113.6875 266.480469 112.207031 C 267.527344 109.296875 268.949219 106.535156 270.035156 103.644531 C 271.726562 99.132812 272.523438 94.304688 272.496094 89.492188 C 266.804688 90.679688 261.183594 92.390625 255.738281 94.59375 L 255.730469 94.570312 C 255.582031 94.640625 255.433594 94.703125 255.28125 94.769531 C 249.734375 97.089844 244.417969 99.902344 239.441406 103.160156 L 236.5625 124.894531 L 253.074219 146.433594 L 273.339844 154.847656 L 282.945312 156.117188 C 309.195312 144.621094 328.199219 122.800781 332.414062 99.347656 C 332.277344 99.253906 332.140625 99.164062 332.003906 99.074219 " fill-opacity="1" fill-rule="nonzero"/></g></g></g></g><g clip-path="url(#1b8993bef5)"><g clip-path="url(#ca2bc05894)"><g clip-path="url(#7addec3ef5)"><g clip-path="url(#951af3a182)"><path fill="#4c8630" d="M 199.664062 74.90625 C 211.019531 47.941406 233.261719 28.296875 257.226562 24.066406 C 271.230469 44.144531 272.957031 73.988281 261.679688 101.175781 C 250.378906 128.320312 228.042969 148.144531 203.957031 152.398438 C 189.960938 132.339844 188.230469 102.527344 199.476562 75.355469 C 199.535156 75.207031 199.589844 75.054688 199.652344 74.902344 L 199.664062 74.90625 " fill-opacity="1" fill-rule="nonzero"/></g></g></g></g><g clip-path="url(#7150f3f36e)"><g clip-path="url(#6dc30bc2a1)"><g clip-path="url(#875a87a81c)"><g clip-path="url(#2c3baccc98)"><path fill="#46742c" d="M 264.089844 37.230469 C 262.511719 46.398438 258.785156 55.1875 253.136719 62.578125 C 244.59375 73.742188 231.882812 81.574219 218.125 84.515625 C 210.898438 86.058594 203.398438 86.226562 196.089844 85.144531 C 193.949219 92.339844 192.664062 99.691406 192.273438 106.964844 L 233.542969 138.671875 C 245.542969 129.351562 255.382812 116.234375 261.671875 101.179688 C 270.554688 79.707031 271.445312 56.25 264.089844 37.230469 " fill-opacity="1" fill-rule="nonzero"/></g></g></g></g><g clip-path="url(#7b25e5ec64)"><g clip-path="url(#b71af2719e)"><g clip-path="url(#ebf404ee9c)"><g clip-path="url(#fbb25c4ab8)"><path fill="#ea1b28" d="M 207.175781 101.777344 C 202.222656 99.96875 196.304688 97.960938 191.277344 96.367188 C 174.714844 91.125 157.246094 88.246094 139.9375 89.683594 C 122.625 91.117188 105.453125 97.027344 91.953125 107.953125 C 81.261719 116.605469 73.121094 128.175781 67.480469 140.71875 C 61.84375 153.261719 58.636719 166.777344 56.839844 180.414062 C 53.214844 207.925781 55.277344 235.988281 60.757812 263.191406 C 64.164062 280.074219 68.949219 296.914062 77.585938 311.816406 C 87.402344 328.738281 102.109375 342.769531 119.464844 351.792969 C 138.109375 357.714844 158.449219 358.226562 177.355469 353.226562 C 194.011719 348.824219 209.316406 340.324219 223.675781 330.8125 C 246.808594 315.488281 268.140625 297.132812 285.0625 275.144531 C 293.445312 264.242188 300.757812 252.429688 305.660156 239.578125 C 310.558594 226.730469 312.984375 212.789062 311.5625 199.105469 C 309.769531 181.832031 301.84375 165.503906 290.640625 152.234375 C 279.433594 138.964844 265.0625 128.625 249.652344 120.597656 C 240.296875 115.730469 230.835938 110.972656 220.984375 107.210938 C 216.054688 105.332031 212.125 103.59375 207.175781 101.78125 L 207.175781 101.777344 " fill-opacity="1" fill-rule="nonzero"/></g></g></g></g><g clip-path="url(#b472bb3a6e)"><g clip-path="url(#34ea34f099)"><g clip-path="url(#56de2d1df2)"><g clip-path="url(#e14428e78f)"><path fill="#f36784" d="M 149.457031 105.171875 C 147.917969 104.632812 146.269531 104.46875 144.65625 104.691406 C 129.515625 106.472656 115.09375 112.71875 103.476562 122.582031 C 89.917969 134.09375 80.632812 150.164062 77.402344 167.65625 C 76.859375 170.371094 77.429688 173.183594 78.984375 175.476562 C 80.535156 177.765625 82.941406 179.339844 85.664062 179.84375 C 88.382812 180.347656 91.191406 179.742188 93.464844 178.164062 C 95.734375 176.578125 97.273438 174.15625 97.742188 171.429688 C 100.085938 158.75 107.101562 146.703125 116.929688 138.359375 C 125.378906 131.191406 136.105469 126.535156 147.109375 125.238281 C 151.953125 124.765625 155.804688 120.980469 156.371094 116.152344 C 156.933594 111.324219 154.054688 106.75 149.457031 105.171875 " fill-opacity="1" fill-rule="nonzero"/></g></g></g></g><g clip-path="url(#3abcbac995)"><g clip-path="url(#6aed46c20a)"><g clip-path="url(#a187820390)"><g clip-path="url(#d8428fd9c7)"><path fill="#cf1e25" d="M 278.492188 140.140625 C 257.488281 171.765625 227.828125 197.601562 193.453125 213.746094 C 157.554688 230.605469 116.785156 236.914062 77.464844 231.703125 C 70.203125 230.742188 63.023438 229.253906 55.90625 227.519531 C 56.816406 239.492188 58.390625 251.421875 60.757812 263.1875 C 64.160156 280.070312 68.949219 296.921875 77.59375 311.828125 C 87.40625 328.746094 102.105469 342.765625 119.460938 351.792969 C 138.105469 357.707031 158.441406 358.234375 177.351562 353.234375 C 194.007812 348.828125 209.324219 340.324219 223.683594 330.8125 C 246.820312 315.484375 268.148438 297.128906 285.070312 275.140625 C 293.457031 264.242188 300.761719 252.429688 305.660156 239.578125 C 310.5625 226.734375 312.984375 212.789062 311.5625 199.105469 C 309.769531 181.832031 301.839844 165.5 290.636719 152.230469 C 286.9375 147.847656 282.800781 143.902344 278.492188 140.140625 " fill-opacity="1" fill-rule="nonzero"/></g></g></g></g><g clip-path="url(#c6f6946ce9)"><g clip-path="url(#8d95f9be46)"><g clip-path="url(#80a4aa7829)"><g clip-path="url(#20c1259a2e)"><path fill="#fcd9c5" d="M 128.394531 132.257812 C 129.492188 132.898438 130.84375 132.902344 131.949219 132.273438 C 133.054688 131.652344 133.738281 130.480469 133.753906 129.214844 L 133.960938 122.90625 C 133.996094 121.953125 133.652344 121.023438 133.003906 120.328125 C 132.355469 119.628906 131.453125 119.21875 130.5 119.1875 C 129.546875 119.15625 128.625 119.503906 127.929688 120.15625 C 127.234375 120.8125 126.828125 121.714844 126.804688 122.664062 L 126.597656 128.976562 C 126.527344 130.320312 127.226562 131.589844 128.394531 132.257812 " fill-opacity="1" fill-rule="nonzero"/></g></g></g></g><g clip-path="url(#fce6057ccd)"><g clip-path="url(#689ac671d9)"><g clip-path="url(#8be96fe96f)"><g clip-path="url(#07f314a6d1)"><path fill="#fcd9c5" d="M 275.023438 187.675781 C 273.800781 187.347656 272.839844 186.394531 272.5 185.171875 C 272.164062 183.945312 272.507812 182.636719 273.394531 181.730469 L 277.71875 177.128906 C 278.363281 176.429688 279.265625 176.019531 280.21875 175.988281 C 281.167969 175.949219 282.097656 176.300781 282.792969 176.953125 C 283.488281 177.605469 283.894531 178.507812 283.921875 179.460938 C 283.949219 180.417969 283.597656 181.335938 282.941406 182.03125 L 278.613281 186.628906 C 277.710938 187.625 276.320312 188.03125 275.019531 187.675781 L 275.023438 187.675781 " fill-opacity="1" fill-rule="nonzero"/></g></g></g></g><g clip-path="url(#1b940f9027)"><g clip-path="url(#4980fb47fd)"><g clip-path="url(#c213572d2d)"><g clip-path="url(#4ba26f0af6)"><path fill="#fcd9c5" d="M 202.15625 135.003906 C 202.789062 136.105469 203.957031 136.789062 205.226562 136.800781 C 206.496094 136.808594 207.675781 136.140625 208.324219 135.050781 L 211.652344 129.691406 C 212.167969 128.886719 212.339844 127.90625 212.121094 126.976562 C 211.910156 126.046875 211.335938 125.238281 210.527344 124.734375 C 209.714844 124.226562 208.734375 124.070312 207.804688 124.289062 C 206.875 124.507812 206.070312 125.089844 205.578125 125.902344 L 202.242188 131.265625 C 201.507812 132.398438 201.476562 133.84375 202.15625 135.011719 L 202.15625 135.003906 " fill-opacity="1" fill-rule="nonzero"/></g></g></g></g><g clip-path="url(#17f630184e)"><g clip-path="url(#605700a1ba)"><g clip-path="url(#80fef21f79)"><g clip-path="url(#e8960b8585)"><path fill="#fcd9c5" d="M 156.105469 191.644531 C 157.203125 192.28125 158.558594 192.285156 159.664062 191.660156 C 160.765625 191.035156 161.453125 189.867188 161.46875 188.597656 L 161.671875 182.289062 C 161.710938 181.335938 161.367188 180.410156 160.714844 179.714844 C 160.070312 179.011719 159.167969 178.605469 158.214844 178.574219 C 157.261719 178.539062 156.335938 178.886719 155.636719 179.542969 C 154.945312 180.195312 154.542969 181.097656 154.511719 182.050781 L 154.3125 188.359375 C 154.242188 189.707031 154.9375 190.976562 156.109375 191.644531 L 156.105469 191.644531 " fill-opacity="1" fill-rule="nonzero"/></g></g></g></g><g clip-path="url(#8fbfdbfe80)"><g clip-path="url(#3629222e4e)"><g clip-path="url(#d618e414de)"><g clip-path="url(#e8232f20aa)"><path fill="#fcd9c5" d="M 229.609375 220.375 C 228.386719 220.046875 227.421875 219.09375 227.085938 217.867188 C 226.75 216.644531 227.09375 215.335938 227.980469 214.429688 L 232.304688 209.828125 C 232.949219 209.132812 233.851562 208.71875 234.804688 208.6875 C 235.753906 208.652344 236.683594 209 237.378906 209.652344 C 238.074219 210.304688 238.476562 211.207031 238.507812 212.160156 C 238.535156 213.117188 238.183594 214.035156 237.527344 214.730469 L 233.199219 219.328125 C 232.296875 220.324219 230.90625 220.730469 229.605469 220.375 L 229.609375 220.375 " fill-opacity="1" fill-rule="nonzero"/></g></g></g></g><g clip-path="url(#b7f855ce6b)"><g clip-path="url(#bf28cc49c1)"><g clip-path="url(#a5b1928bb3)"><g clip-path="url(#bc0e5ddd9f)"><path fill="#fcd9c5" d="M 255.628906 275.824219 C 254.402344 275.496094 253.441406 274.542969 253.109375 273.320312 C 252.769531 272.09375 253.109375 270.785156 254.003906 269.878906 L 258.320312 265.28125 C 258.96875 264.578125 259.871094 264.167969 260.824219 264.136719 C 261.773438 264.101562 262.703125 264.453125 263.398438 265.101562 C 264.09375 265.753906 264.5 266.65625 264.527344 267.613281 C 264.554688 268.5625 264.203125 269.488281 263.546875 270.179688 L 259.222656 274.777344 C 258.320312 275.777344 256.929688 276.183594 255.628906 275.820312 L 255.628906 275.824219 " fill-opacity="1" fill-rule="nonzero"/></g></g></g></g><g clip-path="url(#72c5c4ad98)"><g clip-path="url(#b44e890cc7)"><g clip-path="url(#e70a01840a)"><g clip-path="url(#cd67632ad6)"><path fill="#fcd9c5" d="M 172.191406 263.460938 C 170.964844 263.136719 170.003906 262.179688 169.667969 260.957031 C 169.332031 259.734375 169.671875 258.421875 170.5625 257.519531 L 174.882812 252.917969 C 175.53125 252.21875 176.429688 251.804688 177.382812 251.773438 C 178.339844 251.742188 179.265625 252.089844 179.960938 252.742188 C 180.65625 253.394531 181.0625 254.296875 181.089844 255.246094 C 181.117188 256.203125 180.761719 257.125 180.109375 257.816406 L 175.785156 262.414062 C 174.878906 263.414062 173.488281 263.820312 172.191406 263.460938 " fill-opacity="1" fill-rule="nonzero"/></g></g></g></g><g clip-path="url(#2848c3712e)"><g clip-path="url(#59cba9ed21)"><g clip-path="url(#6e39677bcf)"><g clip-path="url(#12aa3c3181)"><path fill="#fcd9c5" d="M 83.75 179.425781 C 84.84375 180.0625 86.199219 180.074219 87.304688 179.445312 C 88.410156 178.816406 89.097656 177.652344 89.109375 176.382812 L 89.316406 170.074219 C 89.351562 169.125 89.007812 168.195312 88.359375 167.492188 C 87.707031 166.796875 86.808594 166.386719 85.851562 166.355469 C 84.902344 166.324219 83.976562 166.675781 83.28125 167.324219 C 82.589844 167.976562 82.183594 168.882812 82.15625 169.832031 L 81.953125 176.144531 C 81.886719 177.488281 82.582031 178.757812 83.753906 179.425781 L 83.75 179.425781 " fill-opacity="1" fill-rule="nonzero"/></g></g></g></g><g clip-path="url(#425cba1f3b)"><g clip-path="url(#d8585118c0)"><g clip-path="url(#d1748495db)"><g clip-path="url(#0130f1cbff)"><path fill="#fcd9c5" d="M 102.121094 247.414062 C 103.214844 248.050781 104.566406 248.054688 105.671875 247.433594 C 106.78125 246.804688 107.464844 245.640625 107.480469 244.367188 L 107.6875 238.058594 C 107.722656 237.109375 107.375 236.179688 106.726562 235.484375 C 106.078125 234.785156 105.179688 234.371094 104.226562 234.339844 C 103.273438 234.308594 102.347656 234.660156 101.652344 235.3125 C 100.960938 235.964844 100.550781 236.867188 100.527344 237.820312 L 100.324219 244.128906 C 100.253906 245.476562 100.949219 246.746094 102.121094 247.414062 " fill-opacity="1" fill-rule="nonzero"/></g></g></g></g><g clip-path="url(#052f3eb2f3)"><g clip-path="url(#664cc9e5e1)"><g clip-path="url(#cc1cf04977)"><g clip-path="url(#16c5a1174a)"><path fill="#fcd9c5" d="M 122.152344 318.71875 C 123.25 319.359375 124.605469 319.363281 125.707031 318.738281 C 126.8125 318.113281 127.496094 316.945312 127.511719 315.675781 L 127.71875 309.367188 C 127.753906 308.414062 127.414062 307.484375 126.761719 306.792969 C 126.109375 306.09375 125.210938 305.679688 124.257812 305.648438 C 123.304688 305.617188 122.378906 305.96875 121.683594 306.621094 C 120.992188 307.273438 120.582031 308.175781 120.558594 309.125 L 120.355469 315.4375 C 120.285156 316.78125 120.980469 318.050781 122.152344 318.71875 " fill-opacity="1" fill-rule="nonzero"/></g></g></g></g><g clip-path="url(#9cb1a470ed)"><g clip-path="url(#da5a1010c1)"><g clip-path="url(#efcaf3e18c)"><g clip-path="url(#644b1f279f)"><path fill="#fcd9c5" d="M 195.878906 319.792969 C 194.652344 319.46875 193.691406 318.511719 193.355469 317.289062 C 193.015625 316.066406 193.359375 314.757812 194.246094 313.847656 L 198.570312 309.25 C 199.21875 308.550781 200.117188 308.136719 201.070312 308.105469 C 202.023438 308.074219 202.949219 308.417969 203.644531 309.070312 C 204.339844 309.726562 204.746094 310.628906 204.777344 311.582031 C 204.800781 312.535156 204.449219 313.457031 203.792969 314.148438 L 199.46875 318.746094 C 198.566406 319.75 197.175781 320.152344 195.878906 319.792969 " fill-opacity="1" fill-rule="nonzero"/></g></g></g></g><g clip-path="url(#aa27d035d3)"><g clip-path="url(#3d4d5e914e)"><g clip-path="url(#52692acf34)"><g clip-path="url(#07b3d4cd74)"><path fill="#bfe473" d="M 250.417969 31.488281 C 249.320312 30.964844 248.046875 30.949219 246.9375 31.449219 C 241.460938 33.742188 236.304688 36.707031 231.570312 40.285156 C 227.734375 43.183594 224.179688 46.449219 221.003906 50.058594 C 220.273438 50.882812 219.910156 51.960938 219.976562 53.0625 C 220.046875 54.160156 220.554688 55.183594 221.382812 55.90625 C 222.207031 56.632812 223.289062 56.996094 224.386719 56.917969 C 225.484375 56.84375 226.507812 56.335938 227.230469 55.507812 C 230.03125 52.316406 233.125 49.433594 236.511719 46.871094 C 240.695312 43.710938 245.296875 41.046875 250.136719 39.019531 C 251.648438 38.414062 252.667969 36.976562 252.726562 35.34375 C 252.789062 33.71875 251.878906 32.203125 250.417969 31.488281 " fill-opacity="1" fill-rule="nonzero"/></g></g></g></g><g clip-path="url(#78aeb41cee)"><g clip-path="url(#1d9b4f952e)"><g clip-path="url(#69b4b1d19b)"><g clip-path="url(#79d1600b02)"><path fill="#bfe473" d="M 145.460938 64.722656 C 144.6875 64.054688 144.246094 63.078125 144.257812 62.050781 C 144.183594 57.058594 144.734375 52.082031 145.898438 47.222656 C 146.839844 43.292969 148.160156 39.449219 149.875 35.785156 C 150.265625 34.949219 150.972656 34.300781 151.84375 33.984375 C 152.710938 33.671875 153.671875 33.714844 154.507812 34.109375 C 155.34375 34.503906 155.992188 35.210938 156.304688 36.085938 C 156.613281 36.957031 156.570312 37.914062 156.171875 38.75 C 154.660156 41.988281 153.472656 45.339844 152.640625 48.816406 C 151.613281 53.105469 151.109375 57.550781 151.175781 61.964844 C 151.21875 63.335938 150.449219 64.609375 149.214844 65.203125 C 147.980469 65.800781 146.503906 65.613281 145.460938 64.722656 " fill-opacity="1" fill-rule="nonzero"/></g></g></g></g><g clip-path="url(#457b9945b3)"><g clip-path="url(#e9b3486366)"><g clip-path="url(#041dc627e4)"><g clip-path="url(#4e3b6772bb)"><path fill="#bfe473" d="M 290.152344 93.589844 C 290.792969 92.792969 291.761719 92.320312 292.785156 92.304688 C 297.777344 92.070312 302.769531 92.46875 307.660156 93.476562 C 311.625 94.296875 315.507812 95.496094 319.226562 97.09375 C 320.078125 97.457031 320.753906 98.144531 321.101562 99.003906 C 321.445312 99.863281 321.433594 100.828125 321.066406 101.675781 C 320.703125 102.527344 320.007812 103.199219 319.144531 103.539062 C 318.285156 103.875 317.320312 103.859375 316.472656 103.484375 C 313.1875 102.074219 309.796875 100.996094 306.292969 100.273438 C 301.96875 99.378906 297.507812 99.011719 293.101562 99.214844 C 291.730469 99.304688 290.4375 98.574219 289.800781 97.359375 C 289.167969 96.144531 289.304688 94.667969 290.164062 93.59375 L 290.152344 93.589844 " fill-opacity="1" fill-rule="nonzero"/></g></g></g></g></svg>